Pliska-SemiBold.ufo
<glyph name="numbersign" format="2">
  <advance width="500"/>
  <unicode hex="0023"/>
  <outline>
    <contour>
      <point x="4.33333" y="212" type="line"/>
      <point x="4.33333" y="279" type="line"/>
      <point x="114.333" y="279" type="line"/>
      <point x="133.333" y="413" type="line"/>
      <point x="32.6667" y="413" type="line"/>
      <point x="32.6667" y="480" type="line"/>
      <point x="142.667" y="480" type="line"/>
      <point x="173" y="687.333" type="line"/>
      <point x="243.667" y="687.333" type="line"/>
      <point x="214" y="480" type="line"/>
      <point x="333.667" y="480" type="line"/>
      <point x="363.667" y="687.333" type="line"/>
      <point x="434.333" y="687.333" type="line"/>
      <point x="405" y="480" type="line"/>
      <point x="496" y="480" type="line"/>
      <point x="496" y="413" type="line"/>
      <point x="395.667" y="413" type="line"/>
      <point x="377" y="279" type="line"/>
      <point x="468.333" y="279" type="line"/>
      <point x="468.333" y="212" type="line"/>
      <point x="366.667" y="212" type="line"/>
      <point x="337" y="0" type="line"/>
      <point x="265.667" y="0" type="line"/>
      <point x="295.333" y="212" type="line"/>
      <point x="175.333" y="212" type="line"/>
      <point x="145" y="0" type="line"/>
      <point x="73.6667" y="0" type="line"/>
      <point x="104" y="212" type="line"/>
    </contour>
    <contour>
      <point x="185.667" y="279" type="line"/>
      <point x="305.667" y="279" type="line"/>
      <point x="324.333" y="413" type="line"/>
      <point x="204.667" y="413" type="line"/>
    </contour>
  </outline>
</glyph>
<glyph name="dollar" format="2">
  <advance width="500"/>
  <unicode hex="0024"/>
  <outline>
    <contour>
      <point x="34" y="346.595" type="curve"/>
      <point x="34" y="420.459"/>
      <point x="79.4819" y="490.908"/>
      <point x="157.333" y="508.333" type="curve"/>
      <point x="162.333" y="560.333" type="line"/>
      <point x="178.19" y="525.333"/>
      <point x="217.81" y="509.333"/>
      <point x="256" y="509.333" type="curve"/>
      <point x="256" y="552.667" type="line"/>
      <point x="269.788" y="566.717"/>
      <point x="271.333" y="576.152"/>
      <point x="302.667" y="586.379" type="curve"/>
      <point x="302.667" y="598.779"/>
      <point x="324.012" y="558.797"/>
      <point x="362" y="542" type="curve"/>
      <point x="348" y="563" type="line"/>
      <point x="329.184" y="638.054"/>
      <point x="316.609" y="660.072"/>
      <point x="267.333" y="669.667" type="curve"/>
      <point x="267.333" y="505.333" type="line"/>
      <point x="395.458" y="453.364"/>
      <point x="445" y="408.471"/>
      <point x="456.333" y="331.386" type="curve"/>
      <point x="456.333" y="252.986"/>
      <point x="416.662" y="192.933"/>
      <point x="321" y="166.667" type="curve"/>
      <point x="316" y="100.667" type="line"/>
      <point x="303.015" y="128.954"/>
      <point x="265.887" y="142.995"/>
      <point x="230.667" y="146.333" type="curve"/>
      <point x="230.667" y="130.333" type="line"/>
      <point x="237.74" y="106.778"/>
      <point x="237.667" y="92.9377"/>
      <point x="183" y="86.9403" type="curve"/>
      <point x="183" y="72.1053"/>
      <point x="162.352" y="115.704"/>
      <point x="118.667" y="132.667" type="curve"/>
      <point x="132.667" y="102.333" type="line"/>
      <point x="151.186" y="30.7132"/>
      <point x="170.896" y="0.383105"/>
      <point x="218.667" y="-9" type="curve"/>
      <point x="218.667" y="187.333" type="line"/>
      <point x="101.843" y="232.745"/>
      <point x="54" y="275.661"/>
    </contour>
    <contour>
      <point x="124.667" y="548.135" type="curve" smooth="yes"/>
      <point x="124.667" y="501.207"/>
      <point x="150.902" y="470.841"/>
      <point x="218.333" y="438.333" type="curve"/>
      <point x="218.333" y="641.667" type="line"/>
      <point x="153.188" y="626.304"/>
      <point x="124.667" y="597.548"/>
    </contour>
    <contour>
      <point x="267.333" y="29.3333" type="line"/>
      <point x="348.908" y="42.4166"/>
      <point x="367.333" y="77.0564"/>
      <point x="367.333" y="146.286" type="curve" smooth="yes"/>
      <point x="367.333" y="194.855"/>
      <point x="357.051" y="215.193"/>
      <point x="267.333" y="264.333" type="curve"/>
    </contour>
  </outline>
</glyph>
<glyph name="parenleft" format="2">
  <advance width="333"/>
  <unicode hex="0028"/>
  <outline>
    <contour>
      <point x="46.6667" y="256.667" type="curve" smooth="yes"/>
      <point x="46.6667" y="381.667"/>
      <point x="89" y="494.333"/>
      <point x="169.333" y="584.667" type="curve" smooth="yes"/>
      <point x="207.667" y="627.333"/>
      <point x="236.333" y="650"/>
      <point x="302.333" y="688" type="curve"/>
      <point x="305.333" y="664.667" type="line"/>
      <point x="241.333" y="618.667"/>
      <point x="215.333" y="589.333"/>
      <point x="192" y="539.333" type="curve" smooth="yes"/>
      <point x="164.333" y="478.667"/>
      <point x="150.667" y="384"/>
      <point x="150.667" y="257" type="curve" smooth="yes"/>
      <point x="150.667" y="132.333"/>
      <point x="163.667" y="45.6667"/>
      <point x="191.667" y="-18" type="curve" smooth="yes"/>
      <point x="214.667" y="-73"/>
      <point x="240.667" y="-102"/>
      <point x="305.333" y="-147" type="curve"/>
      <point x="301.333" y="-171" type="line"/>
      <point x="218.667" y="-121"/>
      <point x="181.333" y="-87"/>
      <point x="137" y="-23" type="curve"/>
      <point x="75.6667" y="61.6667"/>
      <point x="46.6667" y="153.667"/>
    </contour>
  </outline>
</glyph>
<glyph name="one" format="2">
  <advance width="500"/>
  <unicode hex="0031"/>
  <outline>
    <contour>
      <point x="84" y="0" type="line"/>
      <point x="84" y="21" type="line"/>
      <point x="169.333" y="25.6667"/>
      <point x="195" y="33"/>
      <point x="195" y="111" type="curve" smooth="yes"/>
      <point x="195" y="521.333" type="line" smooth="yes"/>
      <point x="195" y="559.667"/>
      <point x="187.667" y="583"/>
      <point x="159.791" y="583" type="curve" smooth="yes"/>
      <point x="138.984" y="583"/>
      <point x="105.092" y="570.096"/>
      <point x="80.3333" y="559" type="curve"/>
      <point x="80.3333" y="581" type="line"/>
      <point x="308.333" y="684" type="line"/>
      <point x="322.333" y="683.333" type="line"/>
      <point x="322.333" y="104.667" type="line" smooth="yes"/>
      <point x="322.333" y="35.3333"/>
      <point x="340.333" y="25"/>
      <point x="426" y="21" type="curve"/>
      <point x="426" y="0" type="line"/>
    </contour>
  </outline>
</glyph>
<glyph name="five" format="2">
  <advance width="500"/>
  <unicode hex="0035"/>
  <outline>
    <contour>
      <point x="25.3333" y="68.6667" type="curve" smooth="yes"/>
      <point x="25.3333" y="90.6667"/>
      <point x="38" y="121.667"/>
      <point x="80" y="121.667" type="curve" smooth="yes"/>
      <point x="147.333" y="121.667"/>
      <point x="194.333" y="43"/>
      <point x="254.333" y="43" type="curve" smooth="yes"/>
      <point x="298.667" y="43"/>
      <point x="367.333" y="76.3333"/>
      <point x="367.333" y="171.667" type="curve" smooth="yes"/>
      <point x="367.333" y="322.108"/>
      <point x="160.848" y="351.914"/>
      <point x="56.4033" y="358" type="curve"/>
      <point x="146.667" y="671.333" type="line"/>
      <point x="447.208" y="671.227" type="line"/>
      <point x="409.667" y="560.333" type="line"/>
      <point x="149.667" y="560.333" type="line"/>
      <point x="127.333" y="478" type="line"/>
      <point x="285.373" y="462.433"/>
      <point x="442.667" y="420.913"/>
      <point x="442.667" y="230.333" type="curve" smooth="yes"/>
      <point x="442.667" y="98.6667"/>
      <point x="336.667" y="-10"/>
      <point x="162.667" y="-10" type="curve" smooth="yes"/>
      <point x="85" y="-10"/>
      <point x="25.3333" y="18.6667"/>
    </contour>
  </outline>
</glyph>
<glyph name="six" format="2">
  <advance width="500"/>
  <unicode hex="0036"/>
  <outline>
    <contour>
      <point x="30" y="286.333" type="curve" smooth="yes"/>
      <point x="30" y="477.4"/>
      <point x="184.637" y="662.605"/>
      <point x="462" y="686.667" type="curve"/>
      <point x="462.667" y="664" type="line"/>
      <point x="344.876" y="642.625"/>
      <point x="223.545" y="568.113"/>
      <point x="186.667" y="397" type="curve"/>
      <point x="214.937" y="413.937"/>
      <point x="240.81" y="423.333"/>
      <point x="288.959" y="423.333" type="curve" smooth="yes"/>
      <point x="373.902" y="423.333"/>
      <point x="472.667" y="370.496"/>
      <point x="472.667" y="214.951" type="curve" smooth="yes"/>
      <point x="472.667" y="133.005"/>
      <point x="416.889" y="-13.3333"/>
      <point x="256" y="-13.3333" type="curve" smooth="yes"/>
      <point x="151.087" y="-13.3333"/>
      <point x="30" y="64.0682"/>
    </contour>
    <contour>
      <point x="165.667" y="267.333" type="curve" smooth="yes"/>
      <point x="165.667" y="86.6972"/>
      <point x="194.07" y="14"/>
      <point x="264.333" y="14" type="curve" smooth="yes"/>
      <point x="327.941" y="14"/>
      <point x="341.333" y="76.2722"/>
      <point x="341.333" y="166.231" type="curve" smooth="yes"/>
      <point x="341.333" y="303.203"/>
      <point x="314.501" y="378"/>
      <point x="239.672" y="378" type="curve" smooth="yes"/>
      <point x="217.048" y="378"/>
      <point x="193.55" y="370.511"/>
      <point x="178.333" y="358.667" type="curve"/>
      <point x="170.712" y="339.508"/>
      <point x="165.667" y="303.673"/>
    </contour>
  </outline>
</glyph>
<glyph name="seven" format="2">
  <advance width="500"/>
  <unicode hex="0037"/>
  <outline>
    <contour>
      <point x="18" y="474.333" type="line"/>
      <point x="67" y="671.333" type="line"/>
      <point x="466.333" y="671.333" type="line"/>
      <point x="466.293" y="662.049" type="line"/>
      <point x="240.333" y="-2.66667" type="line"/>
      <point x="155.333" y="-2.66667" type="line"/>
      <point x="354.667" y="555.333" type="line"/>
      <point x="144.333" y="555.333" type="line" smooth="yes"/>
      <point x="89.3333" y="555.333"/>
      <point x="67.3333" y="537"/>
      <point x="40.3333" y="471.667" type="curve"/>
    </contour>
  </outline>
</glyph>
<glyph name="eight" format="2">
  <advance width="500"/>
  <unicode hex="0038"/>
  <outline>
    <contour>
      <point x="37.3333" y="156.913" type="curve" smooth="yes"/>
      <point x="37.3333" y="231.727"/>
      <point x="77.877" y="278.399"/>
      <point x="181.181" y="326.667" type="curve"/>
      <point x="84.7277" y="391.459"/>
      <point x="46.6667" y="444.493"/>
      <point x="46.6667" y="515.328" type="curve" smooth="yes"/>
      <point x="46.6667" y="615.406"/>
      <point x="132.24" y="684"/>
      <point x="257.322" y="684" type="curve" smooth="yes"/>
      <point x="369.923" y="684"/>
      <point x="446.667" y="624.304"/>
      <point x="446.667" y="536.806" type="curve" smooth="yes"/>
      <point x="446.667" y="476.251"/>
      <point x="403.177" y="430.365"/>
      <point x="311.531" y="393" type="curve"/>
      <point x="418.091" y="323.22"/>
      <point x="463" y="257.618"/>
      <point x="463" y="175.975" type="curve" smooth="yes"/>
      <point x="463" y="62.2457"/>
      <point x="376.915" y="-13.3333"/>
      <point x="247.448" y="-13.3333" type="curve" smooth="yes"/>
      <point x="122.182" y="-13.3333"/>
      <point x="37.3333" y="55.4318"/>
    </contour>
    <contour>
      <point x="143.333" y="163.378" type="curve" smooth="yes"/>
      <point x="143.333" y="73.0421"/>
      <point x="186.161" y="17.3333"/>
      <point x="252.838" y="17.3333" type="curve" smooth="yes"/>
      <point x="307.568" y="17.3333"/>
      <point x="345" y="64.0225"/>
      <point x="345" y="132" type="curve" smooth="yes"/>
      <point x="345" y="196.301"/>
      <point x="287.561" y="253.599"/>
      <point x="204.435" y="308" type="curve"/>
      <point x="160.89" y="259.583"/>
      <point x="143.333" y="218.812"/>
    </contour>
    <contour>
      <point x="158" y="563.601" type="curve" smooth="yes"/>
      <point x="158" y="510.312"/>
      <point x="206.273" y="449.662"/>
      <point x="282.502" y="406.936" type="curve"/>
      <point x="321.969" y="445.87"/>
      <point x="343" y="488.486"/>
      <point x="343" y="533.014" type="curve" smooth="yes"/>
      <point x="343" y="610.566"/>
      <point x="308.524" y="655.333"/>
      <point x="251.274" y="655.333" type="curve" smooth="yes"/>
      <point x="197.001" y="655.333"/>
      <point x="158" y="617.17"/>
    </contour>
  </outline>
</glyph>
<glyph name="nine" format="2">
  <advance width="500"/>
  <unicode hex="0039"/>
  <outline>
    <contour>
      <point x="27.3333" y="454.333" type="curve" smooth="yes"/>
      <point x="27.3333" y="534.667"/>
      <point x="79.3333" y="684"/>
      <point x="235.016" y="684" type="curve" smooth="yes"/>
      <point x="343.667" y="684"/>
      <point x="468.333" y="608.333"/>
      <point x="468.333" y="391.763" type="curve" smooth="yes"/>
      <point x="468.333" y="200.667"/>
      <point x="325" y="9.33333"/>
      <point x="40.3333" y="-16" type="curve"/>
      <point x="39.3333" y="8" type="line"/>
      <point x="186.297" y="34.5927"/>
      <point x="283.104" y="145.324"/>
      <point x="319.399" y="277.946" type="curve"/>
      <point x="318.333" y="279.333" type="line"/>
      <point x="284.594" y="256.828"/>
      <point x="246.011" y="248.333"/>
      <point x="212.593" y="248.333" type="curve" smooth="yes"/>
      <point x="117.333" y="248.333"/>
      <point x="27.3333" y="312.333"/>
    </contour>
    <contour>
      <point x="159.333" y="504.374" type="curve" smooth="yes"/>
      <point x="159.333" y="382.333"/>
      <point x="177.333" y="292.667"/>
      <point x="254.382" y="292.667" type="curve" smooth="yes"/>
      <point x="280.333" y="292.667"/>
      <point x="313.132" y="303.558"/>
      <point x="325.128" y="316" type="curve"/>
      <point x="327.862" y="333.446"/>
      <point x="331.128" y="381.037"/>
      <point x="331.128" y="399.333" type="curve" smooth="yes"/>
      <point x="331.128" y="550.333"/>
      <point x="320" y="656.667"/>
      <point x="237.214" y="656.667" type="curve" smooth="yes"/>
      <point x="167" y="656.667"/>
      <point x="159.333" y="583.667"/>
    </contour>
  </outline>
</glyph>
<glyph name="colon" format="2">
  <advance width="315"/>
  <unicode hex="003A"/>
  <outline>
    <contour>
      <point x="81.6667" y="62.3333" type="curve" smooth="yes"/>
      <point x="81.6667" y="102.667"/>
      <point x="115.333" y="137.333"/>
      <point x="156" y="137.333" type="curve" smooth="yes"/>
      <point x="197.333" y="137.333"/>
      <point x="231.333" y="102.667"/>
      <point x="231.333" y="61" type="curve" smooth="yes"/>
      <point x="231.333" y="20.6667"/>
      <point x="197.333" y="-12.3333"/>
      <point x="155" y="-12.3333" type="curve" smooth="yes"/>
      <point x="114" y="-12.3333"/>
      <point x="81.6667" y="20.6667"/>
    </contour>
    <contour>
      <point x="81.6667" y="393.333" type="curve" smooth="yes"/>
      <point x="81.6667" y="433.667"/>
      <point x="115.333" y="467.667"/>
      <point x="156" y="467.667" type="curve" smooth="yes"/>
      <point x="197.333" y="467.667"/>
      <point x="231.333" y="433.667"/>
      <point x="231.333" y="392" type="curve" smooth="yes"/>
      <point x="231.333" y="351.667"/>
      <point x="197.333" y="318"/>
      <point x="155.667" y="318" type="curve" smooth="yes"/>
      <point x="114" y="318"/>
      <point x="81.6667" y="351"/>
    </contour>
  </outline>
</glyph>
<glyph name="equal" format="2">
  <advance width="568"/>
  <unicode hex="003D"/>
  <outline>
    <contour>
      <point x="32" y="111.333" type="line"/>
      <point x="32" y="192" type="line"/>
      <point x="536" y="192" type="line"/>
      <point x="536" y="111.333" type="line"/>
    </contour>
    <contour>
      <point x="32" y="314" type="line"/>
      <point x="32" y="394.667" type="line"/>
      <point x="536" y="394.667" type="line"/>
      <point x="536" y="314" type="line"/>
    </contour>
  </outline>
</glyph>
<glyph name="C" format="2">
  <advance width="704"/>
  <unicode hex="0043"/>
  <outline>
    <contour>
      <point x="42" y="331.667" type="curve" smooth="yes"/>
      <point x="42" y="534.537"/>
      <point x="187.102" y="686"/>
      <point x="391.667" y="686" type="curve" smooth="yes"/>
      <point x="475.333" y="686"/>
      <point x="545.667" y="642.333"/>
      <point x="581.667" y="642.333" type="curve" smooth="yes"/>
      <point x="606.667" y="642.333"/>
      <point x="620.667" y="661.667"/>
      <point x="627.667" y="684" type="curve"/>
      <point x="652.667" y="684" type="line"/>
      <point x="652.667" y="453" type="line"/>
      <point x="628.333" y="453" type="line"/>
      <point x="594.333" y="552"/>
      <point x="512.667" y="650.667"/>
      <point x="399.667" y="650.667" type="curve" smooth="yes"/>
      <point x="235.245" y="650.667"/>
      <point x="198.667" y="465.47"/>
      <point x="198.667" y="333.667" type="curve" smooth="yes"/>
      <point x="198.667" y="196"/>
      <point x="242.333" y="29.3333"/>
      <point x="410.333" y="29.3333" type="curve" smooth="yes"/>
      <point x="507.333" y="29.3333"/>
      <point x="579" y="76.6667"/>
      <point x="643" y="145" type="curve"/>
      <point x="669" y="122.333" type="line"/>
      <point x="599" y="36"/>
      <point x="506" y="-17.3333"/>
      <point x="392.667" y="-17.3333" type="curve" smooth="yes"/>
      <point x="184.333" y="-17.3333"/>
      <point x="42" y="122.667"/>
    </contour>
  </outline>
</glyph>
<glyph name="E" format="2">
  <advance width="648"/>
  <unicode hex="0045"/>
  <outline>
    <contour>
      <point x="14.6667" y="0" type="line"/>
      <point x="14.6667" y="23" type="line"/>
      <point x="88.3333" y="30"/>
      <point x="102.333" y="42.3333"/>
      <point x="102.333" y="100.333" type="curve" smooth="yes"/>
      <point x="102.333" y="571" type="line" smooth="yes"/>
      <point x="102.333" y="628.333"/>
      <point x="85.3333" y="643.667"/>
      <point x="14.6667" y="648.333" type="curve"/>
      <point x="14.6667" y="671.333" type="line"/>
      <point x="576.333" y="671.333" type="line"/>
      <point x="577.333" y="488.667" type="line"/>
      <point x="552.333" y="488.667" type="line"/>
      <point x="530.726" y="603.473"/>
      <point x="492.803" y="635.934"/>
      <point x="357.433" y="635.934" type="curve" smooth="yes"/>
      <point x="298.667" y="635.934" type="line" smooth="yes"/>
      <point x="255.002" y="635.934"/>
      <point x="244.333" y="627"/>
      <point x="244.333" y="592.333" type="curve" smooth="yes"/>
      <point x="244.333" y="364.667" type="line"/>
      <point x="298.539" y="364.653" type="line"/>
      <point x="399.695" y="364.653"/>
      <point x="426.801" y="398.353"/>
      <point x="440.333" y="495.333" type="curve"/>
      <point x="465.333" y="495.333" type="line"/>
      <point x="465.333" y="192.667" type="line"/>
      <point x="440.333" y="192.667" type="line"/>
      <point x="428.099" y="296.705"/>
      <point x="396.342" y="327.67"/>
      <point x="298.356" y="327.988" type="curve"/>
      <point x="244.333" y="328" type="line"/>
      <point x="244.333" y="84.6667" type="line" smooth="yes"/>
      <point x="244.333" y="44.3333"/>
      <point x="257.333" y="33.3333"/>
      <point x="318" y="33.3333" type="curve"/>
      <point x="355.245" y="33.5287" type="line" smooth="yes"/>
      <point x="490.932" y="36.5762"/>
      <point x="546.405" y="82.7899"/>
      <point x="598.333" y="195" type="curve"/>
      <point x="626.333" y="195" type="line"/>
      <point x="584.667" y="0" type="line"/>
    </contour>
  </outline>
</glyph>
<glyph name="F" format="2">
  <advance width="593"/>
  <unicode hex="0046"/>
  <outline>
    <contour>
      <point x="14.6667" y="0" type="line"/>
      <point x="14.6667" y="23" type="line"/>
      <point x="89.3333" y="30"/>
      <point x="102.333" y="41.6667"/>
      <point x="102.333" y="104" type="curve" smooth="yes"/>
      <point x="102.333" y="571" type="line" smooth="yes"/>
      <point x="102.333" y="629"/>
      <point x="85.3333" y="643.667"/>
      <point x="14.6667" y="648.333" type="curve"/>
      <point x="14.6667" y="671.333" type="line"/>
      <point x="570.667" y="671.333" type="line"/>
      <point x="570.667" y="488.667" type="line"/>
      <point x="546.333" y="488.667" type="line"/>
      <point x="520.159" y="610.952"/>
      <point x="486.74" y="636"/>
      <point x="351.554" y="636" type="curve" smooth="yes"/>
      <point x="297.667" y="636" type="line" smooth="yes"/>
      <point x="254.667" y="636"/>
      <point x="244.333" y="626.333"/>
      <point x="244.333" y="592.333" type="curve" smooth="yes"/>
      <point x="244.333" y="364.719" type="line"/>
      <point x="299.333" y="364.667" type="line"/>
      <point x="389.568" y="364.167"/>
      <point x="414.72" y="389.116"/>
      <point x="431.333" y="495.667" type="curve"/>
      <point x="455.667" y="495.667" type="line"/>
      <point x="455.667" y="193" type="line"/>
      <point x="431.333" y="193" type="line"/>
      <point x="418" y="297.333"/>
      <point x="394.346" y="328.22"/>
      <point x="299.333" y="328.333" type="curve"/>
      <point x="244.333" y="328.344" type="line"/>
      <point x="244.333" y="100.333" type="line" smooth="yes"/>
      <point x="244.333" y="39.6667"/>
      <point x="261" y="27"/>
      <point x="348" y="23" type="curve"/>
      <point x="348" y="0" type="line"/>
    </contour>
  </outline>
</glyph>
<glyph name="G" format="2">
  <advance width="759"/>
  <unicode hex="0047"/>
  <outline>
    <contour>
      <point x="35.3333" y="329" type="curve" smooth="yes"/>
      <point x="35.3333" y="534.333"/>
      <point x="182.333" y="686"/>
      <point x="381.667" y="686" type="curve" smooth="yes"/>
      <point x="447" y="686"/>
      <point x="496.667" y="667.667"/>
      <point x="547.667" y="651.667" type="curve" smooth="yes"/>
      <point x="569.333" y="645"/>
      <point x="585.333" y="647"/>
      <point x="593.333" y="653.333" type="curve"/>
      <point x="607.025" y="653.333"/>
      <point x="618.633" y="660.667"/>
      <point x="630" y="684" type="curve"/>
      <point x="648" y="613.667" type="line"/>
      <point x="640.333" y="457.667" type="line"/>
      <point x="627.995" y="478"/>
      <point x="612.493" y="487"/>
      <point x="600" y="496.333" type="curve"/>
      <point x="563.667" y="559"/>
      <point x="532" y="588"/>
      <point x="484.667" y="613.333" type="curve"/>
      <point x="432.667" y="638.667"/>
      <point x="383.333" y="641.667"/>
      <point x="338" y="625.333" type="curve"/>
      <point x="242.667" y="609"/>
      <point x="191.333" y="504.667"/>
      <point x="191.333" y="334" type="curve" smooth="yes"/>
      <point x="191.333" y="192"/>
      <point x="238.667" y="96.6667"/>
      <point x="322.333" y="59.3333" type="curve"/>
      <point x="368.333" y="30.6667"/>
      <point x="416.667" y="27"/>
      <point x="458.667" y="37.6667" type="curve"/>
      <point x="503.333" y="50.8229"/>
      <point x="522.667" y="96.3189"/>
      <point x="522.667" y="140.333" type="curve" smooth="yes"/>
      <point x="522.667" y="184.466"/>
      <point x="517.667" y="220.785"/>
      <point x="493.333" y="240" type="curve"/>
      <point x="493.333" y="277.15"/>
      <point x="483.333" y="287.498"/>
      <point x="426" y="292.667" type="curve"/>
      <point x="511" y="309.333" type="line"/>
      <point x="739.667" y="303.333" type="line"/>
      <point x="720.333" y="297.607"/>
      <point x="716.333" y="284.782"/>
      <point x="716.333" y="261" type="curve"/>
      <point x="666.333" y="238.046"/>
      <point x="659" y="196.821"/>
      <point x="659" y="132" type="curve"/>
      <point x="645.667" y="111.835"/>
      <point x="604" y="37.7504"/>
      <point x="575.333" y="24" type="curve"/>
      <point x="496" y="-1.33333"/>
      <point x="391.333" y="-4.66667"/>
      <point x="300.333" y="18.3333" type="curve"/>
      <point x="141.667" y="38"/>
      <point x="35.3333" y="159"/>
    </contour>
  </outline>
</glyph>
<glyph name="P" format="2">
  <advance width="591"/>
  <unicode hex="0050"/>
  <outline>
    <contour>
      <point x="14.6667" y="0" type="line"/>
      <point x="14.6667" y="23" type="line"/>
      <point x="82.9705" y="33.1462"/>
      <point x="98.6667" y="41.5496"/>
      <point x="98.6667" y="114.667" type="curve" smooth="yes"/>
      <point x="98.6667" y="557" type="line" smooth="yes"/>
      <point x="98.6667" y="627.667"/>
      <point x="86" y="641.667"/>
      <point x="14.6667" y="648.333" type="curve"/>
      <point x="14.6667" y="671.333" type="line"/>
      <point x="317.333" y="671.333" type="line" smooth="yes"/>
      <point x="481.319" y="671.333"/>
      <point x="579.333" y="601.533"/>
      <point x="579.333" y="484.91" type="curve" smooth="yes"/>
      <point x="579.333" y="369.183"/>
      <point x="477.274" y="302.611"/>
      <point x="296.924" y="302.541" type="curve" smooth="yes"/>
      <point x="269.18" y="302.53"/>
      <point x="235.324" y="304.798"/>
      <point x="210.667" y="307.333" type="curve"/>
      <point x="210.667" y="344" type="line"/>
      <point x="229.093" y="341.767"/>
      <point x="253.995" y="339.919"/>
      <point x="273.572" y="339.914" type="curve" smooth="yes"/>
      <point x="379.181" y="339.875"/>
      <point x="428.333" y="385.639"/>
      <point x="428.333" y="484.333" type="curve" smooth="yes"/>
      <point x="428.333" y="592.246"/>
      <point x="390.417" y="635.406"/>
      <point x="294.911" y="635.654" type="curve"/>
      <point x="285.333" y="635.667" type="line" smooth="yes"/>
      <point x="254.333" y="635.76"/>
      <point x="240.667" y="625.333"/>
      <point x="240.667" y="601" type="curve" smooth="yes"/>
      <point x="240.667" y="114.667" type="line" smooth="yes"/>
      <point x="240.667" y="41.6667"/>
      <point x="251.667" y="30.6667"/>
      <point x="330.667" y="23" type="curve"/>
      <point x="330.667" y="0" type="line"/>
    </contour>
  </outline>
</glyph>
<glyph name="Z" format="2">
  <advance width="648"/>
  <unicode hex="005A"/>
  <outline>
    <contour>
      <point x="21.6667" y="0" type="line"/>
      <point x="21.6667" y="15.6667" type="line"/>
      <point x="422" y="635.333" type="line"/>
      <point x="285.137" y="635.388" type="line"/>
      <point x="145.409" y="635.388"/>
      <point x="112.133" y="589.825"/>
      <point x="77" y="477" type="curve"/>
      <point x="49.6667" y="477" type="line"/>
      <point x="70.3333" y="671.333" type="line"/>
      <point x="595" y="671.333" type="line"/>
      <point x="595" y="655.667" type="line"/>
      <point x="198.333" y="36" type="line"/>
      <point x="353.667" y="36" type="line" smooth="yes"/>
      <point x="517.61" y="36"/>
      <point x="556.077" y="73.2045"/>
      <point x="596.667" y="219.333" type="curve"/>
      <point x="621.667" y="219.333" type="line"/>
      <point x="596.333" y="0" type="line"/>
    </contour>
  </outline>
</glyph>
<glyph name="backslash" format="2">
  <advance width="278"/>
  <unicode hex="005C"/>
  <outline>
    <contour>
      <point x="-19.6667" y="686" type="line"/>
      <point x="64.6667" y="686" type="line"/>
      <point x="297.667" y="-17.3333" type="line"/>
      <point x="213.667" y="-17.3333" type="line"/>
    </contour>
  </outline>
</glyph>
<glyph name="asciicircum" format="2">
  <advance width="544"/>
  <unicode hex="005E"/>
  <outline>
    <contour>
      <point x="56.6667" y="306.333" type="line"/>
      <point x="235.667" y="671.333" type="line"/>
      <point x="309" y="671.333" type="line"/>
      <point x="488" y="306.333" type="line"/>
      <point x="406" y="306.333" type="line"/>
      <point x="272.333" y="584" type="line"/>
      <point x="138.667" y="306.333" type="line"/>
    </contour>
  </outline>
</glyph>
<glyph name="grave" format="2">
  <advance width="353"/>
  <unicode hex="0060"/>
  <outline>
    <contour>
      <point x="60" y="661" type="curve" smooth="yes"/>
      <point x="60" y="684"/>
      <point x="78.3333" y="701.333"/>
      <point x="102.667" y="701.333" type="curve" smooth="yes"/>
      <point x="120.333" y="701.333"/>
      <point x="136" y="693"/>
      <point x="152.667" y="675" type="curve" smooth="yes"/>
      <point x="293" y="521" type="line"/>
      <point x="242.333" y="521" type="line"/>
      <point x="96.3333" y="612" type="line" smooth="yes"/>
      <point x="71" y="628"/>
      <point x="60" y="642.333"/>
    </contour>
  </outline>
</glyph>
<glyph name="a" format="2">
  <advance width="481"/>
  <unicode hex="0061"/>
  <outline>
    <contour>
      <point x="29" y="94.6145" type="curve" smooth="yes"/>
      <point x="29" y="198.779"/>
      <point x="169.396" y="246.532"/>
      <point x="260.75" y="274.789" type="curve" smooth="yes"/>
      <point x="291" y="284.333" type="line"/>
      <point x="291" y="353.333" type="line" smooth="yes"/>
      <point x="291" y="411"/>
      <point x="266" y="439.667"/>
      <point x="215.139" y="439.667" type="curve" smooth="yes"/>
      <point x="177.333" y="439.667"/>
      <point x="143.667" y="424"/>
      <point x="143.667" y="398.343" type="curve" smooth="yes"/>
      <point x="143.667" y="390.285"/>
      <point x="147.558" y="383.519"/>
      <point x="152.481" y="378.044" type="curve"/>
      <point x="160.198" y="368.55"/>
      <point x="167" y="356.208"/>
      <point x="167" y="340.886" type="curve" smooth="yes"/>
      <point x="167" y="309.667"/>
      <point x="140" y="289.333"/>
      <point x="106.34" y="289.333" type="curve" smooth="yes"/>
      <point x="70.3333" y="289.333"/>
      <point x="48" y="312.667"/>
      <point x="48" y="350.185" type="curve" smooth="yes"/>
      <point x="48" y="423.667"/>
      <point x="132.333" y="469"/>
      <point x="230.58" y="469" type="curve" smooth="yes"/>
      <point x="348.297" y="469"/>
      <point x="410" y="415.667"/>
      <point x="410" y="324.333" type="curve" smooth="yes"/>
      <point x="410" y="82.3333" type="line" smooth="yes"/>
      <point x="410" y="64.3333"/>
      <point x="415.333" y="49"/>
      <point x="435.461" y="49" type="curve" smooth="yes"/>
      <point x="444.501" y="49"/>
      <point x="452.176" y="52.8211"/>
      <point x="460.286" y="60.5424" type="curve"/>
      <point x="472.667" y="42.3333" type="line"/>
      <point x="439.333" y="5.66667"/>
      <point x="409.608" y="-12.3333"/>
      <point x="367.009" y="-12.3333" type="curve" smooth="yes"/>
      <point x="319.827" y="-12.3333"/>
      <point x="299.72" y="10"/>
      <point x="291.333" y="58.6667" type="curve"/>
      <point x="242.333" y="13.6667"/>
      <point x="194.667" y="-12.3333"/>
      <point x="144.067" y="-12.3333" type="curve" smooth="yes"/>
      <point x="75.6667" y="-12.3333"/>
      <point x="29" y="32"/>
    </contour>
    <contour>
      <point x="155.667" y="125.364" type="curve" smooth="yes"/>
      <point x="155.667" y="85.3333"/>
      <point x="177.333" y="54.3333"/>
      <point x="211.797" y="54.3333" type="curve" smooth="yes"/>
      <point x="237.229" y="54.3333"/>
      <point x="265.962" y="71.8955"/>
      <point x="291" y="100" type="curve"/>
      <point x="291" y="253" type="line"/>
      <point x="215.667" y="231.667"/>
      <point x="155.667" y="191.333"/>
    </contour>
  </outline>
</glyph>
<glyph name="b" format="2">
  <advance width="537"/>
  <unicode hex="0062"/>
  <outline>
    <contour>
      <point x="71" y="-12" type="line"/>
      <point x="71" y="601.667" type="line" smooth="yes"/>
      <point x="71" y="637.378"/>
      <point x="57.3712" y="649.451"/>
      <point x="12.3333" y="657" type="curve"/>
      <point x="12.3333" y="678.333" type="line"/>
      <point x="191.667" y="678.333" type="line"/>
      <point x="191.667" y="403" type="line"/>
      <point x="223" y="445.333"/>
      <point x="267" y="468.667"/>
      <point x="319.333" y="468.667" type="curve" smooth="yes"/>
      <point x="426.667" y="468.667"/>
      <point x="503.333" y="373.333"/>
      <point x="503.333" y="241.179" type="curve" smooth="yes"/>
      <point x="503.333" y="93.3333"/>
      <point x="407.333" y="-12.6667"/>
      <point x="275.704" y="-12.6667" type="curve" smooth="yes"/>
      <point x="227.358" y="-12.6667"/>
      <point x="189.871" y="4.7112"/>
      <point x="152.554" y="38.8222" type="curve"/>
      <point x="82.4704" y="-12.1222" type="line"/>
    </contour>
    <contour>
      <point x="191.667" y="88" type="line" smooth="yes"/>
      <point x="191.667" y="47.6667"/>
      <point x="224.667" y="19.3333"/>
      <point x="270.274" y="19.3333" type="curve" smooth="yes"/>
      <point x="340" y="19.3333"/>
      <point x="376" y="84"/>
      <point x="376" y="211.369" type="curve" smooth="yes"/>
      <point x="376" y="341"/>
      <point x="338.667" y="411.667"/>
      <point x="270.123" y="411.667" type="curve" smooth="yes"/>
      <point x="232" y="411.667"/>
      <point x="203" y="389"/>
      <point x="191.667" y="347.333" type="curve"/>
    </contour>
  </outline>
</glyph>
<glyph name="e" format="2">
  <advance width="444"/>
  <unicode hex="0065"/>
  <outline>
    <contour>
      <point x="25" y="222.769" type="curve" smooth="yes"/>
      <point x="25" y="370.333"/>
      <point x="110.333" y="468.667"/>
      <point x="235.066" y="468.667" type="curve" smooth="yes"/>
      <point x="364.999" y="468.667"/>
      <point x="405.871" y="368.274"/>
      <point x="415.667" y="255.667" type="curve"/>
      <point x="145" y="255.667" type="line"/>
      <point x="147.917" y="173.057"/>
      <point x="170.005" y="58.3333"/>
      <point x="277.496" y="58.3333" type="curve" smooth="yes"/>
      <point x="326.333" y="58.3333"/>
      <point x="361.333" y="80"/>
      <point x="404" y="138" type="curve"/>
      <point x="425.333" y="126.333" type="line"/>
      <point x="368" y="28.3333"/>
      <point x="310.333" y="-12.6667"/>
      <point x="224.667" y="-12.6667" type="curve" smooth="yes"/>
      <point x="103.667" y="-12.6667"/>
      <point x="25" y="80"/>
    </contour>
    <contour>
      <point x="142.333" y="291" type="curve"/>
      <point x="299.667" y="291" type="line"/>
      <point x="299.514" y="306" type="line" smooth="yes"/>
      <point x="298.734" y="362.05"/>
      <point x="285.247" y="436"/>
      <point x="225.931" y="436" type="curve" smooth="yes"/>
      <point x="173.333" y="436"/>
      <point x="149.333" y="397"/>
    </contour>
  </outline>
</glyph>
<glyph name="g" format="2">
  <advance width="500"/>
  <unicode hex="0067"/>
  <outline>
    <contour>
      <point x="27.6667" y="-115.651" type="curve" smooth="yes"/>
      <point x="27.6667" y="-72.1148"/>
      <point x="70" y="-40.3333"/>
      <point x="124.333" y="-25.6667" type="curve"/>
      <point x="70.7392" y="-7.9247"/>
      <point x="52" y="9.66667"/>
      <point x="52" y="44.2258" type="curve" smooth="yes"/>
      <point x="52" y="93.6667"/>
      <point x="100.333" y="136"/>
      <point x="161" y="161" type="curve"/>
      <point x="98.2725" y="188.033"/>
      <point x="47.3333" y="231.354"/>
      <point x="47.3333" y="304.835" type="curve" smooth="yes"/>
      <point x="47.3333" y="402.333"/>
      <point x="128" y="468.667"/>
      <point x="234.363" y="468.667" type="curve" smooth="yes"/>
      <point x="262.903" y="468.667"/>
      <point x="293.566" y="462.574"/>
      <point x="313.037" y="456.259" type="curve" smooth="yes"/>
      <point x="329.164" y="451.19" type="line" smooth="yes"/>
      <point x="348.697" y="444.864"/>
      <point x="371.454" y="443"/>
      <point x="389.605" y="443" type="curve" smooth="yes"/>
      <point x="478" y="443" type="line"/>
      <point x="478" y="394.667" type="line"/>
      <point x="395.959" y="394.667" type="line"/>
      <point x="419.667" y="364.667"/>
      <point x="429" y="337.667"/>
      <point x="429" y="299.74" type="curve" smooth="yes"/>
      <point x="429" y="202.741"/>
      <point x="347.192" y="148.361"/>
      <point x="260" y="148.333" type="curve" smooth="yes"/>
      <point x="242.3" y="148.328"/>
      <point x="216.053" y="150.358"/>
      <point x="198.43" y="153.989" type="curve"/>
      <point x="167.79" y="144.75"/>
      <point x="146.667" y="124.684"/>
      <point x="146.667" y="101.795" type="curve" smooth="yes"/>
      <point x="146.667" y="74.3268"/>
      <point x="180.44" y="70.3653"/>
      <point x="239.333" y="66.6667" type="curve" smooth="yes"/>
      <point x="324.51" y="62" type="line" smooth="yes"/>
      <point x="414.862" y="56.6362"/>
      <point x="475.333" y="21.6667"/>
      <point x="475.333" y="-55.4827" type="curve" smooth="yes"/>
      <point x="475.333" y="-156.891"/>
      <point x="361.878" y="-210"/>
      <point x="223.329" y="-210" type="curve" smooth="yes"/>
      <point x="118.333" y="-210"/>
      <point x="27.6667" y="-180.656"/>
    </contour>
    <contour>
      <point x="109.667" y="-101.878" type="curve" smooth="yes"/>
      <point x="109.667" y="-145.208"/>
      <point x="159.667" y="-170.333"/>
      <point x="253.87" y="-170.333" type="curve" smooth="yes"/>
      <point x="350.585" y="-170.333"/>
      <point x="413.333" y="-144.525"/>
      <point x="413.333" y="-94.2732" type="curve" smooth="yes"/>
      <point x="413.333" y="-60.0929"/>
      <point x="384.549" y="-44.3399"/>
      <point x="317.578" y="-44.3333" type="curve" smooth="yes"/>
      <point x="258.042" y="-44.3257"/>
      <point x="207.183" y="-40.0826"/>
      <point x="153.094" y="-31.9387" type="curve"/>
      <point x="120.428" y="-64.0644"/>
      <point x="109.667" y="-79.1858"/>
    </contour>
    <contour>
      <point x="166.333" y="350.319" type="curve" smooth="yes"/>
      <point x="166.333" y="268.7"/>
      <point x="194.333" y="179.333"/>
      <point x="258.269" y="179.333" type="curve" smooth="yes"/>
      <point x="297.333" y="179.333"/>
      <point x="313.333" y="214.093"/>
      <point x="313.333" y="257.642" type="curve" smooth="yes"/>
      <point x="313.333" y="335.35"/>
      <point x="281.667" y="438.667"/>
      <point x="223.437" y="438.667" type="curve" smooth="yes"/>
      <point x="184" y="438.667"/>
      <point x="166.333" y="395.333"/>
    </contour>
  </outline>
</glyph>
<glyph name="i" format="2">
  <advance width="278"/>
  <unicode hex="0069"/>
  <outline>
    <contour>
      <point x="16" y="0" type="line"/>
      <point x="16" y="21" type="line"/>
      <point x="69.6667" y="29.6667"/>
      <point x="77.6667" y="38.6667"/>
      <point x="77.6667" y="90" type="curve" smooth="yes"/>
      <point x="77.6667" y="381.667" type="line" smooth="yes"/>
      <point x="77.6667" y="419.044"/>
      <point x="62.4793" y="431.904"/>
      <point x="17.3333" y="439.667" type="curve"/>
      <point x="17.3333" y="460.667" type="line"/>
      <point x="198.333" y="460.667" type="line"/>
      <point x="198.333" y="88" type="line" smooth="yes"/>
      <point x="198.333" y="38.6667"/>
      <point x="209" y="26"/>
      <point x="254.333" y="21" type="curve"/>
      <point x="254.333" y="0" type="line"/>
    </contour>
    <contour>
      <point x="66.3333" y="620.333" type="curve" smooth="yes"/>
      <point x="66.3333" y="657"/>
      <point x="97.3333" y="688"/>
      <point x="134.333" y="688" type="curve" smooth="yes"/>
      <point x="172.333" y="688"/>
      <point x="202.667" y="657"/>
      <point x="202.667" y="619.333" type="curve" smooth="yes"/>
      <point x="202.667" y="581"/>
      <point x="172.333" y="551.667"/>
      <point x="133.667" y="551.667" type="curve" smooth="yes"/>
      <point x="95.3333" y="551.667"/>
      <point x="66.3333" y="581"/>
    </contour>
  </outline>
</glyph>
<glyph name="j" format="2">
  <advance width="315"/>
  <unicode hex="006A"/>
  <outline>
    <contour>
      <point x="-48.9948" y="-123" type="curve" smooth="yes"/>
      <point x="-48.9948" y="-91.6611"/>
      <point x="-27.1755" y="-69.3333"/>
      <point x="4.17087" y="-69.3333" type="curve" smooth="yes"/>
      <point x="32.6056" y="-69.3333"/>
      <point x="55.6194" y="-89.7305"/>
      <point x="55.6667" y="-116" type="curve" smooth="yes"/>
      <point x="55.689" y="-134.819"/>
      <point x="49.4061" y="-151.095"/>
      <point x="37.207" y="-163.662" type="curve"/>
      <point x="40.1186" y="-171.636"/>
      <point x="53.1238" y="-178.08"/>
      <point x="67.4486" y="-178.08" type="curve" smooth="yes"/>
      <point x="101.387" y="-178.08"/>
      <point x="117" y="-147.264"/>
      <point x="117" y="-79" type="curve" smooth="yes"/>
      <point x="117" y="381.333" type="line" smooth="yes"/>
      <point x="117" y="420.635"/>
      <point x="99.9386" y="435.225"/>
      <point x="49.3333" y="439.333" type="curve"/>
      <point x="49.3333" y="460.667" type="line"/>
      <point x="237.667" y="460.667" type="line"/>
      <point x="237.667" y="1.33333" type="line" smooth="yes"/>
      <point x="237.667" y="-127.771"/>
      <point x="193.698" y="-208"/>
      <point x="70.879" y="-208" type="curve" smooth="yes"/>
      <point x="2.5419" y="-208"/>
      <point x="-48.9948" y="-171.776"/>
    </contour>
    <contour>
      <point x="102.667" y="620.333" type="curve" smooth="yes"/>
      <point x="102.667" y="657"/>
      <point x="133" y="688"/>
      <point x="170" y="688" type="curve" smooth="yes"/>
      <point x="208" y="688"/>
      <point x="239" y="657"/>
      <point x="239" y="619.333" type="curve" smooth="yes"/>
      <point x="239" y="581.667"/>
      <point x="208" y="551.667"/>
      <point x="170" y="551.667" type="curve" smooth="yes"/>
      <point x="131" y="551.667"/>
      <point x="102.667" y="581"/>
    </contour>
  </outline>
</glyph>
<glyph name="l" format="2">
  <advance width="278"/>
  <unicode hex="006C"/>
  <outline>
    <contour>
      <point x="17.6667" y="0" type="line"/>
      <point x="17.6667" y="21" type="line"/>
      <point x="61.3333" y="24.6667"/>
      <point x="77.3333" y="44.3333"/>
      <point x="77.3333" y="85" type="curve" smooth="yes"/>
      <point x="77.3333" y="598.667" type="line" smooth="yes"/>
      <point x="77.3333" y="636.533"/>
      <point x="57.3157" y="654"/>
      <point x="17" y="657" type="curve"/>
      <point x="17" y="678.333" type="line"/>
      <point x="198" y="678.333" type="line"/>
      <point x="198" y="84" type="line" smooth="yes"/>
      <point x="198" y="43"/>
      <point x="212.667" y="25"/>
      <point x="255.667" y="21" type="curve"/>
      <point x="255.667" y="0" type="line"/>
    </contour>
  </outline>
</glyph>
<glyph name="m" format="2">
  <advance width="815"/>
  <unicode hex="006D"/>
  <outline>
    <contour>
      <point x="17" y="0" type="line"/>
      <point x="17" y="21" type="line"/>
      <point x="63.6667" y="28.3333"/>
      <point x="75" y="39.3333"/>
      <point x="75" y="85.3333" type="curve" smooth="yes"/>
      <point x="75" y="379.667" type="line" smooth="yes"/>
      <point x="75" y="417.82"/>
      <point x="58.5545" y="434.098"/>
      <point x="16" y="439" type="curve"/>
      <point x="16" y="460.667" type="line"/>
      <point x="192.333" y="460.667" type="line"/>
      <point x="192.333" y="385" type="line"/>
      <point x="232.641" y="443.471"/>
      <point x="283" y="468.667"/>
      <point x="343.236" y="468.667" type="curve" smooth="yes"/>
      <point x="402" y="468.667"/>
      <point x="436.667" y="443.667"/>
      <point x="462.667" y="382.667" type="curve"/>
      <point x="515.333" y="444.667"/>
      <point x="557.667" y="468.667"/>
      <point x="613.391" y="468.667" type="curve" smooth="yes"/>
      <point x="695.333" y="468.667"/>
      <point x="743.667" y="412"/>
      <point x="743.667" y="315.333" type="curve" smooth="yes"/>
      <point x="743.667" y="83.3333" type="line" smooth="yes"/>
      <point x="743.667" y="36"/>
      <point x="755" y="24.3333"/>
      <point x="798.333" y="21" type="curve"/>
      <point x="798.333" y="0" type="line"/>
      <point x="569" y="0" type="line"/>
      <point x="569" y="21" type="line"/>
      <point x="611.667" y="25"/>
      <point x="623" y="36.6667"/>
      <point x="623" y="83.3333" type="curve" smooth="yes"/>
      <point x="623" y="314.667" type="line" smooth="yes"/>
      <point x="623" y="381.667"/>
      <point x="607" y="406.667"/>
      <point x="567.219" y="406.667" type="curve" smooth="yes"/>
      <point x="530.677" y="406.667"/>
      <point x="495" y="384"/>
      <point x="469.667" y="347.667" type="curve"/>
      <point x="469.667" y="83.3333" type="line" smooth="yes"/>
      <point x="469.667" y="39.3333"/>
      <point x="481.667" y="25.6667"/>
      <point x="522.333" y="21" type="curve"/>
      <point x="522.333" y="0" type="line"/>
      <point x="295.667" y="0" type="line"/>
      <point x="295.667" y="21" type="line"/>
      <point x="337.667" y="25"/>
      <point x="349" y="37.3333"/>
      <point x="349" y="83.3333" type="curve" smooth="yes"/>
      <point x="349" y="316.333" type="line" smooth="yes"/>
      <point x="349" y="379.667"/>
      <point x="331.667" y="406.667"/>
      <point x="297.398" y="406.667" type="curve" smooth="yes"/>
      <point x="261.136" y="406.667"/>
      <point x="219.716" y="379.944"/>
      <point x="195.667" y="348.333" type="curve"/>
      <point x="195.667" y="83.3333" type="line" smooth="yes"/>
      <point x="195.667" y="39.3333"/>
      <point x="207" y="26.3333"/>
      <point x="247.667" y="21" type="curve"/>
      <point x="247.667" y="0" type="line"/>
    </contour>
  </outline>
</glyph>
<glyph name="n" format="2">
  <advance width="537"/>
  <unicode hex="006E"/>
  <outline>
    <component base="dotlessi" xOffset="-5"/>
    <contour>
      <point x="165.333" y="347.337" type="line"/>
      <point x="195" y="383.667" type="line" smooth="yes"/>
      <point x="243.234" y="443.608"/>
      <point x="283.333" y="468.667"/>
      <point x="337.834" y="468.667" type="curve" smooth="yes"/>
      <point x="418" y="468.667"/>
      <point x="468" y="413.333"/>
      <point x="468" y="324.667" type="curve" smooth="yes"/>
      <point x="468" y="83.3333" type="line" smooth="yes"/>
      <point x="468" y="36.6667"/>
      <point x="478.667" y="25"/>
      <point x="522" y="21" type="curve"/>
      <point x="522" y="0" type="line"/>
      <point x="294.667" y="0" type="line"/>
      <point x="294.667" y="21" type="line"/>
      <point x="334.667" y="25.6667"/>
      <point x="347.333" y="40"/>
      <point x="347.333" y="83.3333" type="curve" smooth="yes"/>
      <point x="347.333" y="318" type="line" smooth="yes"/>
      <point x="347.333" y="377.333"/>
      <point x="328" y="405.667"/>
      <point x="286.878" y="405.667" type="curve" smooth="yes"/>
      <point x="254.218" y="405.667"/>
      <point x="223.289" y="383.272"/>
      <point x="196.667" y="348" type="curve" smooth="yes"/>
      <point x="165.424" y="305.64" type="line"/>
    </contour>
  </outline>
</glyph>
<glyph name="q" format="2">
  <advance width="537"/>
  <unicode hex="0071"/>
  <outline>
    <contour>
      <point x="30.6667" y="213.356" type="curve" smooth="yes"/>
      <point x="30.6667" y="358.333"/>
      <point x="121.009" y="468.667"/>
      <point x="254.212" y="468.667" type="curve" smooth="yes"/>
      <point x="302.201" y="468.667"/>
      <point x="331.273" y="455.333"/>
      <point x="378.667" y="419" type="curve"/>
      <point x="451" y="468" type="line"/>
      <point x="462.333" y="468" type="line"/>
      <point x="462.333" y="-129" type="line" smooth="yes"/>
      <point x="462.333" y="-171.667"/>
      <point x="475" y="-179.333"/>
      <point x="520" y="-188.333" type="curve"/>
      <point x="520" y="-209" type="line"/>
      <point x="263.076" y="-209" type="line"/>
      <point x="263.076" y="-186.667" type="line"/>
      <point x="326.247" y="-178"/>
      <point x="341.667" y="-168.333"/>
      <point x="341.667" y="-106" type="curve" smooth="yes"/>
      <point x="341.667" y="48.6667" type="line"/>
      <point x="306.264" y="8.33333"/>
      <point x="254.688" y="-12.6667"/>
      <point x="208.225" y="-12.6667" type="curve" smooth="yes"/>
      <point x="95.0078" y="-12.6667"/>
      <point x="30.6667" y="90.6667"/>
    </contour>
    <contour>
      <point x="156" y="237.667" type="curve" smooth="yes"/>
      <point x="156" y="123"/>
      <point x="187.426" y="43.6667"/>
      <point x="263.248" y="43.6667" type="curve" smooth="yes"/>
      <point x="300.448" y="43.6667"/>
      <point x="327.989" y="64.0591"/>
      <point x="341.667" y="102.578" type="curve"/>
      <point x="341.667" y="351.667" type="line" smooth="yes"/>
      <point x="341.667" y="405"/>
      <point x="314.253" y="438"/>
      <point x="266.791" y="438" type="curve" smooth="yes"/>
      <point x="188.092" y="438"/>
      <point x="156" y="355"/>
    </contour>
  </outline>
</glyph>
<glyph name="r" format="2">
  <advance width="411"/>
  <unicode hex="0072"/>
  <outline>
    <contour>
      <point x="24.6667" y="0" type="line"/>
      <point x="24.6667" y="21" type="line"/>
      <point x="75.3333" y="30.3333"/>
      <point x="84.3333" y="40"/>
      <point x="84.3333" y="84" type="curve" smooth="yes"/>
      <point x="84.3333" y="381.333" type="line" smooth="yes"/>
      <point x="84.3333" y="417.71"/>
      <point x="67.6782" y="433.942"/>
      <point x="25.3333" y="439.333" type="curve"/>
      <point x="25.3333" y="460.667" type="line"/>
      <point x="202.333" y="460.667" type="line"/>
      <point x="202.333" y="374.667" type="line"/>
      <point x="250" y="443"/>
      <point x="285" y="468.667"/>
      <point x="328.822" y="468.667" type="curve" smooth="yes"/>
      <point x="375" y="468.667"/>
      <point x="404.667" y="440"/>
      <point x="404.667" y="399" type="curve" smooth="yes"/>
      <point x="404.667" y="363.667"/>
      <point x="382.333" y="339.333"/>
      <point x="349.196" y="339.333" type="curve" smooth="yes"/>
      <point x="328" y="339.333"/>
      <point x="310.931" y="349.734"/>
      <point x="297.322" y="369.242" type="curve" smooth="yes"/>
      <point x="286.529" y="384.322"/>
      <point x="276.333" y="390.333"/>
      <point x="265.833" y="390.333" type="curve" smooth="yes"/>
      <point x="238" y="390.333"/>
      <point x="205" y="345"/>
      <point x="205" y="299.667" type="curve" smooth="yes"/>
      <point x="205" y="98.6667" type="line" smooth="yes"/>
      <point x="205" y="38.3333"/>
      <point x="218.667" y="24.6667"/>
      <point x="282" y="21" type="curve"/>
      <point x="282" y="0" type="line"/>
    </contour>
  </outline>
</glyph>
<glyph name="s" format="2">
  <advance width="389"/>
  <unicode hex="0073"/>
  <outline>
    <contour>
      <point x="35" y="329.609" type="curve" smooth="yes"/>
      <point x="35" y="410"/>
      <point x="98" y="468.333"/>
      <point x="186.125" y="468.333" type="curve" smooth="yes"/>
      <point x="210.965" y="468.333"/>
      <point x="234.667" y="463.333"/>
      <point x="259.237" y="454.727" type="curve" smooth="yes"/>
      <point x="274.651" y="449.251"/>
      <point x="285.205" y="447.333"/>
      <point x="290.988" y="447.333" type="curve" smooth="yes"/>
      <point x="302" y="447.333"/>
      <point x="307.988" y="452.333"/>
      <point x="313.333" y="464" type="curve"/>
      <point x="331.667" y="464" type="line"/>
      <point x="331.667" y="322" type="line"/>
      <point x="310" y="322" type="line"/>
      <point x="289.598" y="389.025"/>
      <point x="255.733" y="439"/>
      <point x="195.442" y="439" type="curve" smooth="yes"/>
      <point x="151.333" y="439"/>
      <point x="122.333" y="413"/>
      <point x="122.333" y="377.667" type="curve" smooth="yes"/>
      <point x="122.333" y="346"/>
      <point x="146" y="321"/>
      <point x="200.667" y="296.333" type="curve"/>
      <point x="246.27" y="270.792" type="line"/>
      <point x="325.202" y="232.086"/>
      <point x="356.667" y="192.966"/>
      <point x="356.667" y="132.808" type="curve" smooth="yes"/>
      <point x="356.667" y="48"/>
      <point x="293.333" y="-12.6667"/>
      <point x="210.973" y="-12.6667" type="curve" smooth="yes"/>
      <point x="179.739" y="-12.6667"/>
      <point x="135.454" y="-3.51529"/>
      <point x="109.66" y="6.31855" type="curve" smooth="yes"/>
      <point x="97.3754" y="10.6562"/>
      <point x="86.8921" y="12.6667"/>
      <point x="79.5386" y="12.6667" type="curve" smooth="yes"/>
      <point x="70" y="12.6667"/>
      <point x="64.6667" y="7.33333"/>
      <point x="55" y="-10" type="curve"/>
      <point x="34" y="-10" type="line"/>
      <point x="34" y="152" type="line"/>
      <point x="58" y="152" type="line"/>
      <point x="74.5466" y="77.5842"/>
      <point x="111" y="17.3333"/>
      <point x="187.346" y="17.3333" type="curve" smooth="yes"/>
      <point x="238.667" y="17.3333"/>
      <point x="269.333" y="44"/>
      <point x="269.333" y="82.7415" type="curve" smooth="yes"/>
      <point x="269.333" y="116.333"/>
      <point x="245" y="141"/>
      <point x="188" y="167.667" type="curve"/>
      <point x="158.667" y="183.074" type="line"/>
      <point x="70.2807" y="226.499"/>
      <point x="35" y="269.579"/>
    </contour>
  </outline>
</glyph>
<glyph name="z" format="2">
  <advance width="444"/>
  <unicode hex="007A"/>
  <outline>
    <contour>
      <point x="23" y="0" type="line"/>
      <point x="23" y="21.6667" type="line"/>
      <point x="267.667" y="426" type="line"/>
      <point x="257.21" y="426.019"/>
      <point x="223.994" y="426.029"/>
      <point x="214.008" y="426.029" type="curve" smooth="yes"/>
      <point x="107.364" y="426.029"/>
      <point x="85.5336" y="409.228"/>
      <point x="66.3333" y="323.333" type="curve"/>
      <point x="43" y="323.333" type="line"/>
      <point x="48.6667" y="457.333" type="line"/>
      <point x="411.667" y="457.333" type="line"/>
      <point x="411.667" y="435" type="line"/>
      <point x="168" y="31.3333" type="line"/>
      <point x="233.333" y="31.3333" type="line" smooth="yes"/>
      <point x="303.667" y="31.3333"/>
      <point x="337" y="43"/>
      <point x="363" y="78" type="curve" smooth="yes"/>
      <point x="378" y="97.6667"/>
      <point x="385.333" y="115"/>
      <point x="394.667" y="153" type="curve"/>
      <point x="419.333" y="151.667" type="line"/>
      <point x="404" y="0" type="line"/>
    </contour>
  </outline>
</glyph>
<glyph name="braceleft" format="2">
  <advance width="423"/>
  <unicode hex="007B"/>
  <outline>
    <contour>
      <point x="48" y="257.333" type="curve"/>
      <point x="127" y="278"/>
      <point x="147.667" y="301.667"/>
      <point x="147.667" y="372.333" type="curve" smooth="yes"/>
      <point x="147.667" y="551" type="line" smooth="yes"/>
      <point x="147.667" y="606.667"/>
      <point x="163.333" y="644.333"/>
      <point x="195.667" y="664.333" type="curve" smooth="yes"/>
      <point x="226.667" y="684.333"/>
      <point x="262" y="691"/>
      <point x="343.333" y="692" type="curve"/>
      <point x="343.333" y="680.333" type="line"/>
      <point x="267" y="663"/>
      <point x="242.333" y="632.333"/>
      <point x="242.333" y="556.667" type="curve" smooth="yes"/>
      <point x="242.333" y="386.667" type="line" smooth="yes"/>
      <point x="242.333" y="303"/>
      <point x="220" y="277"/>
      <point x="132.333" y="257" type="curve"/>
      <point x="220" y="237.333"/>
      <point x="242.333" y="211.333"/>
      <point x="242.333" y="127.667" type="curve" smooth="yes"/>
      <point x="242.333" y="-42.3333" type="line" smooth="yes"/>
      <point x="242.333" y="-118"/>
      <point x="267.667" y="-148.667"/>
      <point x="343.333" y="-165.333" type="curve"/>
      <point x="343.333" y="-177" type="line"/>
      <point x="256" y="-176"/>
      <point x="217.667" y="-167.333"/>
      <point x="188.333" y="-144" type="curve" smooth="yes"/>
      <point x="161" y="-123.333"/>
      <point x="147.667" y="-87.6667"/>
      <point x="147.667" y="-36.3333" type="curve" smooth="yes"/>
      <point x="147.667" y="142" type="line" smooth="yes"/>
      <point x="147.667" y="212.333"/>
      <point x="127" y="236.333"/>
    </contour>
  </outline>
</glyph>
<glyph name="bar" format="2">
  <advance width="213"/>
  <unicode hex="007C"/>
  <outline>
    <contour>
      <point x="66.3333" y="-17.3333" type="line"/>
      <point x="66.3333" y="686" type="line"/>
      <point x="147" y="686" type="line"/>
      <point x="147" y="-17.3333" type="line"/>
    </contour>
  </outline>
</glyph>
<glyph name="braceright" format="2">
  <advance width="423"/>
  <unicode hex="007D"/>
  <outline>
    <contour>
      <point x="79.3333" y="-165.333" type="line"/>
      <point x="155.667" y="-148"/>
      <point x="180.333" y="-117.333"/>
      <point x="180.333" y="-41.6667" type="curve" smooth="yes"/>
      <point x="180.333" y="128.333" type="line" smooth="yes"/>
      <point x="180.333" y="211.333"/>
      <point x="203.333" y="238"/>
      <point x="290.333" y="258" type="curve"/>
      <point x="202.667" y="277.667"/>
      <point x="180.333" y="303.333"/>
      <point x="180.333" y="387.333" type="curve" smooth="yes"/>
      <point x="180.333" y="557.333" type="line" smooth="yes"/>
      <point x="180.333" y="632.333"/>
      <point x="155" y="663.667"/>
      <point x="79.3333" y="680.333" type="curve"/>
      <point x="79.3333" y="692" type="line"/>
      <point x="161.667" y="691"/>
      <point x="196.333" y="684.333"/>
      <point x="227" y="664.333" type="curve" smooth="yes"/>
      <point x="259" y="644.333"/>
      <point x="275" y="606.667"/>
      <point x="275" y="551.333" type="curve" smooth="yes"/>
      <point x="275" y="373" type="line" smooth="yes"/>
      <point x="275" y="302.333"/>
      <point x="295.667" y="278.667"/>
      <point x="374.667" y="258" type="curve"/>
      <point x="295.667" y="237"/>
      <point x="275" y="213.333"/>
      <point x="275" y="142.667" type="curve" smooth="yes"/>
      <point x="275" y="-36" type="line" smooth="yes"/>
      <point x="275" y="-91.6667"/>
      <point x="259.333" y="-129.333"/>
      <point x="227" y="-149.333" type="curve" smooth="yes"/>
      <point x="196" y="-169.333"/>
      <point x="160.667" y="-176"/>
      <point x="79.3333" y="-177" type="curve"/>
    </contour>
  </outline>
</glyph>
<glyph name="cent" format="2">
  <advance width="500"/>
  <unicode hex="00A2"/>
  <outline>
    <contour>
      <point x="53" y="221.667" type="curve" smooth="yes"/>
      <point x="53" y="362"/>
      <point x="151" y="468.667"/>
      <point x="281" y="468.667" type="curve" smooth="yes"/>
      <point x="299.667" y="468.667"/>
      <point x="314" y="467"/>
      <point x="338" y="461.667" type="curve"/>
      <point x="382" y="585" type="line"/>
      <point x="420.333" y="585" type="line"/>
      <point x="372.667" y="449.333" type="line"/>
      <point x="418" y="427"/>
      <point x="439.667" y="399"/>
      <point x="439.667" y="362.667" type="curve" smooth="yes"/>
      <point x="439.667" y="328.667"/>
      <point x="415.667" y="305"/>
      <point x="381.333" y="305" type="curve" smooth="yes"/>
      <point x="361" y="305"/>
      <point x="346.667" y="313.333"/>
      <point x="332.667" y="335.667" type="curve"/>
      <point x="244.333" y="85.3333" type="line"/>
      <point x="270.333" y="64.3333"/>
      <point x="290" y="56.6667"/>
      <point x="319.333" y="56.6667" type="curve" smooth="yes"/>
      <point x="367.667" y="56.6667"/>
      <point x="398.333" y="75"/>
      <point x="438.333" y="127.333" type="curve"/>
      <point x="454.667" y="112.667" type="line"/>
      <point x="406.791" y="42.824"/>
      <point x="355.689" y="-12.3333"/>
      <point x="263.667" y="-12.3333" type="curve" smooth="yes"/>
      <point x="245.333" y="-12.3333"/>
      <point x="232.333" y="-10.3333"/>
      <point x="211.667" y="-4.66667" type="curve"/>
      <point x="164" y="-139.333" type="line"/>
      <point x="126" y="-139.333" type="line"/>
      <point x="177" y="7.33333" type="line"/>
      <point x="92.4396" y="50.4822"/>
      <point x="53" y="125.759"/>
    </contour>
    <contour>
      <point x="172.667" y="269.333" type="curve" smooth="yes"/>
      <point x="172.667" y="206.667"/>
      <point x="185" y="163.667"/>
      <point x="216" y="118" type="curve"/>
      <point x="318.333" y="405" type="line"/>
      <point x="312.333" y="423.333"/>
      <point x="296.333" y="438"/>
      <point x="274" y="438" type="curve" smooth="yes"/>
      <point x="212.667" y="438"/>
      <point x="172.667" y="371.333"/>
    </contour>
  </outline>
</glyph>
<glyph name="currency" format="2">
  <advance width="500"/>
  <unicode hex="00A4"/>
  <outline>
    <contour>
      <point x="-24.6667" y="115.333" type="line"/>
      <point x="73.3333" y="212.667" type="line"/>
      <point x="46.3333" y="252"/>
      <point x="35" y="287.667"/>
      <point x="35" y="334.667" type="curve" smooth="yes"/>
      <point x="35" y="381.333"/>
      <point x="46.3333" y="418.667"/>
      <point x="73.3333" y="458" type="curve"/>
      <point x="-24.6667" y="556" type="line"/>
      <point x="30.6667" y="609.333" type="line"/>
      <point x="126.667" y="513.333" type="line"/>
      <point x="168.333" y="539.667"/>
      <point x="203.333" y="549.667"/>
      <point x="250.333" y="549.667" type="curve" smooth="yes"/>
      <point x="297" y="549.667"/>
      <point x="333.667" y="539"/>
      <point x="373.333" y="513.333" type="curve"/>
      <point x="470" y="609.333" type="line"/>
      <point x="524.667" y="556" type="line"/>
      <point x="427.333" y="458" type="line"/>
      <point x="455" y="415"/>
      <point x="465" y="382"/>
      <point x="465" y="335" type="curve" smooth="yes"/>
      <point x="465" y="287.667"/>
      <point x="454.333" y="251.667"/>
      <point x="427.333" y="212.667" type="curve"/>
      <point x="524.667" y="115.333" type="line"/>
      <point x="470" y="60" type="line"/>
      <point x="373.333" y="158" type="line"/>
      <point x="333" y="131.333"/>
      <point x="295.333" y="119.667"/>
      <point x="250.333" y="119.667" type="curve" smooth="yes"/>
      <point x="205.667" y="119.667"/>
      <point x="168" y="131.333"/>
      <point x="126.667" y="158" type="curve"/>
      <point x="30.6667" y="60" type="line"/>
    </contour>
    <contour>
      <point x="116.333" y="334.667" type="curve" smooth="yes"/>
      <point x="116.333" y="257.667"/>
      <point x="175.667" y="195.667"/>
      <point x="250.333" y="195.667" type="curve" smooth="yes"/>
      <point x="323.333" y="195.667"/>
      <point x="383.667" y="258"/>
      <point x="383.667" y="333.667" type="curve" smooth="yes"/>
      <point x="383.667" y="411"/>
      <point x="324.667" y="473.667"/>
      <point x="251" y="473.667" type="curve" smooth="yes"/>
      <point x="175.667" y="473.667"/>
      <point x="116.333" y="412.667"/>
    </contour>
  </outline>
</glyph>
<glyph name="plusminus" format="2">
  <advance width="568"/>
  <unicode hex="00B1"/>
  <outline>
    <contour>
      <point x="32" y="0" type="line"/>
      <point x="32" y="80.6667" type="line"/>
      <point x="536" y="80.6667" type="line"/>
      <point x="536" y="0" type="line"/>
    </contour>
    <contour>
      <point x="32" y="274.667" type="line"/>
      <point x="32" y="355.333" type="line"/>
      <point x="243.667" y="355.333" type="line"/>
      <point x="243.667" y="568" type="line"/>
      <point x="324.333" y="568" type="line"/>
      <point x="324.333" y="355.333" type="line"/>
      <point x="536" y="355.333" type="line"/>
      <point x="536" y="274.667" type="line"/>
      <point x="324.333" y="274.667" type="line"/>
      <point x="324.333" y="126" type="line"/>
      <point x="243.667" y="126" type="line"/>
      <point x="243.667" y="274.667" type="line"/>
    </contour>
  </outline>
</glyph>
<glyph name="acute" format="2">
  <advance width="373"/>
  <unicode hex="00B4"/>
  <outline>
    <contour>
      <point x="70" y="521" type="line"/>
      <point x="210.333" y="675" type="line" smooth="yes"/>
      <point x="227.667" y="693.667"/>
      <point x="242" y="701.333"/>
      <point x="259.667" y="701.333" type="curve" smooth="yes"/>
      <point x="286.333" y="701.333"/>
      <point x="303.333" y="685.333"/>
      <point x="303.333" y="661.333" type="curve" smooth="yes"/>
      <point x="303.333" y="640.667"/>
      <point x="295" y="629.667"/>
      <point x="266.667" y="612" type="curve" smooth="yes"/>
      <point x="120.667" y="521" type="line"/>
    </contour>
  </outline>
</glyph>
<glyph name="mu" format="2">
  <advance width="537"/>
  <unicode hex="00B5"/>
  <outline>
    <contour>
      <point x="34" y="-135.333" type="curve" smooth="yes"/>
      <point x="34" y="-119.667"/>
      <point x="37.6667" y="-95"/>
      <point x="45.3333" y="-62.3333" type="curve" smooth="yes"/>
      <point x="59.3333" y="-2.33333"/>
      <point x="64" y="34"/>
      <point x="64" y="76.6667" type="curve" smooth="yes"/>
      <point x="64" y="457.333" type="line"/>
      <point x="186" y="457.333" type="line"/>
      <point x="186" y="147.333" type="line" smooth="yes"/>
      <point x="186" y="99"/>
      <point x="212" y="67.3333"/>
      <point x="252" y="67.3333" type="curve" smooth="yes"/>
      <point x="281.333" y="67.3333"/>
      <point x="311.333" y="81"/>
      <point x="338" y="106.333" type="curve"/>
      <point x="338" y="457.333" type="line"/>
      <point x="460" y="457.333" type="line"/>
      <point x="460" y="98" type="line" smooth="yes"/>
      <point x="460" y="65.3333"/>
      <point x="475.333" y="45"/>
      <point x="497.333" y="45" type="curve" smooth="yes"/>
      <point x="507" y="45"/>
      <point x="514.333" y="48"/>
      <point x="528" y="58.3333" type="curve"/>
      <point x="528" y="39.6667" type="line"/>
      <point x="487.667" y="-0.666667"/>
      <point x="466.667" y="-12"/>
      <point x="426" y="-12" type="curve" smooth="yes"/>
      <point x="378" y="-12"/>
      <point x="349.667" y="8"/>
      <point x="334.333" y="52.6667" type="curve"/>
      <point x="300.333" y="6.66667"/>
      <point x="268.333" y="-12"/>
      <point x="222.667" y="-12" type="curve" smooth="yes"/>
      <point x="179" y="-12"/>
      <point x="147" y="2.33333"/>
      <point x="115.667" y="36" type="curve"/>
      <point x="119.667" y="1.66667"/>
      <point x="121.667" y="-6.33333"/>
      <point x="134" y="-50.3333" type="curve" smooth="yes"/>
      <point x="145.667" y="-90.3333"/>
      <point x="150" y="-113"/>
      <point x="150" y="-133.667" type="curve" smooth="yes"/>
      <point x="150" y="-183.333"/>
      <point x="129.667" y="-210"/>
      <point x="92.6667" y="-210" type="curve" smooth="yes"/>
      <point x="55.6667" y="-210"/>
      <point x="34" y="-182.667"/>
    </contour>
  </outline>
</glyph>
<glyph name="AE" format="2">
  <advance width="963"/>
  <unicode hex="00C6"/>
  <outline>
    <contour>
      <point x="2.33333" y="0" type="line"/>
      <point x="2.33333" y="23" type="line"/>
      <point x="45.6667" y="30"/>
      <point x="55.8575" y="43.3737"/>
      <point x="105" y="134.333" type="curve" smooth="yes"/>
      <point x="330.175" y="557.591" type="line" smooth="yes"/>
      <point x="346.173" y="587.438"/>
      <point x="355" y="605.841"/>
      <point x="355" y="613.667" type="curve" smooth="yes"/>
      <point x="355" y="641.333"/>
      <point x="318.667" y="647.333"/>
      <point x="267" y="650" type="curve"/>
      <point x="267" y="671.333" type="line"/>
      <point x="877.667" y="671.333" type="line"/>
      <point x="877.667" y="490.333" type="line"/>
      <point x="853.333" y="490.333" type="line"/>
      <point x="830.981" y="614.99"/>
      <point x="786.092" y="635.995"/>
      <point x="663.795" y="635.999" type="curve" smooth="yes"/>
      <point x="601" y="636" type="line" smooth="yes"/>
      <point x="573.667" y="636.001"/>
      <point x="560" y="628.667"/>
      <point x="560" y="606" type="curve" smooth="yes"/>
      <point x="560" y="363.784" type="line"/>
      <point x="603.667" y="364" type="line"/>
      <point x="704.25" y="366.344"/>
      <point x="723.333" y="379.667"/>
      <point x="744.333" y="495.667" type="curve"/>
      <point x="766.667" y="495.667" type="line"/>
      <point x="766.667" y="192.333" type="line"/>
      <point x="744.333" y="192.333" type="line"/>
      <point x="730" y="297.35"/>
      <point x="712.806" y="328.907"/>
      <point x="615" y="329.333" type="curve"/>
      <point x="560" y="329.373" type="line"/>
      <point x="560" y="89" type="line" smooth="yes"/>
      <point x="560" y="43.6667"/>
      <point x="569.333" y="35.3288"/>
      <point x="609" y="35.3333" type="curve" smooth="yes"/>
      <point x="667.436" y="35.3379" type="line" smooth="yes"/>
      <point x="781.255" y="35.3509"/>
      <point x="860.026" y="84.6807"/>
      <point x="898.333" y="196.667" type="curve"/>
      <point x="921.667" y="196.667" type="line"/>
      <point x="879.333" y="0" type="line"/>
      <point x="332" y="0" type="line"/>
      <point x="332" y="23" type="line"/>
      <point x="404" y="28.3333"/>
      <point x="420.333" y="40"/>
      <point x="420.333" y="115.333" type="curve" smooth="yes"/>
      <point x="420.333" y="288.667" type="line"/>
      <point x="235" y="288.667" type="line"/>
      <point x="144.934" y="116.542" type="line" smooth="yes"/>
      <point x="132.877" y="93.7627"/>
      <point x="127.667" y="76.2974"/>
      <point x="127.667" y="63.6667" type="curve" smooth="yes"/>
      <point x="127.667" y="33.4129"/>
      <point x="174.913" y="23.5834"/>
      <point x="206" y="23" type="curve"/>
      <point x="206" y="0" type="line"/>
    </contour>
    <contour>
      <point x="255.333" y="328" type="line"/>
      <point x="420.333" y="328" type="line"/>
      <point x="420.333" y="629.193" type="line"/>
      <point x="417" y="629.333" type="line"/>
    </contour>
  </outline>
</glyph>
<glyph name="ae" format="2">
  <advance width="704"/>
  <unicode hex="00E6"/>
  <outline>
    <contour>
      <point x="34.6667" y="89.7768" type="curve" smooth="yes"/>
      <point x="34.6667" y="199.999"/>
      <point x="170.587" y="244.06"/>
      <point x="265.594" y="272.732" type="curve"/>
      <point x="289.333" y="299.909" type="line"/>
      <point x="289.333" y="325.199"/>
      <point x="288.333" y="373.13"/>
      <point x="268.333" y="385" type="curve"/>
      <point x="257.667" y="423.667"/>
      <point x="231" y="434.685"/>
      <point x="196.331" y="423.557" type="curve"/>
      <point x="168.333" y="420.302"/>
      <point x="151.36" y="407.96"/>
      <point x="152.387" y="392.284" type="curve"/>
      <point x="153.413" y="385.275"/>
      <point x="156.44" y="379.599"/>
      <point x="161.926" y="370.022" type="curve"/>
      <point x="171.107" y="351.194"/>
      <point x="167.298" y="341"/>
      <point x="158.778" y="330.209" type="curve"/>
      <point x="147.298" y="304.333"/>
      <point x="127.298" y="297.946"/>
      <point x="100.632" y="307.407" type="curve"/>
      <point x="72.6318" y="331.672"/>
      <point x="85.3333" y="359"/>
      <point x="108.485" y="386.522" type="curve"/>
      <point x="122.667" y="433"/>
      <point x="184.667" y="464.333"/>
      <point x="271.47" y="453.043" type="curve"/>
      <point x="324.333" y="464"/>
      <point x="360" y="458.378"/>
      <point x="400.919" y="434.333" type="curve"/>
      <point x="465.333" y="457.667"/>
      <point x="502" y="440.148"/>
      <point x="540.756" y="407.333" type="curve"/>
      <point x="614.986" y="407.333"/>
      <point x="592.435" y="337.33"/>
      <point x="576.667" y="257.333" type="curve"/>
      <point x="407.333" y="245.333" type="line"/>
      <point x="407.333" y="210.925"/>
      <point x="408.333" y="172.607"/>
      <point x="450" y="169" type="curve"/>
      <point x="470" y="92.3333"/>
      <point x="509" y="76.3333"/>
      <point x="572.667" y="92" type="curve"/>
      <point x="606.007" y="91.7191"/>
      <point x="631.816" y="103.355"/>
      <point x="658.667" y="135" type="curve"/>
      <point x="672.667" y="124.667" type="line"/>
      <point x="622" y="37.3333"/>
      <point x="564.333" y="-9.66667"/>
      <point x="469.658" y="-9.66667" type="curve" smooth="yes"/>
      <point x="401.333" y="-9.66667"/>
      <point x="363" y="12.3333"/>
      <point x="326.667" y="70.6667" type="curve"/>
      <point x="273.667" y="20.3333"/>
      <point x="216.333" y="-13"/>
      <point x="150.935" y="-13" type="curve" smooth="yes"/>
      <point x="80" y="-13"/>
      <point x="34.6667" y="26.3333"/>
    </contour>
    <contour>
      <point x="159.667" y="123" type="curve" smooth="yes"/>
      <point x="159.667" y="75.3333"/>
      <point x="182.333" y="45.3333"/>
      <point x="218.403" y="45.3333" type="curve" smooth="yes"/>
      <point x="251" y="45.3333"/>
      <point x="282.773" y="70.6418"/>
      <point x="307.667" y="96.5815" type="curve"/>
      <point x="291.903" y="150.627"/>
      <point x="288.333" y="187.848"/>
      <point x="288.333" y="249.667" type="curve"/>
      <point x="206" y="220"/>
      <point x="159.667" y="188.667"/>
    </contour>
    <contour>
      <point x="408.333" y="292" type="curve"/>
      <point x="551.667" y="292" type="line"/>
      <point x="551.656" y="321.257" type="line" smooth="yes"/>
      <point x="551.621" y="406.902"/>
      <point x="531.073" y="437"/>
      <point x="482.764" y="437" type="curve" smooth="yes"/>
      <point x="429.667" y="437"/>
      <point x="409.333" y="399.763"/>
    </contour>
  </outline>
</glyph>
<glyph name="oslash" format="2">
  <advance width="500"/>
  <unicode hex="00F8"/>
  <outline>
    <contour>
      <point x="26.3333" y="228.667" type="curve" smooth="yes"/>
      <point x="26.3333" y="364"/>
      <point x="119.333" y="468.667"/>
      <point x="249.667" y="468.667" type="curve" smooth="yes"/>
      <point x="286" y="468.667"/>
      <point x="317" y="462.333"/>
      <point x="350.333" y="446" type="curve"/>
      <point x="409.333" y="549.667" type="line"/>
      <point x="453" y="549.667" type="line"/>
      <point x="382.667" y="426" type="line"/>
      <point x="446.333" y="375"/>
      <point x="474" y="309.667"/>
      <point x="474" y="228.667" type="curve" smooth="yes"/>
      <point x="474" y="93.6667"/>
      <point x="379.333" y="-12.6667"/>
      <point x="250" y="-12.6667" type="curve" smooth="yes"/>
      <point x="212.667" y="-12.6667"/>
      <point x="181" y="-5"/>
      <point x="147.333" y="12.3333" type="curve"/>
      <point x="83.6667" y="-98.6667" type="line"/>
      <point x="40" y="-98.6667" type="line"/>
      <point x="115" y="33.3333" type="line"/>
      <point x="53.3333" y="85.6667"/>
      <point x="26.3333" y="150.333"/>
    </contour>
    <contour>
      <point x="154.333" y="232" type="curve" smooth="yes"/>
      <point x="154.333" y="190.333"/>
      <point x="158.333" y="156.333"/>
      <point x="168" y="124" type="curve"/>
      <point x="316.333" y="386.667" type="line"/>
      <point x="298.667" y="424"/>
      <point x="279.333" y="438.667"/>
      <point x="247" y="438.667" type="curve" smooth="yes"/>
      <point x="182" y="438.667"/>
      <point x="154.333" y="383.333"/>
    </contour>
    <contour>
      <point x="181.667" y="73.3333" type="line"/>
      <point x="198.667" y="33.3333"/>
      <point x="219.667" y="17.3333"/>
      <point x="254.333" y="17.3333" type="curve" smooth="yes"/>
      <point x="318" y="17.3333"/>
      <point x="346" y="75.6667"/>
      <point x="346" y="213.667" type="curve" smooth="yes"/>
      <point x="346" y="253.667"/>
      <point x="341.667" y="288.333"/>
      <point x="331.333" y="338" type="curve"/>
    </contour>
  </outline>
</glyph>
<glyph name="Hbar" format="2">
  <advance width="757"/>
  <unicode hex="0126"/>
  <outline>
    <contour>
      <point x="17" y="0" type="line"/>
      <point x="17" y="23" type="line"/>
      <point x="77.6667" y="28.3333"/>
      <point x="103" y="38.6667"/>
      <point x="103" y="104" type="curve" smooth="yes"/>
      <point x="103" y="454" type="line"/>
      <point x="57.6667" y="454" type="line"/>
      <point x="57.6667" y="500" type="line"/>
      <point x="103" y="500" type="line"/>
      <point x="103" y="571" type="line" smooth="yes"/>
      <point x="103" y="636"/>
      <point x="74.6667" y="643"/>
      <point x="17" y="648.333" type="curve"/>
      <point x="17" y="671.333" type="line"/>
      <point x="334.333" y="671.333" type="line"/>
      <point x="334.333" y="648.333" type="line"/>
      <point x="274" y="644.333"/>
      <point x="244.333" y="631.333"/>
      <point x="244.333" y="573.333" type="curve" smooth="yes"/>
      <point x="244.333" y="559.53"/>
      <point x="245" y="518.635"/>
      <point x="245" y="500" type="curve"/>
      <point x="506.667" y="500" type="line"/>
      <point x="506.667" y="571" type="line" smooth="yes"/>
      <point x="506.667" y="637.333"/>
      <point x="475.667" y="644.333"/>
      <point x="417.333" y="648.333" type="curve"/>
      <point x="417.333" y="671.333" type="line"/>
      <point x="736.667" y="671.333" type="line"/>
      <point x="736.667" y="648.333" type="line"/>
      <point x="677" y="644.333"/>
      <point x="648" y="630.667"/>
      <point x="648" y="573.333" type="curve" smooth="yes"/>
      <point x="648" y="559.53"/>
      <point x="648.667" y="518.635"/>
      <point x="648.667" y="500" type="curve"/>
      <point x="693.667" y="500" type="line"/>
      <point x="693.667" y="454" type="line"/>
      <point x="648.667" y="454" type="line"/>
      <point x="648.667" y="100.333" type="line" smooth="yes"/>
      <point x="648.667" y="35.6667"/>
      <point x="679.333" y="28.3333"/>
      <point x="736.667" y="23" type="curve"/>
      <point x="736.667" y="0" type="line"/>
      <point x="417.333" y="0" type="line"/>
      <point x="417.333" y="23" type="line"/>
      <point x="478" y="28.3333"/>
      <point x="506.667" y="37.3333"/>
      <point x="506.667" y="104" type="curve" smooth="yes"/>
      <point x="506.667" y="322.333" type="line"/>
      <point x="245" y="322.333" type="line"/>
      <point x="245" y="100.333" type="line" smooth="yes"/>
      <point x="245" y="35"/>
      <point x="277" y="28.3333"/>
      <point x="334.333" y="23" type="curve"/>
      <point x="334.333" y="0" type="line"/>
    </contour>
    <contour>
      <point x="245" y="368.333" type="line"/>
      <point x="506.667" y="368.333" type="line"/>
      <point x="506.667" y="454" type="line"/>
      <point x="245" y="454" type="line"/>
    </contour>
  </outline>
</glyph>
<glyph name="Lslash" format="2">
  <advance width="648"/>
  <unicode hex="0141"/>
  <outline>
    <component base="L" xOffset="2"/>
    <contour>
      <point x="75.7595" y="265.427" type="line"/>
      <point x="75.7595" y="322.427" type="line"/>
      <point x="198.146" y="394.154" type="line"/>
      <point x="198.146" y="337.29" type="line"/>
    </contour>
    <contour>
      <point x="168.667" y="320.828" type="line"/>
      <point x="168.667" y="377.929" type="line"/>
      <point x="299" y="457.145" type="line"/>
      <point x="299" y="400.145" type="line"/>
    </contour>
  </outline>
</glyph>
<glyph name="lslash" format="2">
  <advance width="278"/>
  <unicode hex="0142"/>
  <outline>
    <component base="l"/>
    <contour>
      <point x="177.565" y="376.694" type="line"/>
      <point x="177.565" y="424.181" type="line"/>
      <point x="288.333" y="510.667" type="line"/>
      <point x="288.333" y="462.667" type="line"/>
    </contour>
    <contour>
      <point x="-8" y="247.333" type="line"/>
      <point x="-8" y="295.333" type="line"/>
      <point x="98.2007" y="377.247" type="line"/>
      <point x="98.2007" y="329.315" type="line"/>
    </contour>
  </outline>
</glyph>
<glyph name="Eng" format="2">
  <advance width="722"/>
  <unicode hex="014A"/>
  <outline>
    <contour>
      <point x="14.6667" y="0" type="line"/>
      <point x="14.6667" y="23" type="line"/>
      <point x="91" y="31"/>
      <point x="105.667" y="46.6667"/>
      <point x="105.667" y="119" type="curve" smooth="yes"/>
      <point x="105.667" y="582" type="line"/>
      <point x="60.3333" y="635.667"/>
      <point x="44.3333" y="648.333"/>
      <point x="16.6667" y="648.333" type="curve"/>
      <point x="16.6667" y="671.333" type="line"/>
      <point x="214.357" y="671.333" type="line"/>
      <point x="575.333" y="224" type="line"/>
      <point x="575.333" y="539.667" type="line" smooth="yes"/>
      <point x="575.333" y="617.365"/>
      <point x="560.845" y="641.31"/>
      <point x="481.59" y="648.333" type="curve"/>
      <point x="481.59" y="671.333" type="line"/>
      <point x="703" y="671.333" type="line"/>
      <point x="703" y="648.333" type="line"/>
      <point x="630.707" y="638.618"/>
      <point x="619.333" y="620.097"/>
      <point x="619.333" y="552.333" type="curve" smooth="yes"/>
      <point x="619.333" y="-54.6667" type="line" smooth="yes"/>
      <point x="619.333" y="-149.333"/>
      <point x="583.977" y="-224"/>
      <point x="490.525" y="-224" type="curve" smooth="yes"/>
      <point x="409.329" y="-224"/>
      <point x="373.687" y="-169.356"/>
      <point x="373.687" y="-120.961" type="curve" smooth="yes"/>
      <point x="373.687" y="-82.294"/>
      <point x="400.528" y="-54.9512"/>
      <point x="435.547" y="-54.9512" type="curve" smooth="yes"/>
      <point x="472.047" y="-54.9512"/>
      <point x="492.427" y="-81.5948"/>
      <point x="492.427" y="-107.774" type="curve" smooth="yes"/>
      <point x="492.427" y="-142.336"/>
      <point x="471.162" y="-150.385"/>
      <point x="470.918" y="-169.94" type="curve"/>
      <point x="471.153" y="-183.838"/>
      <point x="484.634" y="-194.176"/>
      <point x="504.628" y="-194.176" type="curve" smooth="yes"/>
      <point x="550.002" y="-194.176"/>
      <point x="577.333" y="-129.149"/>
      <point x="577.333" y="-79" type="curve" smooth="yes"/>
      <point x="577.333" y="7.33333" type="line"/>
      <point x="149.667" y="530.333" type="line"/>
      <point x="149.667" y="131.667" type="line" smooth="yes"/>
      <point x="149.667" y="50.6667"/>
      <point x="167.347" y="30.3333"/>
      <point x="244.409" y="23" type="curve"/>
      <point x="244.409" y="0" type="line"/>
    </contour>
  </outline>
</glyph>
<glyph name="uni019F" format="2">
  <advance width="759"/>
  <unicode hex="019F"/>
  <outline>
    <contour>
      <point x="34.6667" y="333.333" type="curve" smooth="yes"/>
      <point x="34.6667" y="536.667"/>
      <point x="176.667" y="686"/>
      <point x="382.333" y="686" type="curve" smooth="yes"/>
      <point x="582.667" y="686"/>
      <point x="724.667" y="534.667"/>
      <point x="724.667" y="334" type="curve" smooth="yes"/>
      <point x="724.667" y="131.333"/>
      <point x="584" y="-17.3333"/>
      <point x="379.667" y="-17.3333" type="curve" smooth="yes"/>
      <point x="175.333" y="-17.3333"/>
      <point x="34.6667" y="130.667"/>
    </contour>
    <contour>
      <point x="191" y="321.333" type="line"/>
      <point x="191" y="141.333"/>
      <point x="251.333" y="16.6667"/>
      <point x="379.667" y="16.6667" type="curve" smooth="yes"/>
      <point x="509.333" y="16.6667"/>
      <point x="568.667" y="148.667"/>
      <point x="568.667" y="321.333" type="curve"/>
    </contour>
    <contour>
      <point x="191.667" y="366.333" type="curve"/>
      <point x="567.667" y="366.333" type="line"/>
      <point x="567.667" y="506"/>
      <point x="513.667" y="652"/>
      <point x="375" y="652" type="curve" smooth="yes"/>
      <point x="250.333" y="652"/>
      <point x="191.667" y="506.667"/>
    </contour>
  </outline>
</glyph>
<glyph name="ohorn" format="2">
  <advance width="527"/>
  <unicode hex="01A1"/>
  <outline>
    <contour>
      <point x="378.709" y="417.947" type="line" smooth="yes"/>
      <point x="407.253" y="426.751"/>
      <point x="422.74" y="438.953"/>
      <point x="429.481" y="452.365" type="curve"/>
      <point x="409.03" y="462.93"/>
      <point x="404.808" y="479.749"/>
      <point x="406.667" y="501" type="curve"/>
      <point x="416.252" y="529.044"/>
      <point x="441.186" y="552.152"/>
      <point x="469.663" y="556.743" type="curve" smooth="yes"/>
      <point x="486.681" y="559.803"/>
      <point x="499" y="547.247"/>
      <point x="499" y="528.735" type="curve" smooth="yes"/>
      <point x="499" y="497.67"/>
      <point x="466.652" y="470.616"/>
      <point x="423.382" y="460" type="curve"/>
      <point x="427.112" y="458.659"/>
      <point x="410.779" y="446.803"/>
      <point x="402.842" y="432.908" type="curve"/>
      <point x="402.867" y="419.44"/>
      <point x="391.042" y="416.958"/>
      <point x="370.333" y="415.333" type="curve"/>
    </contour>
    <contour>
      <point x="26.3333" y="228.333" type="curve" smooth="yes"/>
      <point x="26.3333" y="368.467"/>
      <point x="118.457" y="468.667"/>
      <point x="248.333" y="468.667" type="curve" smooth="yes"/>
      <point x="378.21" y="468.667"/>
      <point x="470.333" y="368.467"/>
      <point x="470.333" y="228.333" type="curve" smooth="yes"/>
      <point x="470.333" y="88.3333"/>
      <point x="378.333" y="-12.6667"/>
      <point x="248.333" y="-12.6667" type="curve" smooth="yes"/>
      <point x="118.333" y="-12.6667"/>
      <point x="26.3333" y="88.3333"/>
    </contour>
    <contour>
      <point x="154.333" y="228.333" type="curve" smooth="yes"/>
      <point x="154.333" y="80.3846"/>
      <point x="182.136" y="17.3333"/>
      <point x="248.333" y="17.3333" type="curve" smooth="yes"/>
      <point x="314.531" y="17.3333"/>
      <point x="342.333" y="80.3846"/>
      <point x="342.333" y="228.333" type="curve" smooth="yes"/>
      <point x="342.333" y="376.026"/>
      <point x="314.623" y="438.667"/>
      <point x="248.333" y="438.667" type="curve" smooth="yes"/>
      <point x="182.044" y="438.667"/>
      <point x="154.333" y="376.026"/>
    </contour>
  </outline>
</glyph>
<glyph name="uni01E4" format="2">
  <advance width="722"/>
  <unicode hex="01E4"/>
  <outline>
    <contour>
      <point x="32" y="325" type="curve" smooth="yes"/>
      <point x="32" y="529"/>
      <point x="175" y="676"/>
      <point x="375" y="676" type="curve" smooth="yes"/>
      <point x="475" y="676"/>
      <point x="520" y="643"/>
      <point x="555" y="643" type="curve" smooth="yes"/>
      <point x="576" y="643"/>
      <point x="594" y="657"/>
      <point x="600" y="676" type="curve"/>
      <point x="622" y="676" type="line"/>
      <point x="630" y="465" type="line"/>
      <point x="607" y="465" type="line"/>
      <point x="582" y="526"/>
      <point x="566" y="553"/>
      <point x="536" y="581" type="curve" smooth="yes"/>
      <point x="497" y="617"/>
      <point x="448" y="636"/>
      <point x="392" y="636" type="curve" smooth="yes"/>
      <point x="324" y="636"/>
      <point x="262" y="609"/>
      <point x="218" y="560" type="curve" smooth="yes"/>
      <point x="174" y="511"/>
      <point x="146" y="420"/>
      <point x="146" y="326" type="curve" smooth="yes"/>
      <point x="146" y="140"/>
      <point x="246" y="26"/>
      <point x="409" y="26" type="curve" smooth="yes"/>
      <point x="481" y="26"/>
      <point x="542" y="53"/>
      <point x="542" y="85" type="curve" smooth="yes"/>
      <point x="542" y="201" type="line"/>
      <point x="452" y="201" type="line"/>
      <point x="452" y="250" type="line"/>
      <point x="542" y="250" type="line"/>
      <point x="542" y="324"/>
      <point x="526" y="331"/>
      <point x="454" y="336" type="curve"/>
      <point x="454" y="354" type="line"/>
      <point x="709" y="354" type="line"/>
      <point x="709" y="336" type="line"/>
      <point x="651" y="331"/>
      <point x="639" y="318"/>
      <point x="639" y="259" type="curve" smooth="yes"/>
      <point x="639" y="250" type="line"/>
      <point x="702" y="250" type="line"/>
      <point x="702" y="201" type="line"/>
      <point x="639" y="201" type="line"/>
      <point x="639" y="56" type="line"/>
      <point x="599" y="21"/>
      <point x="474" y="-14"/>
      <point x="388" y="-14" type="curve" smooth="yes"/>
      <point x="278" y="-14"/>
      <point x="182" y="24"/>
      <point x="115" y="93" type="curve" smooth="yes"/>
      <point x="59" y="152"/>
      <point x="32" y="227"/>
    </contour>
  </outline>
</glyph>
<glyph name="uni0208" format="2">
  <advance width="367"/>
  <unicode hex="0208"/>
  <outline>
    <contour>
      <point x="-77.3333" y="872" type="curve" smooth="yes"/>
      <point x="-77.3333" y="896"/>
      <point x="-60.3333" y="912"/>
      <point x="-33.6667" y="912" type="curve" smooth="yes"/>
      <point x="-16" y="912"/>
      <point x="-1.66667" y="904.333"/>
      <point x="15.6667" y="885.667" type="curve" smooth="yes"/>
      <point x="156" y="731.667" type="line"/>
      <point x="105.333" y="731.667" type="line"/>
      <point x="-40.6667" y="822.667" type="line" smooth="yes"/>
      <point x="-69" y="840.333"/>
      <point x="-77.3333" y="851.333"/>
    </contour>
    <contour>
      <point x="14.6667" y="0" type="line"/>
      <point x="14.6667" y="23" type="line"/>
      <point x="92.6667" y="28.6667"/>
      <point x="109" y="42"/>
      <point x="109" y="100.333" type="curve" smooth="yes"/>
      <point x="109" y="571" type="line" smooth="yes"/>
      <point x="109" y="629.667"/>
      <point x="91" y="643.333"/>
      <point x="14.6667" y="648.333" type="curve"/>
      <point x="14.6667" y="671.333" type="line"/>
      <point x="347" y="671.333" type="line"/>
      <point x="347" y="648.333" type="line"/>
      <point x="269.667" y="645"/>
      <point x="251" y="630"/>
      <point x="251" y="571" type="curve" smooth="yes"/>
      <point x="251" y="100.333" type="line" smooth="yes"/>
      <point x="251" y="41.3333"/>
      <point x="269" y="27.3333"/>
      <point x="347" y="23" type="curve"/>
      <point x="347" y="0" type="line"/>
    </contour>
    <contour>
      <point x="108" y="872" type="curve" smooth="yes"/>
      <point x="108" y="896"/>
      <point x="125" y="912"/>
      <point x="151.667" y="912" type="curve" smooth="yes"/>
      <point x="169.333" y="912"/>
      <point x="183.667" y="904.333"/>
      <point x="201" y="885.667" type="curve" smooth="yes"/>
      <point x="341.333" y="731.667" type="line"/>
      <point x="290.667" y="731.667" type="line"/>
      <point x="144.667" y="822.667" type="line" smooth="yes"/>
      <point x="116.333" y="840.333"/>
      <point x="108" y="851.333"/>
    </contour>
  </outline>
</glyph>
<glyph name="uni020D" format="2">
  <advance width="500"/>
  <unicode hex="020D"/>
  <outline>
    <contour>
      <point x="-7.33333" y="661.333" type="curve" smooth="yes"/>
      <point x="-7.33333" y="685.333"/>
      <point x="9.66667" y="701.333"/>
      <point x="36.3333" y="701.333" type="curve" smooth="yes"/>
      <point x="54" y="701.333"/>
      <point x="68.3333" y="693.667"/>
      <point x="85.6667" y="675" type="curve" smooth="yes"/>
      <point x="226" y="521" type="line"/>
      <point x="175.333" y="521" type="line"/>
      <point x="29.3333" y="612" type="line" smooth="yes"/>
      <point x="1" y="629.667"/>
      <point x="-7.33333" y="640.667"/>
    </contour>
    <contour>
      <point x="26.3333" y="230.667" type="curve" smooth="yes"/>
      <point x="26.3333" y="363.333"/>
      <point x="120.667" y="468.667"/>
      <point x="249" y="468.667" type="curve" smooth="yes"/>
      <point x="381.333" y="468.667"/>
      <point x="474" y="367.667"/>
      <point x="474" y="228.667" type="curve" smooth="yes"/>
      <point x="474" y="94.3333"/>
      <point x="379.333" y="-12.6667"/>
      <point x="250" y="-12.6667" type="curve" smooth="yes"/>
      <point x="117.667" y="-12.6667"/>
      <point x="26.3333" y="92.3333"/>
    </contour>
    <contour>
      <point x="154.333" y="234.667" type="curve" smooth="yes"/>
      <point x="154.333" y="108"/>
      <point x="177" y="17.3333"/>
      <point x="254.667" y="17.3333" type="curve" smooth="yes"/>
      <point x="324.667" y="17.3333"/>
      <point x="346" y="87.3333"/>
      <point x="346" y="215" type="curve" smooth="yes"/>
      <point x="346" y="353"/>
      <point x="322.667" y="438.667"/>
      <point x="247" y="438.667" type="curve" smooth="yes"/>
      <point x="177.333" y="438.667"/>
      <point x="154.333" y="376.333"/>
    </contour>
    <contour>
      <point x="178" y="661.333" type="curve" smooth="yes"/>
      <point x="178" y="685.333"/>
      <point x="195" y="701.333"/>
      <point x="221.667" y="701.333" type="curve" smooth="yes"/>
      <point x="239.333" y="701.333"/>
      <point x="253.667" y="693.667"/>
      <point x="271" y="675" type="curve" smooth="yes"/>
      <point x="411.333" y="521" type="line"/>
      <point x="360.667" y="521" type="line"/>
      <point x="214.667" y="612" type="line" smooth="yes"/>
      <point x="186.333" y="629.667"/>
      <point x="178" y="640.667"/>
    </contour>
  </outline>
</glyph>
<glyph name="uni020E" format="2">
  <advance width="759"/>
  <unicode hex="020E"/>
  <outline>
    <contour>
      <point x="34.6667" y="333.333" type="curve" smooth="yes"/>
      <point x="34.6667" y="536.667"/>
      <point x="176.667" y="686"/>
      <point x="382.333" y="686" type="curve" smooth="yes"/>
      <point x="582.667" y="686"/>
      <point x="724.667" y="534.667"/>
      <point x="724.667" y="334" type="curve" smooth="yes"/>
      <point x="724.667" y="131.333"/>
      <point x="584" y="-17.3333"/>
      <point x="379.667" y="-17.3333" type="curve" smooth="yes"/>
      <point x="175.333" y="-17.3333"/>
      <point x="34.6667" y="130.667"/>
    </contour>
    <contour>
      <point x="190.667" y="327.667" type="curve" smooth="yes"/>
      <point x="190.667" y="147.667"/>
      <point x="247.667" y="16.6667"/>
      <point x="379.667" y="16.6667" type="curve" smooth="yes"/>
      <point x="511.667" y="16.6667"/>
      <point x="568.667" y="147.667"/>
      <point x="568.667" y="329.667" type="curve" smooth="yes"/>
      <point x="568.667" y="513"/>
      <point x="509.667" y="652"/>
      <point x="381.667" y="652" type="curve" smooth="yes"/>
      <point x="249" y="652"/>
      <point x="190.667" y="516.333"/>
    </contour>
    <contour>
      <point x="235" y="731.667" type="line"/>
      <point x="235.667" y="835.667"/>
      <point x="295.333" y="890.667"/>
      <point x="380.667" y="890.667" type="curve" smooth="yes"/>
      <point x="466" y="890.667"/>
      <point x="522.667" y="833.667"/>
      <point x="526.667" y="731.667" type="curve"/>
      <point x="488" y="731.667" type="line"/>
      <point x="475.333" y="790.667"/>
      <point x="442" y="820.667"/>
      <point x="381.333" y="820.667" type="curve" smooth="yes"/>
      <point x="321.333" y="820.667"/>
      <point x="283.667" y="792"/>
      <point x="273.667" y="731.667" type="curve"/>
    </contour>
  </outline>
</glyph>
<glyph name="uni0222" format="2">
  <advance width="567"/>
  <unicode hex="0222"/>
  <outline>
    <contour>
      <point x="35" y="529.333" type="curve" smooth="yes"/>
      <point x="35" y="636.333"/>
      <point x="116" y="686.333"/>
      <point x="229" y="686.333" type="curve"/>
      <point x="237" y="671.333" type="line"/>
      <point x="197" y="671.333"/>
      <point x="152.667" y="666"/>
      <point x="152.667" y="606.667" type="curve" smooth="yes"/>
      <point x="152.667" y="518"/>
      <point x="228.667" y="484"/>
      <point x="308" y="440" type="curve"/>
      <point x="391.333" y="480.333"/>
      <point x="436.333" y="529.667"/>
      <point x="436.333" y="590" type="curve" smooth="yes"/>
      <point x="436.333" y="646"/>
      <point x="375" y="662.333"/>
      <point x="334" y="662.333" type="curve"/>
      <point x="334" y="671.333" type="line"/>
      <point x="487.333" y="671.333" type="line"/>
      <point x="504.333" y="660.333"/>
      <point x="524" y="629.333"/>
      <point x="524" y="597.333" type="curve" smooth="yes"/>
      <point x="524" y="504.333"/>
      <point x="435.667" y="459.333"/>
      <point x="342" y="422" type="curve"/>
      <point x="414" y="387.667"/>
      <point x="524.333" y="325.333"/>
      <point x="524.333" y="211.333" type="curve" smooth="yes"/>
      <point x="524.333" y="89.3333"/>
      <point x="444.667" y="-17.3333"/>
      <point x="291.333" y="-17.3333" type="curve" smooth="yes"/>
      <point x="159.333" y="-17.3333"/>
      <point x="37.3333" y="43.3333"/>
      <point x="37.3333" y="184.333" type="curve" smooth="yes"/>
      <point x="37.3333" y="286"/>
      <point x="114.667" y="341.667"/>
      <point x="172.333" y="359.667" type="curve"/>
      <point x="91.3333" y="404.667"/>
      <point x="35" y="451.333"/>
    </contour>
    <contour>
      <point x="132.667" y="198.667" type="curve" smooth="yes"/>
      <point x="132.667" y="52.6667"/>
      <point x="239.333" y="18"/>
      <point x="292.667" y="18" type="curve" smooth="yes"/>
      <point x="366.667" y="18"/>
      <point x="408.667" y="65.3333"/>
      <point x="408.667" y="143.333" type="curve" smooth="yes"/>
      <point x="408.667" y="251.333"/>
      <point x="294.333" y="299.333"/>
      <point x="208.333" y="341.667" type="curve"/>
      <point x="170.333" y="321.667"/>
      <point x="132.667" y="274"/>
    </contour>
  </outline>
</glyph>
<glyph name="uni0223" format="2">
  <advance width="485"/>
  <unicode hex="0223"/>
  <outline>
    <contour>
      <point x="30" y="536" type="curve" smooth="yes"/>
      <point x="30" y="600"/>
      <point x="61" y="653.333"/>
      <point x="132" y="686.333" type="curve"/>
      <point x="139" y="671.333" type="line"/>
      <point x="117" y="654.333"/>
      <point x="100.333" y="629.333"/>
      <point x="100.333" y="589.333" type="curve" smooth="yes"/>
      <point x="100.333" y="511.333"/>
      <point x="204" y="456.333"/>
      <point x="276" y="420.333" type="curve"/>
      <point x="336" y="451.333"/>
      <point x="394.667" y="504"/>
      <point x="394.667" y="575.667" type="curve" smooth="yes"/>
      <point x="394.667" y="629.667"/>
      <point x="358" y="648.667"/>
      <point x="318" y="648.667" type="curve" smooth="yes"/>
      <point x="299" y="648.667"/>
      <point x="278.333" y="643.667"/>
      <point x="263.333" y="638.667" type="curve"/>
      <point x="258" y="650.333" type="line"/>
      <point x="363.667" y="718" type="line"/>
      <point x="393.667" y="715.667"/>
      <point x="459.333" y="694.333"/>
      <point x="459.333" y="613.333" type="curve" smooth="yes"/>
      <point x="459.333" y="519.667"/>
      <point x="387.667" y="449.667"/>
      <point x="301.667" y="405.667" type="curve"/>
      <point x="377.333" y="371.333"/>
      <point x="449" y="310"/>
      <point x="449" y="218" type="curve" smooth="yes"/>
      <point x="449" y="94"/>
      <point x="374.667" y="-12.6667"/>
      <point x="252.667" y="-12.6667" type="curve" smooth="yes"/>
      <point x="138.667" y="-12.6667"/>
      <point x="31" y="43.6667"/>
      <point x="31" y="170.667" type="curve" smooth="yes"/>
      <point x="31" y="272"/>
      <point x="117.333" y="333.667"/>
      <point x="163.333" y="356.667" type="curve"/>
      <point x="103.333" y="389"/>
      <point x="30" y="448.667"/>
    </contour>
    <contour>
      <point x="115" y="184.667" type="curve" smooth="yes"/>
      <point x="115" y="55.3333"/>
      <point x="203.333" y="17.3333"/>
      <point x="258.667" y="17.3333" type="curve" smooth="yes"/>
      <point x="305.333" y="17.3333"/>
      <point x="359" y="56"/>
      <point x="359" y="154.667" type="curve" smooth="yes"/>
      <point x="359" y="262.667"/>
      <point x="264.667" y="308.667"/>
      <point x="192" y="339" type="curve"/>
      <point x="160.333" y="320"/>
      <point x="115" y="273.333"/>
    </contour>
  </outline>
</glyph>
<glyph name="uni02BE" format="2">
  <advance width="219"/>
  <unicode hex="02BE"/>
  <outline>
    <contour>
      <point x="56.6667" y="528.667" type="curve"/>
      <point x="56.6667" y="572" type="line"/>
      <point x="91" y="572"/>
      <point x="119" y="599"/>
      <point x="119" y="631.667" type="curve" smooth="yes"/>
      <point x="119" y="665"/>
      <point x="89.6667" y="693.667"/>
      <point x="56.6667" y="693.667" type="curve"/>
      <point x="56.6667" y="737" type="line"/>
      <point x="113.667" y="737"/>
      <point x="162.333" y="689.333"/>
      <point x="162.333" y="632.333" type="curve" smooth="yes"/>
      <point x="162.333" y="574.667"/>
      <point x="114.333" y="528.667"/>
    </contour>
  </outline>
</glyph>
<glyph name="caron" format="2">
  <advance width="333"/>
  <unicode hex="02C7"/>
  <outline>
    <contour>
      <point x="2.33333" y="694" type="line"/>
      <point x="51" y="694" type="line"/>
      <point x="166" y="593.667" type="line"/>
      <point x="281.333" y="694" type="line"/>
      <point x="330.667" y="694" type="line"/>
      <point x="207" y="521" type="line"/>
      <point x="125" y="521" type="line"/>
    </contour>
  </outline>
</glyph>
<glyph name="uni02CB" format="2">
  <advance width="333"/>
  <unicode hex="02CB"/>
  <outline>
    <contour>
      <point x="11.6667" y="661" type="curve" smooth="yes"/>
      <point x="11.6667" y="684"/>
      <point x="30" y="701.333"/>
      <point x="54.3333" y="701.333" type="curve" smooth="yes"/>
      <point x="72" y="701.333"/>
      <point x="87.6667" y="693"/>
      <point x="104.333" y="675" type="curve" smooth="yes"/>
      <point x="244.667" y="521" type="line"/>
      <point x="194" y="521" type="line"/>
      <point x="48" y="612" type="line" smooth="yes"/>
      <point x="22.6667" y="628"/>
      <point x="11.6667" y="642.333"/>
    </contour>
  </outline>
</glyph>
<glyph name="dotaccent" format="2">
  <advance width="333"/>
  <unicode hex="02D9"/>
  <outline>
    <contour>
      <point x="108" y="593" type="curve" smooth="yes"/>
      <point x="108" y="623.667"/>
      <point x="135.667" y="651.333"/>
      <point x="166" y="651.333" type="curve" smooth="yes"/>
      <point x="199.333" y="651.333"/>
      <point x="227" y="623.667"/>
      <point x="227" y="590.667" type="curve" smooth="yes"/>
      <point x="227" y="558.333"/>
      <point x="200" y="532.333"/>
      <point x="166" y="532.333" type="curve" smooth="yes"/>
      <point x="133.667" y="532.333"/>
      <point x="108" y="559"/>
    </contour>
  </outline>
</glyph>
<glyph name="ring" format="2">
  <advance width="333"/>
  <unicode hex="02DA"/>
  <outline>
    <contour>
      <point x="62.3333" y="634" type="curve" smooth="yes"/>
      <point x="62.3333" y="689.333"/>
      <point x="110" y="737"/>
      <point x="166.667" y="737" type="curve" smooth="yes"/>
      <point x="223.667" y="737"/>
      <point x="270.667" y="689.333"/>
      <point x="270.667" y="632.333" type="curve" smooth="yes"/>
      <point x="270.667" y="574.667"/>
      <point x="223.667" y="528.667"/>
      <point x="166" y="528.667" type="curve" smooth="yes"/>
      <point x="108" y="528.667"/>
      <point x="62.3333" y="575.333"/>
    </contour>
    <contour>
      <point x="105.667" y="632.667" type="curve" smooth="yes"/>
      <point x="105.667" y="599.333"/>
      <point x="132.667" y="572"/>
      <point x="165" y="572" type="curve" smooth="yes"/>
      <point x="199.333" y="572"/>
      <point x="227.333" y="599"/>
      <point x="227.333" y="631.667" type="curve" smooth="yes"/>
      <point x="227.333" y="665"/>
      <point x="199.333" y="693.667"/>
      <point x="166.333" y="693.667" type="curve" smooth="yes"/>
      <point x="133.667" y="693.667"/>
      <point x="105.667" y="665.333"/>
    </contour>
  </outline>
</glyph>
<glyph name="hungarumlaut" format="2">
  <advance width="333"/>
  <unicode hex="02DD"/>
  <outline>
    <contour>
      <point x="-3.66667" y="521" type="line"/>
      <point x="136.667" y="675" type="line" smooth="yes"/>
      <point x="154" y="693.667"/>
      <point x="168.333" y="701.333"/>
      <point x="186" y="701.333" type="curve" smooth="yes"/>
      <point x="212.667" y="701.333"/>
      <point x="229.667" y="685.333"/>
      <point x="229.667" y="661.333" type="curve" smooth="yes"/>
      <point x="229.667" y="640.667"/>
      <point x="221.333" y="629.667"/>
      <point x="193" y="612" type="curve" smooth="yes"/>
      <point x="47" y="521" type="line"/>
    </contour>
    <contour>
      <point x="181.667" y="521" type="line"/>
      <point x="322" y="675" type="line" smooth="yes"/>
      <point x="339.333" y="693.667"/>
      <point x="353.667" y="701.333"/>
      <point x="371.333" y="701.333" type="curve" smooth="yes"/>
      <point x="398" y="701.333"/>
      <point x="415" y="685.333"/>
      <point x="415" y="661.333" type="curve" smooth="yes"/>
      <point x="415" y="640.667"/>
      <point x="406.667" y="629.667"/>
      <point x="378.333" y="612" type="curve" smooth="yes"/>
      <point x="232.333" y="521" type="line"/>
    </contour>
  </outline>
</glyph>
<glyph name="gravecomb" format="2">
  <unicode hex="0300"/>
  <outline>
    <contour>
      <point x="-421.667" y="660.636" type="curve" smooth="yes"/>
      <point x="-421.667" y="684"/>
      <point x="-403.667" y="701.333"/>
      <point x="-379.333" y="701.333" type="curve" smooth="yes"/>
      <point x="-361.667" y="701.333"/>
      <point x="-345.886" y="693.475"/>
      <point x="-329" y="675" type="curve" smooth="yes"/>
      <point x="-188.667" y="521" type="line"/>
      <point x="-239.333" y="521" type="line"/>
      <point x="-385.333" y="612" type="line" smooth="yes"/>
      <point x="-410.667" y="628"/>
      <point x="-421.667" y="642.333"/>
    </contour>
  </outline>
</glyph>
<glyph name="dotabovecomb" format="2">
  <unicode hex="0307"/>
  <outline>
    <contour>
      <point x="-325.333" y="593" type="curve" smooth="yes"/>
      <point x="-325.333" y="623.667"/>
      <point x="-297.667" y="651.333"/>
      <point x="-267.333" y="651.333" type="curve" smooth="yes"/>
      <point x="-234" y="651.333"/>
      <point x="-206.333" y="623.667"/>
      <point x="-206.333" y="590.667" type="curve" smooth="yes"/>
      <point x="-206.333" y="558.333"/>
      <point x="-233.333" y="532.333"/>
      <point x="-267.333" y="532.333" type="curve" smooth="yes"/>
      <point x="-299.667" y="532.333"/>
      <point x="-325.333" y="559"/>
    </contour>
  </outline>
</glyph>
<glyph name="hookabovecomb" format="2">
  <unicode hex="0309"/>
  <outline>
    <contour>
      <point x="-372.333" y="670.441" type="curve" smooth="yes"/>
      <point x="-372.333" y="709.333"/>
      <point x="-328.333" y="736.333"/>
      <point x="-263.083" y="736.333" type="curve" smooth="yes"/>
      <point x="-183.667" y="736.333"/>
      <point x="-158.667" y="696.333"/>
      <point x="-158.667" y="659.476" type="curve" smooth="yes"/>
      <point x="-158.667" y="624.158"/>
      <point x="-181.283" y="610.839"/>
      <point x="-205.042" y="596.728" type="curve" smooth="yes"/>
      <point x="-230.441" y="581.625"/>
      <point x="-259" y="560.908"/>
      <point x="-259" y="521" type="curve"/>
      <point x="-287" y="521" type="line"/>
      <point x="-287.095" y="573.378"/>
      <point x="-269.221" y="594.534"/>
      <point x="-253.81" y="612.794" type="curve" smooth="yes"/>
      <point x="-240.799" y="628.23"/>
      <point x="-231.667" y="640.452"/>
      <point x="-231.667" y="661.377" type="curve" smooth="yes"/>
      <point x="-231.667" y="689"/>
      <point x="-247.667" y="702"/>
      <point x="-283.375" y="702" type="curve" smooth="yes"/>
      <point x="-298.72" y="702"/>
      <point x="-308.172" y="699.148"/>
      <point x="-318.333" y="691.333" type="curve"/>
      <point x="-310.295" y="684.872"/>
      <point x="-301.667" y="671.667"/>
      <point x="-301.667" y="657.372" type="curve" smooth="yes"/>
      <point x="-301.667" y="642"/>
      <point x="-311.667" y="631.667"/>
      <point x="-331.377" y="631.667" type="curve" smooth="yes"/>
      <point x="-356.333" y="631.667"/>
      <point x="-372.333" y="647"/>
    </contour>
  </outline>
</glyph>
<glyph name="doubleacutecomb" format="2">
  <unicode hex="030B"/>
  <outline>
    <contour>
      <point x="-437" y="521" type="line"/>
      <point x="-296.667" y="675" type="line" smooth="yes"/>
      <point x="-279.333" y="693.667"/>
      <point x="-265" y="701.333"/>
      <point x="-247.333" y="701.333" type="curve" smooth="yes"/>
      <point x="-220.667" y="701.333"/>
      <point x="-203.667" y="685.333"/>
      <point x="-203.667" y="661.333" type="curve" smooth="yes"/>
      <point x="-203.667" y="640.667"/>
      <point x="-212" y="629.667"/>
      <point x="-240.333" y="612" type="curve" smooth="yes"/>
      <point x="-386.333" y="521" type="line"/>
    </contour>
    <contour>
      <point x="-251.667" y="521" type="line"/>
      <point x="-111.333" y="675" type="line" smooth="yes"/>
      <point x="-94" y="693.667"/>
      <point x="-79.6667" y="701.333"/>
      <point x="-62" y="701.333" type="curve" smooth="yes"/>
      <point x="-35.3333" y="701.333"/>
      <point x="-18.3333" y="685.333"/>
      <point x="-18.3333" y="661.333" type="curve" smooth="yes"/>
      <point x="-18.3333" y="640.667"/>
      <point x="-26.6667" y="629.667"/>
      <point x="-55" y="612" type="curve" smooth="yes"/>
      <point x="-201" y="521" type="line"/>
    </contour>
  </outline>
</glyph>
<glyph name="invertedbrevecomb" format="2">
  <unicode hex="0311"/>
  <outline>
    <contour>
      <point x="-412.667" y="521" type="line"/>
      <point x="-412" y="625"/>
      <point x="-352.333" y="680"/>
      <point x="-267" y="680" type="curve" smooth="yes"/>
      <point x="-181.667" y="680"/>
      <point x="-125" y="623"/>
      <point x="-121" y="521" type="curve"/>
      <point x="-159.667" y="521" type="line"/>
      <point x="-172.333" y="580"/>
      <point x="-205.667" y="610"/>
      <point x="-266.333" y="610" type="curve" smooth="yes"/>
      <point x="-326.333" y="610"/>
      <point x="-364" y="581.333"/>
      <point x="-374" y="521" type="curve"/>
    </contour>
  </outline>
</glyph>
<glyph name="turnedcommacomb" format="2">
  <unicode hex="0312"/>
  <outline>
    <contour>
      <point x="-347.333" y="620.667" type="curve" smooth="yes"/>
      <point x="-347.333" y="693.667"/>
      <point x="-303.333" y="747.333"/>
      <point x="-210.667" y="795" type="curve"/>
      <point x="-201" y="776" type="line"/>
      <point x="-264.667" y="736.667"/>
      <point x="-293.667" y="702.333"/>
      <point x="-293.667" y="668.333" type="curve" smooth="yes"/>
      <point x="-293.667" y="659"/>
      <point x="-286.333" y="651"/>
      <point x="-277.667" y="651" type="curve"/>
      <point x="-276.536" y="651"/>
      <point x="-277.088" y="650.889"/>
      <point x="-272.441" y="651.842" type="curve" smooth="yes"/>
      <point x="-268.053" y="652.639"/>
      <point x="-263.03" y="653.667"/>
      <point x="-255.667" y="653.667" type="curve" smooth="yes"/>
      <point x="-217.333" y="653.667"/>
      <point x="-191.333" y="628.667"/>
      <point x="-191.333" y="589.333" type="curve" smooth="yes"/>
      <point x="-191.333" y="548.333"/>
      <point x="-220" y="521"/>
      <point x="-261" y="521" type="curve" smooth="yes"/>
      <point x="-312" y="521"/>
      <point x="-347.333" y="562"/>
    </contour>
  </outline>
</glyph>
<glyph name="uni0324" format="2">
  <unicode hex="0324"/>
  <outline>
    <contour>
      <point x="-428.667" y="-121.667" type="curve" smooth="yes"/>
      <point x="-428.667" y="-90.3333"/>
      <point x="-401" y="-62.6667"/>
      <point x="-370" y="-62.6667" type="curve" smooth="yes"/>
      <point x="-337.333" y="-62.6667"/>
      <point x="-309.667" y="-90.3333"/>
      <point x="-309.667" y="-123.333" type="curve" smooth="yes"/>
      <point x="-309.667" y="-155.667"/>
      <point x="-336.667" y="-181.667"/>
      <point x="-370" y="-181.667" type="curve" smooth="yes"/>
      <point x="-402.333" y="-181.667"/>
      <point x="-428.667" y="-154.333"/>
    </contour>
    <contour>
      <point x="-222.333" y="-121" type="curve" smooth="yes"/>
      <point x="-222.333" y="-90.3333"/>
      <point x="-194.667" y="-62.6667"/>
      <point x="-164.333" y="-62.6667" type="curve" smooth="yes"/>
      <point x="-131" y="-62.6667"/>
      <point x="-103.333" y="-90.3333"/>
      <point x="-103.333" y="-123.333" type="curve" smooth="yes"/>
      <point x="-103.333" y="-155.667"/>
      <point x="-130.333" y="-181.667"/>
      <point x="-164.333" y="-181.667" type="curve" smooth="yes"/>
      <point x="-196.667" y="-181.667"/>
      <point x="-222.333" y="-155"/>
    </contour>
  </outline>
</glyph>
<glyph name="uni0325" format="2">
  <unicode hex="0325"/>
  <outline>
    <contour>
      <point x="-371" y="-148.667" type="curve" smooth="yes"/>
      <point x="-371" y="-93.3333"/>
      <point x="-323.333" y="-45.6667"/>
      <point x="-266.667" y="-45.6667" type="curve" smooth="yes"/>
      <point x="-209.667" y="-45.6667"/>
      <point x="-162.667" y="-93.3333"/>
      <point x="-162.667" y="-150.333" type="curve" smooth="yes"/>
      <point x="-162.667" y="-208"/>
      <point x="-209.667" y="-254"/>
      <point x="-267.333" y="-254" type="curve" smooth="yes"/>
      <point x="-325.333" y="-254"/>
      <point x="-371" y="-207.333"/>
    </contour>
    <contour>
      <point x="-327.667" y="-150" type="curve" smooth="yes"/>
      <point x="-327.667" y="-183.333"/>
      <point x="-300.667" y="-210.667"/>
      <point x="-268.333" y="-210.667" type="curve" smooth="yes"/>
      <point x="-234" y="-210.667"/>
      <point x="-206" y="-183.667"/>
      <point x="-206" y="-151" type="curve" smooth="yes"/>
      <point x="-206" y="-117.667"/>
      <point x="-234" y="-89"/>
      <point x="-267" y="-89" type="curve" smooth="yes"/>
      <point x="-299.667" y="-89"/>
      <point x="-327.667" y="-117.333"/>
    </contour>
  </outline>
</glyph>
<glyph name="uni0326" format="2">
  <unicode hex="0326"/>
  <outline>
    <contour>
      <point x="-328.667" y="-94.3333" type="curve" smooth="yes"/>
      <point x="-328.667" y="-66"/>
      <point x="-302.667" y="-45"/>
      <point x="-272.667" y="-45" type="curve" smooth="yes"/>
      <point x="-235" y="-45"/>
      <point x="-204.667" y="-76.6667"/>
      <point x="-204.667" y="-113.333" type="curve" smooth="yes"/>
      <point x="-204.667" y="-168"/>
      <point x="-240" y="-210"/>
      <point x="-306" y="-228.667" type="curve"/>
      <point x="-314" y="-213.667" type="line"/>
      <point x="-276.667" y="-202.667"/>
      <point x="-246.667" y="-174"/>
      <point x="-246.667" y="-147.667" type="curve" smooth="yes"/>
      <point x="-246.667" y="-140"/>
      <point x="-250.697" y="-136.056"/>
      <point x="-257.333" y="-136" type="curve" smooth="yes"/>
      <point x="-259.76" y="-135.979"/>
      <point x="-263.204" y="-136.902"/>
      <point x="-266.468" y="-137.867" type="curve" smooth="yes"/>
      <point x="-269.994" y="-138.909"/>
      <point x="-273.699" y="-140"/>
      <point x="-277.333" y="-140" type="curve" smooth="yes"/>
      <point x="-306" y="-140"/>
      <point x="-328.667" y="-122.667"/>
    </contour>
  </outline>
</glyph>
<glyph name="uni0327" format="2">
  <unicode hex="0327"/>
  <outline>
    <contour>
      <point x="-377.333" y="-199.667" type="curve"/>
      <point x="-362" y="-164.667" type="line"/>
      <point x="-338.186" y="-175.16"/>
      <point x="-322.999" y="-178"/>
      <point x="-305.669" y="-178" type="curve" smooth="yes"/>
      <point x="-265" y="-178"/>
      <point x="-244" y="-162.333"/>
      <point x="-244" y="-135.425" type="curve" smooth="yes"/>
      <point x="-244" y="-112.667"/>
      <point x="-260.333" y="-100"/>
      <point x="-292.333" y="-100" type="curve" smooth="yes"/>
      <point x="-302" y="-100"/>
      <point x="-310.333" y="-101"/>
      <point x="-320.333" y="-104" type="curve"/>
      <point x="-330" y="-97" type="line"/>
      <point x="-282.9" y="10.1323" type="line"/>
      <point x="-242" y="10" type="line"/>
      <point x="-275" y="-64.3333" type="line"/>
      <point x="-263.667" y="-61"/>
      <point x="-256.333" y="-60"/>
      <point x="-245.567" y="-60" type="curve" smooth="yes"/>
      <point x="-189.667" y="-60"/>
      <point x="-157" y="-86"/>
      <point x="-157" y="-129.667" type="curve" smooth="yes"/>
      <point x="-157" y="-183.667"/>
      <point x="-206.333" y="-217"/>
      <point x="-287.628" y="-217" type="curve" smooth="yes"/>
      <point x="-318" y="-217"/>
      <point x="-343.667" y="-212.333"/>
    </contour>
  </outline>
</glyph>
<glyph name="uni0328" format="2">
  <unicode hex="0328"/>
  <outline>
    <contour>
      <point x="-374" y="-89.3915" type="curve" smooth="yes"/>
      <point x="-374" y="-60.3333"/>
      <point x="-359.202" y="-30.9505"/>
      <point x="-314.667" y="1.33333" type="curve" smooth="yes"/>
      <point x="-292.383" y="17.3333" type="line"/>
      <point x="-240.966" y="17.3333" type="line"/>
      <point x="-262" y="0" type="line" smooth="yes"/>
      <point x="-281.932" y="-16.2069"/>
      <point x="-299.333" y="-40"/>
      <point x="-299.333" y="-65.1681" type="curve" smooth="yes"/>
      <point x="-299.333" y="-89.4286"/>
      <point x="-282.443" y="-105.667"/>
      <point x="-250.631" y="-105.667" type="curve" smooth="yes"/>
      <point x="-229.665" y="-105.667"/>
      <point x="-206.065" y="-98.8925"/>
      <point x="-181" y="-80.3333" type="curve"/>
      <point x="-159.667" y="-95" type="line"/>
      <point x="-188.667" y="-143.333"/>
      <point x="-232" y="-170.333"/>
      <point x="-281.196" y="-170.333" type="curve" smooth="yes"/>
      <point x="-333.333" y="-170.333"/>
      <point x="-374" y="-136.667"/>
    </contour>
  </outline>
</glyph>
<glyph name="uni032C" format="2">
  <unicode hex="032C"/>
  <outline>
    <contour>
      <point x="-431" y="-45.6667" type="line"/>
      <point x="-382.333" y="-45.6667" type="line"/>
      <point x="-267.333" y="-146" type="line"/>
      <point x="-152" y="-45.6667" type="line"/>
      <point x="-102.667" y="-45.6667" type="line"/>
      <point x="-226.333" y="-218.667" type="line"/>
      <point x="-308.333" y="-218.667" type="line"/>
    </contour>
  </outline>
</glyph>
<glyph name="uni0330" format="2">
  <unicode hex="0330"/>
  <outline>
    <contour>
      <point x="-443.667" y="-164.333" type="line"/>
      <point x="-426.667" y="-85.3333"/>
      <point x="-390.667" y="-47.3333"/>
      <point x="-332.667" y="-47.3333" type="curve" smooth="yes"/>
      <point x="-311.333" y="-47.3333"/>
      <point x="-287" y="-53.3333"/>
      <point x="-260.667" y="-66" type="curve" smooth="yes"/>
      <point x="-226" y="-82" type="line" smooth="yes"/>
      <point x="-203.667" y="-92.3333"/>
      <point x="-194.667" y="-95"/>
      <point x="-182.333" y="-95" type="curve" smooth="yes"/>
      <point x="-156.667" y="-95"/>
      <point x="-143" y="-82.3333"/>
      <point x="-128.667" y="-45.6667" type="curve"/>
      <point x="-90.3333" y="-45.6667" type="line"/>
      <point x="-112.667" y="-129"/>
      <point x="-147" y="-165.667"/>
      <point x="-203.333" y="-165.667" type="curve" smooth="yes"/>
      <point x="-225" y="-165.667"/>
      <point x="-246.667" y="-160.333"/>
      <point x="-273" y="-148.333" type="curve" smooth="yes"/>
      <point x="-300" y="-136" type="line" smooth="yes"/>
      <point x="-333.667" y="-121"/>
      <point x="-343.667" y="-117.667"/>
      <point x="-356.333" y="-117.667" type="curve" smooth="yes"/>
      <point x="-381.333" y="-117.667"/>
      <point x="-399.667" y="-135.333"/>
      <point x="-406" y="-164.333" type="curve"/>
    </contour>
  </outline>
</glyph>
<glyph name="uni0331" format="2">
  <unicode hex="0331"/>
  <outline>
    <contour>
      <point x="-429" y="-80.3333" type="line"/>
      <point x="-105.333" y="-80.3333" type="line"/>
      <point x="-105.333" y="-146.333" type="line"/>
      <point x="-429" y="-146.333" type="line"/>
    </contour>
  </outline>
</glyph>
<glyph name="uni033E" format="2">
  <unicode hex="033E"/>
  <outline>
    <contour>
      <point x="-326" y="526.333" type="curve"/>
      <point x="-316.16" y="535.543"/>
      <point x="-311" y="558.607"/>
      <point x="-311" y="567.345" type="curve"/>
      <point x="-299.667" y="575.667"/>
      <point x="-281.885" y="588.51"/>
      <point x="-284.577" y="608.234" type="curve"/>
      <point x="-284.93" y="614.123"/>
      <point x="-289.222" y="622.549"/>
      <point x="-295.659" y="634.137" type="curve"/>
      <point x="-304.2" y="646.338"/>
      <point x="-313.152" y="661.768"/>
      <point x="-315" y="671.134" type="curve"/>
      <point x="-317.944" y="689.209"/>
      <point x="-318" y="719.667"/>
      <point x="-293" y="743.826" type="curve"/>
      <point x="-293" y="785.665"/>
      <point x="-233" y="791.887"/>
      <point x="-209.667" y="795.333" type="curve"/>
      <point x="-222.044" y="783.476"/>
      <point x="-224.333" y="762.733"/>
      <point x="-224.333" y="755.176" type="curve"/>
      <point x="-236.333" y="750"/>
      <point x="-253.883" y="737.179"/>
      <point x="-251.405" y="718.139" type="curve"/>
      <point x="-251.007" y="708.704"/>
      <point x="-242.519" y="693.056"/>
      <point x="-234" y="678.722" type="curve"/>
      <point x="-228.563" y="670.972"/>
      <point x="-216.335" y="652.007"/>
      <point x="-215" y="643.406" type="curve"/>
      <point x="-210.333" y="624.667"/>
      <point x="-222" y="601.333"/>
      <point x="-241" y="582.604" type="curve"/>
      <point x="-241.063" y="538.682"/>
      <point x="-302.633" y="530.462"/>
    </contour>
  </outline>
</glyph>
<glyph name="uni0374" format="2">
  <advance width="206"/>
  <unicode hex="0374"/>
  <outline>
    <contour>
      <point x="16.6667" y="482.333" type="line"/>
      <point x="78.6667" y="651.333" type="line" smooth="yes"/>
      <point x="88.1719" y="677.378"/>
      <point x="110.441" y="694"/>
      <point x="135.227" y="694" type="curve" smooth="yes"/>
      <point x="160.381" y="694"/>
      <point x="177.333" y="677.284"/>
      <point x="177.333" y="652.333" type="curve" smooth="yes"/>
      <point x="177.333" y="635.779"/>
      <point x="170.172" y="620.517"/>
      <point x="153" y="600.333" type="curve" smooth="yes"/>
      <point x="40.3333" y="467" type="line"/>
    </contour>
  </outline>
</glyph>
<glyph name="uni0375" format="2">
  <advance width="209"/>
  <unicode hex="0375"/>
  <outline>
    <contour>
      <point x="23" y="-170.085" type="curve" smooth="yes"/>
      <point x="23" y="-150"/>
      <point x="33.2771" y="-134.771"/>
      <point x="46.6667" y="-119" type="curve" smooth="yes"/>
      <point x="159.333" y="14.3333" type="line"/>
      <point x="183" y="-1" type="line"/>
      <point x="121" y="-170" type="line" smooth="yes"/>
      <point x="110.612" y="-197.951"/>
      <point x="87.3333" y="-212.667"/>
      <point x="65.2671" y="-212.667" type="curve" smooth="yes"/>
      <point x="43" y="-212.667"/>
      <point x="23" y="-197.667"/>
    </contour>
  </outline>
</glyph>
<glyph name="anoteleia" format="2">
  <advance width="250"/>
  <unicode hex="0387"/>
  <outline>
    <contour>
      <point x="43.3333" y="371" type="curve" smooth="yes"/>
      <point x="43.3333" y="416"/>
      <point x="80" y="452.667"/>
      <point x="125" y="452.667" type="curve" smooth="yes"/>
      <point x="170" y="452.667"/>
      <point x="206.667" y="416"/>
      <point x="206.667" y="371" type="curve" smooth="yes"/>
      <point x="206.667" y="326"/>
      <point x="170" y="289.333"/>
      <point x="125" y="289.333" type="curve" smooth="yes"/>
      <point x="80" y="289.333"/>
      <point x="43.3333" y="326"/>
    </contour>
  </outline>
</glyph>
<glyph name="Theta" format="2">
  <advance width="769"/>
  <unicode hex="0398"/>
  <outline>
    <contour>
      <point x="34.6667" y="333.667" type="curve" smooth="yes"/>
      <point x="34.6667" y="536"/>
      <point x="184.333" y="686"/>
      <point x="383.981" y="686" type="curve" smooth="yes"/>
      <point x="585" y="686"/>
      <point x="734.667" y="534"/>
      <point x="734.667" y="332.87" type="curve" smooth="yes"/>
      <point x="734.667" y="133"/>
      <point x="586" y="-16.6667"/>
      <point x="384.667" y="-16.6667" type="curve" smooth="yes"/>
      <point x="183.333" y="-16.6667"/>
      <point x="34.6667" y="132.333"/>
    </contour>
    <contour>
      <point x="188.667" y="331.443" type="curve" smooth="yes"/>
      <point x="188.667" y="147"/>
      <point x="255" y="17.3333"/>
      <point x="383.68" y="17.3333" type="curve" smooth="yes"/>
      <point x="512.667" y="17.3333"/>
      <point x="580.667" y="147.667"/>
      <point x="580.667" y="329.786" type="curve" smooth="yes"/>
      <point x="580.667" y="513.333"/>
      <point x="512" y="652"/>
      <point x="383.202" y="652" type="curve" smooth="yes"/>
      <point x="255.667" y="652"/>
      <point x="188.667" y="516.667"/>
    </contour>
    <contour>
      <point x="259.333" y="234" type="line"/>
      <point x="259.333" y="445" type="line"/>
      <point x="281" y="445" type="line"/>
      <point x="281" y="413.667"/>
      <point x="302.667" y="383.667"/>
      <point x="335.667" y="383.667" type="curve" smooth="yes"/>
      <point x="431" y="383.667" type="line" smooth="yes"/>
      <point x="467.358" y="383.667"/>
      <point x="487.667" y="410.894"/>
      <point x="487.667" y="445.333" type="curve"/>
      <point x="509.333" y="445.333" type="line"/>
      <point x="509.333" y="234" type="line"/>
      <point x="487.667" y="234" type="line"/>
      <point x="487.667" y="268"/>
      <point x="466.333" y="294.667"/>
      <point x="431" y="294.667" type="curve" smooth="yes"/>
      <point x="335.667" y="294.667" type="line" smooth="yes"/>
      <point x="302.333" y="294.667"/>
      <point x="280.667" y="265.667"/>
      <point x="280.667" y="234" type="curve"/>
    </contour>
  </outline>
</glyph>
<glyph name="Nu" format="2">
  <advance width="722"/>
  <unicode hex="039D"/>
  <outline>
    <contour>
      <point x="14.6667" y="0" type="line"/>
      <point x="14.6667" y="23" type="line"/>
      <point x="91" y="31"/>
      <point x="105.667" y="46.6667"/>
      <point x="105.667" y="119" type="curve" smooth="yes"/>
      <point x="105.667" y="582" type="line"/>
      <point x="60.3333" y="635.667"/>
      <point x="44.3333" y="648.333"/>
      <point x="16.6667" y="648.333" type="curve"/>
      <point x="16.6667" y="671.333" type="line"/>
      <point x="214.333" y="671.333" type="line"/>
      <point x="575.333" y="224" type="line"/>
      <point x="575.333" y="539.667" type="line" smooth="yes"/>
      <point x="575.333" y="617.365"/>
      <point x="560.516" y="641.31"/>
      <point x="481.333" y="648.333" type="curve"/>
      <point x="481.333" y="671.333" type="line"/>
      <point x="703" y="671.333" type="line"/>
      <point x="703" y="648.333" type="line"/>
      <point x="630.707" y="638.618"/>
      <point x="619.333" y="620.097"/>
      <point x="619.333" y="552.333" type="curve" smooth="yes"/>
      <point x="619.333" y="-15.6667" type="line"/>
      <point x="595" y="-15.6667" type="line"/>
      <point x="149.667" y="530.333" type="line"/>
      <point x="149.667" y="131.667" type="line" smooth="yes"/>
      <point x="149.667" y="50.6667"/>
      <point x="167.333" y="30.3333"/>
      <point x="244.333" y="23" type="curve"/>
      <point x="244.333" y="0" type="line"/>
    </contour>
  </outline>
</glyph>
<glyph name="Xi" format="2">
  <advance width="643"/>
  <unicode hex="039E"/>
  <outline>
    <contour>
      <point x="59" y="0" type="line"/>
      <point x="59" y="214.034" type="line"/>
      <point x="80" y="214.034" type="line"/>
      <point x="80" y="163.228"/>
      <point x="102.305" y="127.333"/>
      <point x="157.234" y="127.333" type="curve" smooth="yes"/>
      <point x="494.429" y="127.333" type="line" smooth="yes"/>
      <point x="544.026" y="127.333"/>
      <point x="565" y="168.516"/>
      <point x="565" y="213.374" type="curve"/>
      <point x="585.667" y="213.374" type="line"/>
      <point x="585.667" y="0" type="line"/>
    </contour>
    <contour>
      <point x="59" y="456.333" type="line"/>
      <point x="59" y="669.333" type="line"/>
      <point x="585.667" y="669.333" type="line"/>
      <point x="585.667" y="456.333" type="line"/>
      <point x="565" y="456.333" type="line"/>
      <point x="565" y="506.667"/>
      <point x="544.694" y="543.333"/>
      <point x="490.096" y="543.333" type="curve" smooth="yes"/>
      <point x="156.234" y="543.333" type="line" smooth="yes"/>
      <point x="98.9699" y="543.333"/>
      <point x="82.6667" y="507.667"/>
      <point x="80" y="456.333" type="curve"/>
    </contour>
    <contour>
      <point x="160.561" y="213.883" type="line"/>
      <point x="160.561" y="455.667" type="line"/>
      <point x="180.53" y="455.667" type="line"/>
      <point x="180.53" y="421.333"/>
      <point x="196.844" y="393.667"/>
      <point x="234.127" y="393.667" type="curve" smooth="yes"/>
      <point x="411.541" y="393.667" type="line" smooth="yes"/>
      <point x="445.771" y="393.667"/>
      <point x="465.092" y="422.804"/>
      <point x="465.138" y="455.667" type="curve"/>
      <point x="485.107" y="455.667" type="line"/>
      <point x="485.107" y="213.883" type="line"/>
      <point x="465.138" y="213.883" type="line"/>
      <point x="465.138" y="247.092"/>
      <point x="448.493" y="277.667"/>
      <point x="411.541" y="277.667" type="curve" smooth="yes"/>
      <point x="234.127" y="277.667" type="line" smooth="yes"/>
      <point x="197.349" y="277.667"/>
      <point x="180.53" y="246.853"/>
      <point x="180.53" y="213.883" type="curve"/>
    </contour>
  </outline>
</glyph>
<glyph name="Upsilon" format="2">
  <advance width="705"/>
  <unicode hex="03A5"/>
  <anchor x="29" y="620" name="tonos"/>
  <outline>
    <contour>
      <point x="179" y="0" type="line"/>
      <point x="179" y="18" type="line"/>
      <point x="226.333" y="18"/>
      <point x="269" y="23.6667"/>
      <point x="269" y="82" type="curve" smooth="yes"/>
      <point x="269" y="329.333" type="line" smooth="yes"/>
      <point x="269" y="537.673"/>
      <point x="189.986" y="636.995"/>
      <point x="22.6667" y="640.333" type="curve"/>
      <point x="27" y="669" type="line"/>
      <point x="218.074" y="669"/>
      <point x="336.832" y="580.526"/>
      <point x="365" y="419" type="curve"/>
      <point x="380.323" y="563.081"/>
      <point x="480.135" y="681.667"/>
      <point x="583.895" y="681.667" type="curve" smooth="yes"/>
      <point x="642.977" y="681.667"/>
      <point x="687.425" y="643.38"/>
      <point x="688.667" y="595" type="curve"/>
      <point x="656" y="586" type="line"/>
      <point x="656" y="611.361"/>
      <point x="633.182" y="642.333"/>
      <point x="587.647" y="642.333" type="curve" smooth="yes"/>
      <point x="491.154" y="642.333"/>
      <point x="413" y="503.505"/>
      <point x="413" y="329.667" type="curve" smooth="yes"/>
      <point x="413" y="82" type="line" smooth="yes"/>
      <point x="413" y="24"/>
      <point x="456.333" y="18"/>
      <point x="503.333" y="18" type="curve"/>
      <point x="503.333" y="0" type="line"/>
    </contour>
  </outline>
</glyph>
<glyph name="Phi" format="2">
  <advance width="789"/>
  <unicode hex="03A6"/>
  <outline>
    <contour>
      <point x="24.3333" y="342.667" type="curve" smooth="yes"/>
      <point x="24.3333" y="494"/>
      <point x="186.333" y="559.333"/>
      <point x="315.333" y="559.333" type="curve"/>
      <point x="316.685" y="560.28"/>
      <point x="317.694" y="561.22"/>
      <point x="319.027" y="561.819" type="curve"/>
      <point x="319.027" y="614.637"/>
      <point x="298.912" y="648.346"/>
      <point x="243.11" y="648.346" type="curve"/>
      <point x="241.973" y="648.346"/>
      <point x="238.825" y="648.342"/>
      <point x="237.667" y="648.333" type="curve"/>
      <point x="237.667" y="669.333" type="line"/>
      <point x="550.333" y="669.333" type="line"/>
      <point x="550.333" y="648.333" type="line"/>
      <point x="548.506" y="648.675"/>
      <point x="546.35" y="649.013"/>
      <point x="544.532" y="649.013" type="curve"/>
      <point x="485.023" y="649.013"/>
      <point x="468.897" y="615.829"/>
      <point x="466.897" y="564.239" type="curve"/>
      <point x="468.23" y="562.851"/>
      <point x="469.932" y="561.103"/>
      <point x="471.333" y="559.333" type="curve"/>
      <point x="600.333" y="559.333"/>
      <point x="763.667" y="495.333"/>
      <point x="763.667" y="344.667" type="curve" smooth="yes"/>
      <point x="763.667" y="183.087"/>
      <point x="613.874" y="123"/>
      <point x="474.667" y="118.333" type="curve"/>
      <point x="472" y="117.179"/>
      <point x="469.333" y="113.02"/>
      <point x="467" y="112.333" type="curve"/>
      <point x="466.977" y="110.393"/>
      <point x="466.965" y="106.649"/>
      <point x="466.965" y="104.768" type="curve"/>
      <point x="466.965" y="51.4714"/>
      <point x="486.516" y="20.3181"/>
      <point x="544.051" y="20.3181" type="curve"/>
      <point x="545.187" y="20.3181"/>
      <point x="547.837" y="20.3232"/>
      <point x="549" y="20.3333" type="curve"/>
      <point x="549" y="0" type="line"/>
      <point x="236.333" y="0" type="line"/>
      <point x="236.333" y="20.3333" type="line"/>
      <point x="237.44" y="20.267"/>
      <point x="239.868" y="20.0397"/>
      <point x="240.949" y="19.9848" type="curve"/>
      <point x="302.484" y="19.9848"/>
      <point x="319.368" y="51.8047"/>
      <point x="319.368" y="106.768" type="curve"/>
      <point x="319.313" y="108.321"/>
      <point x="319.079" y="110.731"/>
      <point x="319" y="112.333" type="curve"/>
      <point x="317.333" y="113.208"/>
      <point x="316" y="117.482"/>
      <point x="314.333" y="118.667" type="curve"/>
      <point x="175.333" y="123.333"/>
      <point x="24.3333" y="180.333"/>
    </contour>
    <contour>
      <point x="176" y="330" type="curve" smooth="yes"/>
      <point x="176" y="237.333"/>
      <point x="212.333" y="146.667"/>
      <point x="318.667" y="146.667" type="curve"/>
      <point x="318.667" y="529.333" type="line"/>
      <point x="206.333" y="529.333"/>
      <point x="176" y="424.333"/>
    </contour>
    <contour>
      <point x="466.667" y="146.667" type="line"/>
      <point x="570.667" y="146.667"/>
      <point x="610.667" y="237.333"/>
      <point x="610.667" y="329.333" type="curve" smooth="yes"/>
      <point x="610.667" y="422.333"/>
      <point x="577.333" y="529.333"/>
      <point x="466.667" y="529.333" type="curve"/>
    </contour>
  </outline>
</glyph>
<glyph name="gamma" format="2">
  <advance width="527"/>
  <unicode hex="03B3"/>
  <outline>
    <contour>
      <point x="24.3333" y="285" type="line"/>
      <point x="24.3333" y="344.333"/>
      <point x="28.3333" y="469.667"/>
      <point x="107.424" y="469.667" type="curve" smooth="yes"/>
      <point x="228" y="469.667"/>
      <point x="276.389" y="176.674"/>
      <point x="288" y="86.6667" type="curve"/>
      <point x="290" y="86.6667" type="line"/>
      <point x="326" y="135.467"/>
      <point x="374.667" y="212.333"/>
      <point x="374.667" y="284.602" type="curve" smooth="yes"/>
      <point x="374.667" y="303.241"/>
      <point x="371.473" y="323.531"/>
      <point x="367.897" y="343.623" type="curve"/>
      <point x="365.36" y="355.32"/>
      <point x="364" y="371.68"/>
      <point x="364" y="383.24" type="curve" smooth="yes"/>
      <point x="364" y="431.333"/>
      <point x="388.814" y="469.667"/>
      <point x="436.949" y="469.667" type="curve" smooth="yes"/>
      <point x="477.076" y="469.667"/>
      <point x="502.333" y="442.667"/>
      <point x="502.333" y="394.667" type="curve" smooth="yes"/>
      <point x="502.333" y="301.667"/>
      <point x="379.609" y="135"/>
      <point x="296.333" y="46" type="curve"/>
      <point x="315.156" y="-22.9951"/>
      <point x="324.667" y="-84.0163"/>
      <point x="324.667" y="-130.167" type="curve" smooth="yes"/>
      <point x="324.667" y="-174.667"/>
      <point x="305.333" y="-214"/>
      <point x="259.827" y="-214" type="curve" smooth="yes"/>
      <point x="210.84" y="-214"/>
      <point x="193" y="-168.667"/>
      <point x="193" y="-128" type="curve" smooth="yes"/>
      <point x="193" y="-55.9713"/>
      <point x="232.374" y="5.43463"/>
      <point x="265.667" y="52.3333" type="curve"/>
      <point x="255.667" y="126.333"/>
      <point x="195.667" y="348.333"/>
      <point x="102.553" y="348.333" type="curve" smooth="yes"/>
      <point x="66" y="348.333"/>
      <point x="53.3333" y="314.333"/>
      <point x="53.3333" y="285" type="curve"/>
    </contour>
  </outline>
</glyph>
<glyph name="delta" format="2">
  <advance width="529"/>
  <unicode hex="03B4"/>
  <outline>
    <contour>
      <point x="33.6667" y="227.295" type="curve" smooth="yes"/>
      <point x="33.6667" y="356.472"/>
      <point x="134.149" y="446.268"/>
      <point x="228.451" y="445.746" type="curve" smooth="yes"/>
      <point x="238.28" y="445.694"/>
      <point x="251.881" y="444.651"/>
      <point x="259.667" y="442" type="curve"/>
      <point x="261.667" y="444" type="line"/>
      <point x="233.333" y="465.667"/>
      <point x="135" y="547.333"/>
      <point x="135" y="608" type="curve" smooth="yes"/>
      <point x="135" y="705.333"/>
      <point x="223" y="720.667"/>
      <point x="294" y="720.667" type="curve" smooth="yes"/>
      <point x="378.667" y="720.667"/>
      <point x="429.667" y="664.333"/>
      <point x="446.667" y="610" type="curve"/>
      <point x="416.333" y="597.667" type="line"/>
      <point x="402" y="647.333"/>
      <point x="357.667" y="689.333"/>
      <point x="306.566" y="689.333" type="curve" smooth="yes"/>
      <point x="279.667" y="689.333"/>
      <point x="253" y="677.333"/>
      <point x="253" y="640.648" type="curve" smooth="yes"/>
      <point x="253" y="590.404"/>
      <point x="302.871" y="543.796"/>
      <point x="358.097" y="493.668" type="curve" smooth="yes"/>
      <point x="442.369" y="417.566"/>
      <point x="497.165" y="342.114"/>
      <point x="497.165" y="222.26" type="curve" smooth="yes"/>
      <point x="497.165" y="104"/>
      <point x="417.667" y="-12"/>
      <point x="274.198" y="-12" type="curve" smooth="yes"/>
      <point x="132.067" y="-12"/>
      <point x="33.6667" y="82"/>
    </contour>
    <contour>
      <point x="162.333" y="241.717" type="curve" smooth="yes"/>
      <point x="162.333" y="79.3333"/>
      <point x="214.667" y="16"/>
      <point x="284.192" y="16" type="curve" smooth="yes"/>
      <point x="352" y="16"/>
      <point x="393.333" y="74"/>
      <point x="393.333" y="178.667" type="curve" smooth="yes"/>
      <point x="393.333" y="249.436"/>
      <point x="350.396" y="415.333"/>
      <point x="251.971" y="415.333" type="curve" smooth="yes"/>
      <point x="201.667" y="415.333"/>
      <point x="162.333" y="371.943"/>
    </contour>
  </outline>
</glyph>
<glyph name="epsilon" format="2">
  <advance width="441"/>
  <unicode hex="03B5"/>
  <anchor x="217" y="520" name="tonos_top"/>
  <outline>
    <contour>
      <point x="37.6667" y="120.998" type="curve" smooth="yes"/>
      <point x="37.6667" y="199.667"/>
      <point x="100" y="236"/>
      <point x="165" y="245.667" type="curve"/>
      <point x="165" y="247" type="line"/>
      <point x="108.333" y="250"/>
      <point x="46.6667" y="284.333"/>
      <point x="46.6667" y="351.604" type="curve" smooth="yes"/>
      <point x="46.6667" y="438"/>
      <point x="148.333" y="469.667"/>
      <point x="225.121" y="469.667" type="curve" smooth="yes"/>
      <point x="274.333" y="469.667"/>
      <point x="397.667" y="456.667"/>
      <point x="397.667" y="388.566" type="curve" smooth="yes"/>
      <point x="397.667" y="364.333"/>
      <point x="382" y="342.333"/>
      <point x="351.068" y="342.333" type="curve" smooth="yes"/>
      <point x="319.862" y="342.333"/>
      <point x="308.841" y="364.762"/>
      <point x="298.786" y="387.888" type="curve" smooth="yes"/>
      <point x="287.801" y="412.876"/>
      <point x="275.148" y="438.333"/>
      <point x="236.936" y="438.333" type="curve" smooth="yes"/>
      <point x="185" y="438.333"/>
      <point x="173.333" y="390.667"/>
      <point x="173.333" y="348.173" type="curve" smooth="yes"/>
      <point x="173.333" y="311"/>
      <point x="183.333" y="263.333"/>
      <point x="228.084" y="263.333" type="curve" smooth="yes"/>
      <point x="254.761" y="263.333"/>
      <point x="275.515" y="280.667"/>
      <point x="300" y="280.667" type="curve" smooth="yes"/>
      <point x="321" y="280.667"/>
      <point x="336.333" y="268"/>
      <point x="336.333" y="246.333" type="curve" smooth="yes"/>
      <point x="336.333" y="223.667"/>
      <point x="320.333" y="213.333"/>
      <point x="299.699" y="213.333" type="curve" smooth="yes"/>
      <point x="273.924" y="213.333"/>
      <point x="251.92" y="229.333"/>
      <point x="227.148" y="229.333" type="curve" smooth="yes"/>
      <point x="180.667" y="229.333"/>
      <point x="166.333" y="169"/>
      <point x="166.333" y="132.398" type="curve" smooth="yes"/>
      <point x="166.333" y="67.6667"/>
      <point x="202.333" y="30.6667"/>
      <point x="264.446" y="30.6667" type="curve" smooth="yes"/>
      <point x="326.333" y="30.6667"/>
      <point x="370.667" y="67.6667"/>
      <point x="393.333" y="119" type="curve"/>
      <point x="420.333" y="104.667" type="line"/>
      <point x="374.333" y="14.6667"/>
      <point x="310" y="-12"/>
      <point x="212.333" y="-12" type="curve" smooth="yes"/>
      <point x="125.667" y="-12"/>
      <point x="37.6667" y="27.6667"/>
    </contour>
  </outline>
</glyph>
<glyph name="iota" format="2">
  <advance width="309"/>
  <unicode hex="03B9"/>
  <anchor x="119.667" y="520" name="tonos_top"/>
  <outline>
    <contour>
      <point x="62.6667" y="105" type="curve" smooth="yes"/>
      <point x="62.6667" y="457.333" type="line"/>
      <point x="183.333" y="457.333" type="line"/>
      <point x="183.333" y="75.6667" type="line" smooth="yes"/>
      <point x="183.333" y="47"/>
      <point x="201.667" y="38.3333"/>
      <point x="222.667" y="38.3333" type="curve" smooth="yes"/>
      <point x="270.903" y="38.3333"/>
      <point x="273" y="111.904"/>
      <point x="273" y="147" type="curve"/>
      <point x="300.333" y="147" type="line"/>
      <point x="299.242" y="58.487"/>
      <point x="270.205" y="-12.3333"/>
      <point x="172" y="-12.3333" type="curve" smooth="yes"/>
      <point x="101" y="-12.3333"/>
      <point x="62.6667" y="37.3333"/>
    </contour>
  </outline>
</glyph>
<glyph name="kappa" format="2">
  <advance width="587"/>
  <unicode hex="03BA"/>
  <outline>
    <contour>
      <point x="18" y="420" type="curve"/>
      <point x="18" y="443.667" type="line"/>
      <point x="80.3333" y="447.667"/>
      <point x="141.667" y="459.333"/>
      <point x="200" y="481" type="curve"/>
      <point x="200" y="273" type="line"/>
      <point x="368.667" y="439"/>
      <point x="428.667" y="483.667"/>
      <point x="485" y="483.667" type="curve" smooth="yes"/>
      <point x="517" y="483.667"/>
      <point x="547.333" y="461.667"/>
      <point x="547.333" y="427.667" type="curve" smooth="yes"/>
      <point x="547.333" y="395.333"/>
      <point x="522.333" y="371.667"/>
      <point x="490.333" y="371.667" type="curve" smooth="yes"/>
      <point x="450.667" y="371.667"/>
      <point x="440" y="407.333"/>
      <point x="410.667" y="407.333" type="curve" smooth="yes"/>
      <point x="374.667" y="407.333"/>
      <point x="305" y="329.667"/>
      <point x="279" y="303.667" type="curve"/>
      <point x="458.667" y="78" type="line" smooth="yes"/>
      <point x="489.667" y="39"/>
      <point x="506.667" y="17"/>
      <point x="560.667" y="17" type="curve"/>
      <point x="560.667" y="0" type="line"/>
      <point x="290" y="0" type="line"/>
      <point x="290" y="17" type="line"/>
      <point x="302" y="17"/>
      <point x="334" y="17"/>
      <point x="334" y="35" type="curve" smooth="yes"/>
      <point x="334" y="50.3333"/>
      <point x="218.667" y="185"/>
      <point x="200" y="207.333" type="curve"/>
      <point x="200" y="0" type="line"/>
      <point x="72.6667" y="0" type="line"/>
      <point x="73.3333" y="359.667" type="line"/>
      <point x="73.3333" y="399.667"/>
      <point x="60.6667" y="420"/>
    </contour>
  </outline>
</glyph>
<glyph name="lambda" format="2">
  <advance width="492"/>
  <unicode hex="03BB"/>
  <outline>
    <contour>
      <point x="16.6667" y="0" type="line"/>
      <point x="219.333" y="496.667" type="line"/>
      <point x="206.063" y="552.106"/>
      <point x="186.592" y="618"/>
      <point x="137.207" y="618" type="curve" smooth="yes"/>
      <point x="100" y="618"/>
      <point x="80" y="581"/>
      <point x="75" y="545.667" type="curve"/>
      <point x="49.3333" y="545.667" type="line"/>
      <point x="49.3333" y="604.101"/>
      <point x="65.8501" y="707"/>
      <point x="143" y="707" type="curve" smooth="yes"/>
      <point x="194.333" y="707"/>
      <point x="231" y="585.333"/>
      <point x="244.333" y="534" type="curve" smooth="yes"/>
      <point x="342.333" y="162.667" type="line" smooth="yes"/>
      <point x="350.333" y="130.667"/>
      <point x="364" y="79"/>
      <point x="402.449" y="79" type="curve" smooth="yes"/>
      <point x="439.333" y="79"/>
      <point x="453" y="125"/>
      <point x="453.333" y="153.333" type="curve"/>
      <point x="479.333" y="153.333" type="line"/>
      <point x="479.333" y="132" type="line" smooth="yes"/>
      <point x="479.333" y="80"/>
      <point x="470" y="-12"/>
      <point x="404.624" y="-12" type="curve" smooth="yes"/>
      <point x="350.333" y="-12"/>
      <point x="334" y="50"/>
      <point x="324" y="89.3333" type="curve" smooth="yes"/>
      <point x="268.667" y="306" type="line"/>
      <point x="266.667" y="306" type="line"/>
      <point x="147.667" y="0" type="line"/>
    </contour>
  </outline>
</glyph>
<glyph name="sigma1" format="2">
  <advance width="426"/>
  <unicode hex="03C2"/>
  <outline>
    <contour>
      <point x="38" y="213.667" type="curve" smooth="yes"/>
      <point x="38" y="347.314"/>
      <point x="136" y="469"/>
      <point x="277.12" y="469" type="curve" smooth="yes"/>
      <point x="357.667" y="469"/>
      <point x="404.667" y="429.05"/>
      <point x="404.667" y="368.284" type="curve" smooth="yes"/>
      <point x="404.667" y="331.594"/>
      <point x="388" y="301.667"/>
      <point x="348.458" y="301.667" type="curve" smooth="yes"/>
      <point x="306.333" y="301.667"/>
      <point x="291.333" y="335.73"/>
      <point x="291.333" y="360.304" type="curve" smooth="yes"/>
      <point x="291.333" y="377.527"/>
      <point x="298.893" y="391.516"/>
      <point x="298.899" y="403.587" type="curve" smooth="yes"/>
      <point x="298.906" y="426.277"/>
      <point x="275.578" y="434.333"/>
      <point x="245.667" y="434.333" type="curve" smooth="yes"/>
      <point x="158" y="434.333"/>
      <point x="92.6667" y="336.63"/>
      <point x="92.6667" y="253.833" type="curve" smooth="yes"/>
      <point x="92.6667" y="145.663"/>
      <point x="174.174" y="127.165"/>
      <point x="249.51" y="116.71" type="curve" smooth="yes"/>
      <point x="356.505" y="101.628"/>
      <point x="406.667" y="62.5866"/>
      <point x="406.667" y="-36.8509" type="curve" smooth="yes"/>
      <point x="406.667" y="-134.333"/>
      <point x="336.667" y="-188.333"/>
      <point x="236.273" y="-188.333" type="curve" smooth="yes"/>
      <point x="170" y="-188.333"/>
      <point x="118.667" y="-158.333"/>
      <point x="118.667" y="-117.835" type="curve" smooth="yes"/>
      <point x="118.667" y="-92.3333"/>
      <point x="138.333" y="-72.6667"/>
      <point x="165.429" y="-72.6667" type="curve" smooth="yes"/>
      <point x="218.388" y="-72.6667"/>
      <point x="211.327" y="-146.333"/>
      <point x="286.223" y="-146.333" type="curve" smooth="yes"/>
      <point x="334.333" y="-146.333"/>
      <point x="369.333" y="-117"/>
      <point x="369.333" y="-72.637" type="curve" smooth="yes"/>
      <point x="369.333" y="-16.8584"/>
      <point x="314.271" y="-13.2096"/>
      <point x="230.293" y="-2.81381" type="curve" smooth="yes"/>
      <point x="104.013" y="12.5008"/>
      <point x="38" y="60.5166"/>
    </contour>
  </outline>
</glyph>
<glyph name="sigma" format="2">
  <advance width="547"/>
  <unicode hex="03C3"/>
  <outline>
    <contour>
      <point x="35.6667" y="227.333" type="curve" smooth="yes"/>
      <point x="35.6667" y="364.333"/>
      <point x="133" y="469"/>
      <point x="271.667" y="469" type="curve" smooth="yes"/>
      <point x="335.333" y="469"/>
      <point x="383.333" y="455.667"/>
      <point x="451.667" y="455.667" type="curve" smooth="yes"/>
      <point x="480.667" y="455.667"/>
      <point x="511" y="462"/>
      <point x="513.333" y="491" type="curve"/>
      <point x="536.333" y="491" type="line"/>
      <point x="534.333" y="431.333"/>
      <point x="511.667" y="386"/>
      <point x="465.333" y="386" type="curve" smooth="yes"/>
      <point x="439" y="386"/>
      <point x="412.667" y="391"/>
      <point x="389" y="399" type="curve"/>
      <point x="386.333" y="396.333" type="line"/>
      <point x="434.333" y="365.667"/>
      <point x="483" y="302"/>
      <point x="483" y="216.667" type="curve" smooth="yes"/>
      <point x="483" y="86.6667"/>
      <point x="389.667" y="-12.6667"/>
      <point x="260.667" y="-12.6667" type="curve" smooth="yes"/>
      <point x="118.667" y="-12.6667"/>
      <point x="35.6667" y="90.3333"/>
    </contour>
    <contour>
      <point x="164.333" y="259.667" type="curve" smooth="yes"/>
      <point x="164.333" y="150.333"/>
      <point x="186.667" y="16.3333"/>
      <point x="271.333" y="16.3333" type="curve" smooth="yes"/>
      <point x="341" y="16.3333"/>
      <point x="354.333" y="89.3333"/>
      <point x="354.333" y="175.333" type="curve" smooth="yes"/>
      <point x="354.333" y="278.667"/>
      <point x="339.667" y="421.333"/>
      <point x="246.667" y="421.333" type="curve" smooth="yes"/>
      <point x="188.333" y="421.333"/>
      <point x="164.333" y="350.667"/>
    </contour>
  </outline>
</glyph>
<glyph name="omega" format="2">
  <advance width="708"/>
  <unicode hex="03C9"/>
  <anchor x="346.667" y="520" name="tonos_top"/>
  <outline>
    <contour>
      <point x="36.3333" y="233.346" type="curve" smooth="yes"/>
      <point x="36.3333" y="357"/>
      <point x="93.3333" y="469.333"/>
      <point x="203.367" y="469.333" type="curve" smooth="yes"/>
      <point x="251.056" y="469.333"/>
      <point x="284.014" y="457"/>
      <point x="302.072" y="419.667" type="curve"/>
      <point x="281.691" y="397.667" type="line"/>
      <point x="274.042" y="411.333"/>
      <point x="262.074" y="430"/>
      <point x="231.602" y="430" type="curve" smooth="yes"/>
      <point x="169.311" y="430"/>
      <point x="165.595" y="352.333"/>
      <point x="165.667" y="288.667" type="curve" smooth="yes"/>
      <point x="165.673" y="180.134" type="line" smooth="yes"/>
      <point x="165.725" y="127.307"/>
      <point x="173.549" y="21"/>
      <point x="241.217" y="21" type="curve" smooth="yes"/>
      <point x="307.029" y="21"/>
      <point x="322.333" y="87.3333"/>
      <point x="322.333" y="137.768" type="curve" smooth="yes"/>
      <point x="322.333" y="171.824"/>
      <point x="315.176" y="205.967"/>
      <point x="306.457" y="240.397" type="curve" smooth="yes"/>
      <point x="299.728" y="266.972"/>
      <point x="293" y="295.133"/>
      <point x="293" y="320.687" type="curve" smooth="yes"/>
      <point x="293" y="364.667"/>
      <point x="312.507" y="389.667"/>
      <point x="354.939" y="389.667" type="curve" smooth="yes"/>
      <point x="396.333" y="389.667"/>
      <point x="415.667" y="365.667"/>
      <point x="415.667" y="320.89" type="curve" smooth="yes"/>
      <point x="415.667" y="296.121"/>
      <point x="409.726" y="268.877"/>
      <point x="402.665" y="240.189" type="curve" smooth="yes"/>
      <point x="394.219" y="205.855"/>
      <point x="387" y="170.131"/>
      <point x="387" y="134.977" type="curve" smooth="yes"/>
      <point x="387" y="87.3333"/>
      <point x="400" y="21"/>
      <point x="466.477" y="21" type="curve" smooth="yes"/>
      <point x="535.333" y="21"/>
      <point x="542" y="127.333"/>
      <point x="542" y="180" type="curve" smooth="yes"/>
      <point x="542" y="288.667" type="line" smooth="yes"/>
      <point x="542" y="352.333"/>
      <point x="537" y="429.333"/>
      <point x="474.55" y="429.333" type="curve" smooth="yes"/>
      <point x="444" y="429.333"/>
      <point x="432" y="410.667"/>
      <point x="424.333" y="397" type="curve"/>
      <point x="404" y="419" type="line"/>
      <point x="422" y="456.667"/>
      <point x="455" y="469.333"/>
      <point x="503.036" y="469.333" type="curve" smooth="yes"/>
      <point x="613" y="469.333"/>
      <point x="670" y="357"/>
      <point x="670" y="233.346" type="curve" smooth="yes"/>
      <point x="670" y="127"/>
      <point x="622.333" y="-12.3333"/>
      <point x="485.125" y="-12.3333" type="curve" smooth="yes"/>
      <point x="408" y="-12.3333"/>
      <point x="369.667" y="32.6667"/>
      <point x="354.667" y="109.667" type="curve"/>
      <point x="352.333" y="109.667" type="line"/>
      <point x="337.333" y="33.3333"/>
      <point x="298.673" y="-12.3333"/>
      <point x="221.045" y="-12.3333" type="curve" smooth="yes"/>
      <point x="84" y="-12.3333"/>
      <point x="36.3333" y="127"/>
    </contour>
  </outline>
</glyph>
<glyph name="phi1" format="2">
  <advance width="645"/>
  <unicode hex="03D5"/>
  <outline>
    <contour>
      <point x="38.3333" y="224.667" type="curve" smooth="yes"/>
      <point x="38.3333" y="360.667"/>
      <point x="157.667" y="467"/>
      <point x="283" y="467" type="curve"/>
      <point x="283" y="670.667" type="line"/>
      <point x="365.333" y="670.667" type="line"/>
      <point x="365.333" y="467" type="line"/>
      <point x="490.667" y="467"/>
      <point x="609.333" y="362"/>
      <point x="609.333" y="224.667" type="curve" smooth="yes"/>
      <point x="609.333" y="49.3333"/>
      <point x="441.333" y="-11.3333"/>
      <point x="365.333" y="-11.3333" type="curve"/>
      <point x="365.333" y="-208" type="line"/>
      <point x="283" y="-208" type="line"/>
      <point x="283" y="-11.3333" type="line"/>
      <point x="207" y="-11.3333"/>
      <point x="38.3333" y="49.3333"/>
    </contour>
    <contour>
      <point x="164.667" y="229.333" type="curve" smooth="yes"/>
      <point x="164.667" y="73.3333"/>
      <point x="237.667" y="18.3333"/>
      <point x="283" y="18.3333" type="curve"/>
      <point x="283" y="438.667" type="line"/>
      <point x="237.667" y="438.667"/>
      <point x="164.667" y="388"/>
    </contour>
    <contour>
      <point x="365.333" y="18.3333" type="line"/>
      <point x="410.667" y="18.3333"/>
      <point x="483.333" y="73.3333"/>
      <point x="483.333" y="229.333" type="curve" smooth="yes"/>
      <point x="483.333" y="388"/>
      <point x="410.667" y="438.667"/>
      <point x="365.333" y="438.667" type="curve"/>
    </contour>
  </outline>
</glyph>
<glyph name="uni03D8" format="2">
  <advance width="556"/>
  <unicode hex="03D8"/>
  <outline>
    <contour>
      <point x="16" y="482" type="curve" smooth="yes"/>
      <point x="16" y="622"/>
      <point x="163" y="662"/>
      <point x="278" y="662" type="curve" smooth="yes"/>
      <point x="542" y="662" type="line"/>
      <point x="542" y="643" type="line"/>
      <point x="471" y="637"/>
      <point x="458" y="624"/>
      <point x="458" y="553" type="curve" smooth="yes"/>
      <point x="458" y="120" type="line" smooth="yes"/>
      <point x="458" y="46"/>
      <point x="461" y="24"/>
      <point x="542" y="19" type="curve"/>
      <point x="542" y="0" type="line"/>
      <point x="262" y="0" type="line"/>
      <point x="262" y="19" type="line"/>
      <point x="335" y="21"/>
      <point x="356" y="33"/>
      <point x="356" y="109" type="curve" smooth="yes"/>
      <point x="356" y="291" type="line"/>
      <point x="334" y="289"/>
      <point x="311" y="288"/>
      <point x="289" y="288" type="curve" smooth="yes"/>
      <point x="163" y="288"/>
      <point x="16" y="327"/>
    </contour>
    <contour>
      <point x="125" y="480" type="curve" smooth="yes"/>
      <point x="125" y="370"/>
      <point x="193" y="328"/>
      <point x="296" y="328" type="curve" smooth="yes"/>
      <point x="316" y="328"/>
      <point x="336" y="329"/>
      <point x="356" y="331" type="curve"/>
      <point x="356" y="591" type="line" smooth="yes"/>
      <point x="356" y="624"/>
      <point x="344" y="625"/>
      <point x="315" y="625" type="curve" smooth="yes"/>
      <point x="217" y="625"/>
      <point x="125" y="594"/>
    </contour>
  </outline>
</glyph>
<glyph name="uni03F6" format="2">
  <advance width="485"/>
  <unicode hex="03F6"/>
  <outline>
    <contour>
      <point x="41" y="76" type="curve"/>
      <point x="67" y="91" type="line"/>
      <point x="108" y="38"/>
      <point x="141" y="19"/>
      <point x="209" y="19" type="curve" smooth="yes"/>
      <point x="310" y="19"/>
      <point x="321" y="137"/>
      <point x="322" y="218" type="curve"/>
      <point x="109" y="218" type="line"/>
      <point x="109" y="250" type="line"/>
      <point x="322" y="250" type="line"/>
      <point x="321" y="329"/>
      <point x="306" y="432"/>
      <point x="206" y="432" type="curve" smooth="yes"/>
      <point x="139" y="432"/>
      <point x="107" y="412"/>
      <point x="67" y="360" type="curve"/>
      <point x="41" y="375" type="line"/>
      <point x="80" y="430"/>
      <point x="134" y="461"/>
      <point x="202" y="461" type="curve" smooth="yes"/>
      <point x="342" y="461"/>
      <point x="432" y="359"/>
      <point x="432" y="222" type="curve" smooth="yes"/>
      <point x="432" y="93"/>
      <point x="341" y="-10"/>
      <point x="209" y="-10" type="curve" smooth="yes"/>
      <point x="142" y="-10"/>
      <point x="80" y="21"/>
    </contour>
  </outline>
</glyph>
<glyph name="uni03F9" format="2">
  <advance width="704"/>
  <unicode hex="03F9"/>
  <outline>
    <contour>
      <point x="42" y="337" type="curve" smooth="yes"/>
      <point x="42" y="543.333"/>
      <point x="189.667" y="686"/>
      <point x="394.667" y="686" type="curve" smooth="yes"/>
      <point x="506.667" y="686"/>
      <point x="600" y="632.333"/>
      <point x="669" y="546.333" type="curve"/>
      <point x="643" y="523.667" type="line"/>
      <point x="579.667" y="591"/>
      <point x="502" y="640.667"/>
      <point x="406.333" y="640.667" type="curve" smooth="yes"/>
      <point x="239" y="640.667"/>
      <point x="198.667" y="468.667"/>
      <point x="198.667" y="333.667" type="curve" smooth="yes"/>
      <point x="198.667" y="195.667"/>
      <point x="243" y="29.3333"/>
      <point x="410.333" y="29.3333" type="curve" smooth="yes"/>
      <point x="506" y="29.3333"/>
      <point x="579.667" y="77.3333"/>
      <point x="643" y="145" type="curve"/>
      <point x="669" y="122.333" type="line"/>
      <point x="599.667" y="36"/>
      <point x="505.333" y="-17.3333"/>
      <point x="392.667" y="-17.3333" type="curve" smooth="yes"/>
      <point x="184.667" y="-17.3333"/>
      <point x="42" y="130.333"/>
    </contour>
  </outline>
</glyph>
<glyph name="uni03FA" format="2">
  <advance width="925"/>
  <unicode hex="03FA"/>
  <outline>
    <contour>
      <point x="14.6667" y="0" type="line"/>
      <point x="14.6667" y="23" type="line"/>
      <point x="94.3333" y="30.3333"/>
      <point x="107.667" y="44.6667"/>
      <point x="107.667" y="119" type="curve" smooth="yes"/>
      <point x="107.667" y="571" type="line" smooth="yes"/>
      <point x="107.667" y="630"/>
      <point x="92.6667" y="642.667"/>
      <point x="16.6667" y="648.333" type="curve"/>
      <point x="16.6667" y="671.333" type="line"/>
      <point x="251.333" y="671.333" type="line"/>
      <point x="461.667" y="345.333" type="line"/>
      <point x="668.667" y="671.333" type="line"/>
      <point x="903" y="671.333" type="line"/>
      <point x="903" y="648.333" type="line"/>
      <point x="829.667" y="643"/>
      <point x="815.333" y="628.667"/>
      <point x="815.333" y="557" type="curve" smooth="yes"/>
      <point x="815.333" y="114.333" type="line" smooth="yes"/>
      <point x="815.333" y="43.3333"/>
      <point x="826.667" y="31.3333"/>
      <point x="903" y="23" type="curve"/>
      <point x="903" y="0" type="line"/>
      <point x="588.333" y="0" type="line"/>
      <point x="588.333" y="23" type="line"/>
      <point x="664.667" y="29.3333"/>
      <point x="678" y="41.6667"/>
      <point x="678" y="106.667" type="curve" smooth="yes"/>
      <point x="678" y="607" type="line"/>
      <point x="424.667" y="200" type="line"/>
      <point x="402" y="200" type="line"/>
      <point x="150.333" y="584" type="line"/>
      <point x="150.333" y="131.667" type="line" smooth="yes"/>
      <point x="150.333" y="48.6667"/>
      <point x="168.667" y="28.3333"/>
      <point x="249" y="23" type="curve"/>
      <point x="249" y="0" type="line"/>
    </contour>
  </outline>
</glyph>
<glyph name="uni03FB" format="2">
  <advance width="776"/>
  <unicode hex="03FB"/>
  <outline>
    <contour>
      <point x="57.6667" y="-208" type="line"/>
      <point x="57.6667" y="316" type="line" smooth="yes"/>
      <point x="57.6667" y="371.333"/>
      <point x="94" y="469.667"/>
      <point x="219.667" y="469.667" type="curve" smooth="yes"/>
      <point x="298.667" y="469.667"/>
      <point x="330.667" y="424"/>
      <point x="345.667" y="347.667" type="curve"/>
      <point x="348" y="347.667" type="line"/>
      <point x="363" y="424.667"/>
      <point x="398.333" y="469.667"/>
      <point x="479.667" y="469.667" type="curve" smooth="yes"/>
      <point x="606.667" y="469.667"/>
      <point x="641" y="385.333"/>
      <point x="641" y="316" type="curve" smooth="yes"/>
      <point x="641" y="87.3333" type="line" smooth="yes"/>
      <point x="641" y="65"/>
      <point x="642.333" y="35.6667"/>
      <point x="670.333" y="35.6667" type="curve" smooth="yes"/>
      <point x="715" y="35.6667"/>
      <point x="719.667" y="121"/>
      <point x="721" y="152.333" type="curve"/>
      <point x="751.667" y="152.333" type="line"/>
      <point x="747.667" y="66.3333"/>
      <point x="732" y="-11.6667"/>
      <point x="628" y="-11.6667" type="curve" smooth="yes"/>
      <point x="548.667" y="-11.6667"/>
      <point x="520.333" y="48"/>
      <point x="520.333" y="119.333" type="curve" smooth="yes"/>
      <point x="520.333" y="184.4"/>
      <point x="522.333" y="277.505"/>
      <point x="522.333" y="302.333" type="curve" smooth="yes"/>
      <point x="522.333" y="305.215"/>
      <point x="522.363" y="309.064"/>
      <point x="522.363" y="312.75" type="curve" smooth="yes"/>
      <point x="522.363" y="359.163"/>
      <point x="519.895" y="436.667"/>
      <point x="455.333" y="436.667" type="curve" smooth="yes"/>
      <point x="389.667" y="436.667"/>
      <point x="379.667" y="370.333"/>
      <point x="379.667" y="317.667" type="curve" smooth="yes"/>
      <point x="379.667" y="253.333"/>
      <point x="408.333" y="192.333"/>
      <point x="408.333" y="132.667" type="curve" smooth="yes"/>
      <point x="408.333" y="92"/>
      <point x="389" y="68"/>
      <point x="347" y="68" type="curve" smooth="yes"/>
      <point x="305.333" y="68"/>
      <point x="286" y="93"/>
      <point x="286" y="132.667" type="curve" smooth="yes"/>
      <point x="286" y="190.667"/>
      <point x="315" y="252.667"/>
      <point x="315" y="317.667" type="curve" smooth="yes"/>
      <point x="315" y="370.333"/>
      <point x="301.333" y="436.667"/>
      <point x="238" y="436.667" type="curve" smooth="yes"/>
      <point x="179.333" y="436.667"/>
      <point x="178.333" y="351"/>
      <point x="178.333" y="302" type="curve" smooth="yes"/>
      <point x="178.333" y="-208" type="line"/>
    </contour>
  </outline>
</glyph>
<glyph name="uni03FC" format="2">
  <advance width="534"/>
  <unicode hex="03FC"/>
  <outline>
    <contour>
      <point x="-56" y="-129" type="line"/>
      <point x="40" y="-101" type="line"/>
      <point x="40" y="184" type="line" smooth="yes"/>
      <point x="40" y="320"/>
      <point x="110" y="461"/>
      <point x="266" y="461" type="curve" smooth="yes"/>
      <point x="400" y="461"/>
      <point x="481" y="363"/>
      <point x="481" y="233" type="curve" smooth="yes"/>
      <point x="481" y="100"/>
      <point x="400" y="-10"/>
      <point x="260" y="-10" type="curve" smooth="yes"/>
      <point x="216" y="-10"/>
      <point x="103" y="16"/>
      <point x="76" y="136" type="curve"/>
      <point x="76" y="135"/>
      <point x="71" y="136"/>
      <point x="71" y="136" type="curve"/>
      <point x="71" y="47"/>
      <point x="76" y="7"/>
      <point x="94" y="-42" type="curve" smooth="yes"/>
      <point x="99" y="-55"/>
      <point x="105" y="-68"/>
      <point x="111" y="-81" type="curve"/>
      <point x="224" y="-49" type="line"/>
      <point x="224" y="-85" type="line"/>
      <point x="124" y="-114" type="line"/>
      <point x="131" y="-133"/>
      <point x="136" y="-148"/>
      <point x="136" y="-162" type="curve" smooth="yes"/>
      <point x="136" y="-192"/>
      <point x="124" y="-218"/>
      <point x="88" y="-218" type="curve" smooth="yes"/>
      <point x="65" y="-218"/>
      <point x="40" y="-199"/>
      <point x="40" y="-156" type="curve" smooth="yes"/>
      <point x="40" y="-137" type="line"/>
      <point x="-56" y="-165" type="line"/>
    </contour>
    <contour>
      <point x="132" y="239" type="curve" smooth="yes"/>
      <point x="132" y="155"/>
      <point x="171" y="19"/>
      <point x="275" y="19" type="curve" smooth="yes"/>
      <point x="368" y="19"/>
      <point x="389" y="122"/>
      <point x="389" y="196" type="curve" smooth="yes"/>
      <point x="389" y="279"/>
      <point x="365" y="432"/>
      <point x="256" y="432" type="curve" smooth="yes"/>
      <point x="147" y="432"/>
      <point x="132" y="324"/>
    </contour>
  </outline>
</glyph>
<glyph name="uni03FE" format="2">
  <advance width="704"/>
  <unicode hex="03FE"/>
  <outline>
    <contour>
      <point x="42" y="337" type="curve" smooth="yes"/>
      <point x="42" y="543.333"/>
      <point x="189.667" y="686"/>
      <point x="394.667" y="686" type="curve" smooth="yes"/>
      <point x="506.667" y="686"/>
      <point x="600" y="632.333"/>
      <point x="669" y="546.333" type="curve"/>
      <point x="643" y="523.667" type="line"/>
      <point x="579.667" y="591"/>
      <point x="502" y="640.667"/>
      <point x="406.333" y="640.667" type="curve" smooth="yes"/>
      <point x="239" y="640.667"/>
      <point x="198.667" y="468.667"/>
      <point x="198.667" y="333.667" type="curve" smooth="yes"/>
      <point x="198.667" y="195.667"/>
      <point x="243" y="29.3333"/>
      <point x="410.333" y="29.3333" type="curve" smooth="yes"/>
      <point x="506" y="29.3333"/>
      <point x="579.667" y="77.3333"/>
      <point x="643" y="145" type="curve"/>
      <point x="669" y="122.333" type="line"/>
      <point x="599.667" y="36"/>
      <point x="505.333" y="-17.3333"/>
      <point x="392.667" y="-17.3333" type="curve" smooth="yes"/>
      <point x="184.667" y="-17.3333"/>
      <point x="42" y="130.333"/>
    </contour>
    <contour>
      <point x="338" y="336.333" type="curve" smooth="yes"/>
      <point x="338" y="376.667"/>
      <point x="371.667" y="411.333"/>
      <point x="412.333" y="411.333" type="curve" smooth="yes"/>
      <point x="453.667" y="411.333"/>
      <point x="487.667" y="376.667"/>
      <point x="487.667" y="335" type="curve" smooth="yes"/>
      <point x="487.667" y="294.667"/>
      <point x="453.667" y="261.667"/>
      <point x="411.333" y="261.667" type="curve" smooth="yes"/>
      <point x="370.333" y="261.667"/>
      <point x="338" y="294.667"/>
    </contour>
  </outline>
</glyph>
<glyph name="uni03FF" format="2">
  <advance width="704"/>
  <unicode hex="03FF"/>
  <outline>
    <contour>
      <point x="42" y="122.333" type="curve"/>
      <point x="68" y="145" type="line"/>
      <point x="131.333" y="77.3333"/>
      <point x="205" y="29.3333"/>
      <point x="300.667" y="29.3333" type="curve" smooth="yes"/>
      <point x="468" y="29.3333"/>
      <point x="512.333" y="195.667"/>
      <point x="512.333" y="333.667" type="curve" smooth="yes"/>
      <point x="512.333" y="468.667"/>
      <point x="472" y="640.667"/>
      <point x="304.667" y="640.667" type="curve" smooth="yes"/>
      <point x="209" y="640.667"/>
      <point x="131.333" y="591"/>
      <point x="68" y="523.667" type="curve"/>
      <point x="42" y="546.333" type="line"/>
      <point x="111" y="632.333"/>
      <point x="204.333" y="686"/>
      <point x="316.333" y="686" type="curve" smooth="yes"/>
      <point x="521.333" y="686"/>
      <point x="669" y="543.333"/>
      <point x="669" y="337" type="curve" smooth="yes"/>
      <point x="669" y="130.333"/>
      <point x="526.333" y="-17.3333"/>
      <point x="318.333" y="-17.3333" type="curve" smooth="yes"/>
      <point x="205.667" y="-17.3333"/>
      <point x="111.333" y="36"/>
    </contour>
    <contour>
      <point x="225.333" y="336.333" type="curve" smooth="yes"/>
      <point x="225.333" y="376.667"/>
      <point x="259" y="411.333"/>
      <point x="299.667" y="411.333" type="curve" smooth="yes"/>
      <point x="341" y="411.333"/>
      <point x="375" y="376.667"/>
      <point x="375" y="335" type="curve" smooth="yes"/>
      <point x="375" y="294.667"/>
      <point x="341" y="261.667"/>
      <point x="298.667" y="261.667" type="curve" smooth="yes"/>
      <point x="257.667" y="261.667"/>
      <point x="225.333" y="294.667"/>
    </contour>
  </outline>
</glyph>
<glyph name="uni0404" format="2">
  <advance width="702"/>
  <unicode hex="0404"/>
  <outline>
    <contour>
      <point x="43.3333" y="329.667" type="curve" smooth="yes"/>
      <point x="43.3333" y="565.333"/>
      <point x="227" y="685.333"/>
      <point x="387" y="685.333" type="curve" smooth="yes"/>
      <point x="434.667" y="685.333"/>
      <point x="486.333" y="675.333"/>
      <point x="542" y="654" type="curve"/>
      <point x="561.667" y="645.333"/>
      <point x="576.667" y="641.667"/>
      <point x="585.667" y="641.667" type="curve" smooth="yes"/>
      <point x="605" y="641.667"/>
      <point x="617.667" y="653"/>
      <point x="629" y="683.333" type="curve"/>
      <point x="654" y="683.333" type="line"/>
      <point x="654" y="452" type="line"/>
      <point x="629.667" y="452" type="line"/>
      <point x="594.349" y="536.603"/>
      <point x="532.026" y="650"/>
      <point x="402" y="650" type="curve" smooth="yes"/>
      <point x="285.667" y="650"/>
      <point x="199" y="553.333"/>
      <point x="199" y="358" type="curve"/>
      <point x="223.333" y="384"/>
      <point x="280" y="410.667"/>
      <point x="322.333" y="410.667" type="curve" smooth="yes"/>
      <point x="397.667" y="410.667"/>
      <point x="450" y="359.333"/>
      <point x="517" y="359.333" type="curve" smooth="yes"/>
      <point x="554" y="359.333"/>
      <point x="574.333" y="371.333"/>
      <point x="591.667" y="386.667" type="curve"/>
      <point x="604.333" y="363.667" type="line"/>
      <point x="583" y="333"/>
      <point x="533.333" y="300"/>
      <point x="464.333" y="300" type="curve" smooth="yes"/>
      <point x="393.667" y="300"/>
      <point x="334.667" y="350"/>
      <point x="267.333" y="350" type="curve" smooth="yes"/>
      <point x="235.667" y="350"/>
      <point x="214.333" y="339.333"/>
      <point x="199.667" y="325.667" type="curve"/>
      <point x="199.667" y="139"/>
      <point x="298.667" y="39.3333"/>
      <point x="421.333" y="39.3333" type="curve" smooth="yes"/>
      <point x="531.667" y="39.3333"/>
      <point x="591" y="88.6667"/>
      <point x="644.333" y="144.333" type="curve"/>
      <point x="670.333" y="121.667" type="line"/>
      <point x="621.333" y="56.6667"/>
      <point x="537.695" y="-18"/>
      <point x="390" y="-18" type="curve" smooth="yes"/>
      <point x="219" y="-18"/>
      <point x="43.3333" y="97.3333"/>
    </contour>
  </outline>
</glyph>
<glyph name="uni0409" format="2">
  <advance width="1014"/>
  <unicode hex="0409"/>
  <outline>
    <contour>
      <point x="20.6667" y="67.3333" type="curve" smooth="yes"/>
      <point x="20.6667" y="107.667"/>
      <point x="51.3333" y="133.333"/>
      <point x="82.3333" y="133.333" type="curve" smooth="yes"/>
      <point x="123.667" y="133.333"/>
      <point x="138" y="107"/>
      <point x="140.333" y="84.3333" type="curve" smooth="yes"/>
      <point x="142.333" y="67"/>
      <point x="142.667" y="58.6667"/>
      <point x="147.333" y="54" type="curve"/>
      <point x="162" y="47.3333"/>
      <point x="177" y="57.6667"/>
      <point x="188.333" y="68" type="curve"/>
      <point x="241.333" y="91.3333"/>
      <point x="270.333" y="204.667"/>
      <point x="270.333" y="571" type="curve" smooth="yes"/>
      <point x="270.333" y="628.333"/>
      <point x="254.667" y="642"/>
      <point x="184.333" y="648.333" type="curve"/>
      <point x="184.667" y="671.333" type="line"/>
      <point x="735.667" y="671.333" type="line"/>
      <point x="735.667" y="648.333" type="line"/>
      <point x="656.667" y="640.667"/>
      <point x="647.667" y="630"/>
      <point x="647.667" y="557" type="curve" smooth="yes"/>
      <point x="647.667" y="373.333" type="line"/>
      <point x="744.874" y="372.667"/>
      <point x="780.795" y="370.667"/>
      <point x="812.667" y="358.667" type="curve"/>
      <point x="943.333" y="338"/>
      <point x="986.333" y="258.667"/>
      <point x="986.333" y="181.667" type="curve" smooth="yes"/>
      <point x="986.333" y="56"/>
      <point x="871" y="0"/>
      <point x="724.333" y="0" type="curve" smooth="yes"/>
      <point x="420.333" y="0" type="line"/>
      <point x="420.333" y="23" type="line"/>
      <point x="495" y="30"/>
      <point x="509.667" y="43.3333"/>
      <point x="509.667" y="104" type="curve" smooth="yes"/>
      <point x="509.667" y="583.667" type="line" smooth="yes"/>
      <point x="509.667" y="621.667"/>
      <point x="492.333" y="635.333"/>
      <point x="459.333" y="635.333" type="curve" smooth="yes"/>
      <point x="364.667" y="635.333" type="line" smooth="yes"/>
      <point x="331.667" y="635.333"/>
      <point x="314.333" y="627.667"/>
      <point x="314.333" y="583.667" type="curve"/>
      <point x="314.274" y="453.561"/>
      <point x="308.033" y="268.844"/>
      <point x="276.667" y="203.333" type="curve"/>
      <point x="261.333" y="73.3333"/>
      <point x="217" y="-13.6667"/>
      <point x="122.667" y="-13.6667" type="curve" smooth="yes"/>
      <point x="83.3333" y="-13.6667"/>
      <point x="20.6667" y="0.333333"/>
    </contour>
    <contour>
      <point x="647.667" y="70.3333" type="line" smooth="yes"/>
      <point x="647.667" y="46"/>
      <point x="661.333" y="35.6667"/>
      <point x="692.333" y="35.6667" type="curve" smooth="yes"/>
      <point x="792.667" y="35.6667"/>
      <point x="835.333" y="80.6667"/>
      <point x="835.333" y="187" type="curve" smooth="yes"/>
      <point x="835.333" y="261.333"/>
      <point x="807.667" y="303.333"/>
      <point x="752" y="318.667" type="curve"/>
      <point x="729.333" y="332"/>
      <point x="702.667" y="336.333"/>
      <point x="647.667" y="335.667" type="curve"/>
    </contour>
  </outline>
</glyph>
<glyph name="uni0429" format="2">
  <advance width="1074"/>
  <unicode hex="0429"/>
  <outline>
    <contour>
      <point x="15.3333" y="0" type="line"/>
      <point x="15.3333" y="23" type="line"/>
      <point x="85.6667" y="29.3333"/>
      <point x="101.333" y="43"/>
      <point x="101.333" y="100.333" type="curve" smooth="yes"/>
      <point x="101.333" y="570" type="line" smooth="yes"/>
      <point x="101.333" y="626"/>
      <point x="87" y="640.333"/>
      <point x="15.3333" y="648.333" type="curve"/>
      <point x="15.3333" y="671.333" type="line"/>
      <point x="332.667" y="671.333" type="line"/>
      <point x="332.667" y="648.333" type="line"/>
      <point x="258" y="641.333"/>
      <point x="243.333" y="626"/>
      <point x="243.333" y="570" type="curve" smooth="yes"/>
      <point x="243.333" y="89" type="line" smooth="yes"/>
      <point x="243.333" y="51.3333"/>
      <point x="260.333" y="36"/>
      <point x="292.333" y="36" type="curve" smooth="yes"/>
      <point x="410" y="36" type="line" smooth="yes"/>
      <point x="443.006" y="36"/>
      <point x="460" y="51"/>
      <point x="460" y="89" type="curve" smooth="yes"/>
      <point x="460" y="570" type="line" smooth="yes"/>
      <point x="460" y="626"/>
      <point x="444.333" y="641"/>
      <point x="370.667" y="648.333" type="curve"/>
      <point x="370.667" y="671.333" type="line"/>
      <point x="690.255" y="671.333" type="line"/>
      <point x="690.255" y="648.333" type="line"/>
      <point x="616.029" y="640.667"/>
      <point x="602" y="626"/>
      <point x="602" y="570" type="curve" smooth="yes"/>
      <point x="602" y="89" type="line" smooth="yes"/>
      <point x="602" y="51.3333"/>
      <point x="619.014" y="36"/>
      <point x="651.084" y="36" type="curve" smooth="yes"/>
      <point x="769.241" y="36" type="line" smooth="yes"/>
      <point x="802.325" y="36"/>
      <point x="819.333" y="51"/>
      <point x="819.333" y="89" type="curve" smooth="yes"/>
      <point x="819.333" y="570" type="line" smooth="yes"/>
      <point x="819.333" y="626"/>
      <point x="804.301" y="641"/>
      <point x="730.417" y="648.333" type="curve"/>
      <point x="730.417" y="671.333" type="line"/>
      <point x="1049.33" y="671.333" type="line"/>
      <point x="1049.33" y="648.333" type="line"/>
      <point x="975.333" y="640.667"/>
      <point x="961.333" y="626"/>
      <point x="961.333" y="570" type="curve" smooth="yes"/>
      <point x="961.333" y="112.667" type="line" smooth="yes"/>
      <point x="961.333" y="55.3333"/>
      <point x="978.333" y="41"/>
      <point x="1049.33" y="35.3333" type="curve"/>
      <point x="1052" y="-190" type="line"/>
      <point x="1027.67" y="-190" type="line"/>
      <point x="1010" y="-30.6667"/>
      <point x="923" y="0"/>
      <point x="822.667" y="0" type="curve" smooth="yes"/>
    </contour>
  </outline>
</glyph>
<glyph name="uni042E" format="2">
  <advance width="1062"/>
  <unicode hex="042E"/>
  <outline>
    <contour>
      <point x="14.6667" y="0" type="line"/>
      <point x="14.6667" y="23" type="line"/>
      <point x="87.3333" y="30.6667"/>
      <point x="100.667" y="43.3333"/>
      <point x="100.667" y="104" type="curve" smooth="yes"/>
      <point x="100.667" y="571" type="line" smooth="yes"/>
      <point x="100.667" y="628.333"/>
      <point x="85" y="642"/>
      <point x="14.6667" y="648.333" type="curve"/>
      <point x="14.6667" y="671.333" type="line"/>
      <point x="332" y="671.333" type="line"/>
      <point x="332" y="648.333" type="line"/>
      <point x="259.667" y="642.667"/>
      <point x="242.667" y="628.333"/>
      <point x="242.667" y="571" type="curve" smooth="yes"/>
      <point x="242.667" y="368.333" type="line"/>
      <point x="344.667" y="368.333" type="line"/>
      <point x="356.667" y="544.667"/>
      <point x="490.667" y="686"/>
      <point x="683.667" y="686" type="curve" smooth="yes"/>
      <point x="871.333" y="686"/>
      <point x="1019.33" y="540"/>
      <point x="1019.33" y="333" type="curve" smooth="yes"/>
      <point x="1019.33" y="128"/>
      <point x="882.667" y="-17.3333"/>
      <point x="679" y="-17.3333" type="curve" smooth="yes"/>
      <point x="469.333" y="-17.3333"/>
      <point x="346" y="152.333"/>
      <point x="343.333" y="323.333" type="curve"/>
      <point x="242.667" y="323.333" type="line"/>
      <point x="242.667" y="100.333" type="line" smooth="yes"/>
      <point x="242.667" y="44"/>
      <point x="258.333" y="30.3333"/>
      <point x="332" y="23" type="curve"/>
      <point x="332" y="0" type="line"/>
    </contour>
    <contour>
      <point x="498.667" y="327" type="curve" smooth="yes"/>
      <point x="498.667" y="110.667"/>
      <point x="583.333" y="16.6667"/>
      <point x="680.333" y="16.6667" type="curve" smooth="yes"/>
      <point x="801.333" y="16.6667"/>
      <point x="863.333" y="145.333"/>
      <point x="863.333" y="328.667" type="curve" smooth="yes"/>
      <point x="863.333" y="552.667"/>
      <point x="776" y="652"/>
      <point x="683" y="652" type="curve" smooth="yes"/>
      <point x="586" y="652"/>
      <point x="498.667" y="558"/>
    </contour>
  </outline>
</glyph>
<glyph name="uni0432" format="2">
  <advance width="512"/>
  <unicode hex="0432"/>
  <outline>
    <contour>
      <point x="19.3333" y="0" type="line"/>
      <point x="19.3333" y="22.3333" type="line"/>
      <point x="70" y="27.6667"/>
      <point x="76" y="45.3333"/>
      <point x="76" y="92.6667" type="curve" smooth="yes"/>
      <point x="76" y="365.333" type="line" smooth="yes"/>
      <point x="76" y="407.333"/>
      <point x="72" y="431.667"/>
      <point x="23.3333" y="435" type="curve"/>
      <point x="23.3333" y="457.333" type="line"/>
      <point x="270" y="457.333" type="line" smooth="yes"/>
      <point x="388" y="457.333"/>
      <point x="446.667" y="417.333"/>
      <point x="446.667" y="353.987" type="curve" smooth="yes"/>
      <point x="446.667" y="295"/>
      <point x="396" y="256.667"/>
      <point x="319.667" y="246.333" type="curve"/>
      <point x="384" y="243"/>
      <point x="472.667" y="212"/>
      <point x="472.667" y="122.361" type="curve" smooth="yes"/>
      <point x="472.667" y="29.3333"/>
      <point x="377" y="0"/>
      <point x="256" y="0" type="curve" smooth="yes"/>
    </contour>
    <contour>
      <point x="196.667" y="195.667" type="line"/>
      <point x="198.542" y="188.352"/>
      <point x="204.212" y="182.076"/>
      <point x="214.258" y="182.097" type="curve" smooth="yes"/>
      <point x="258.168" y="182.512"/>
      <point x="297.205" y="191.431"/>
      <point x="300.333" y="241.007" type="curve"/>
      <point x="323.688" y="283.333"/>
      <point x="318" y="306"/>
      <point x="289.188" y="327.266" type="curve"/>
      <point x="288.816" y="346.328"/>
      <point x="273.662" y="359.308"/>
      <point x="239.338" y="359.299" type="curve" smooth="yes"/>
      <point x="209.611" y="358.954"/>
      <point x="198.877" y="346.808"/>
      <point x="196.404" y="330.957" type="curve"/>
    </contour>
    <contour>
      <point x="196.667" y="138.667" type="line"/>
      <point x="199.697" y="119.471"/>
      <point x="213.582" y="105.891"/>
      <point x="245.897" y="105.398" type="curve" smooth="yes"/>
      <point x="273.453" y="105.382"/>
      <point x="286.981" y="118.676"/>
      <point x="287.534" y="135.248" type="curve"/>
      <point x="327" y="151.333"/>
      <point x="336.333" y="182.667"/>
      <point x="308.667" y="224.097" type="curve"/>
      <point x="307.004" y="262.667"/>
      <point x="284.023" y="290.667"/>
      <point x="227" y="290.667" type="curve" smooth="yes"/>
      <point x="216.867" y="290.667"/>
      <point x="201.8" y="288.667"/>
      <point x="196.667" y="283.667" type="curve"/>
    </contour>
  </outline>
</glyph>
<glyph name="uni0433" format="2">
  <advance width="423"/>
  <unicode hex="0433"/>
  <outline>
    <contour>
      <point x="19.3333" y="0" type="line"/>
      <point x="19.3333" y="20.3333" type="line"/>
      <point x="66.6667" y="28.3333"/>
      <point x="76" y="38"/>
      <point x="76" y="90" type="curve" smooth="yes"/>
      <point x="76" y="374" type="line" smooth="yes"/>
      <point x="76" y="417.333"/>
      <point x="63.3333" y="432.333"/>
      <point x="23.3333" y="437" type="curve"/>
      <point x="23.3333" y="457.333" type="line"/>
      <point x="395.333" y="457.333" type="line"/>
      <point x="401.667" y="321" type="line"/>
      <point x="378.333" y="321" type="line"/>
      <point x="359.716" y="404.679"/>
      <point x="339.343" y="425.256"/>
      <point x="268.703" y="425.87" type="curve" smooth="yes"/>
      <point x="229" y="426" type="line"/>
      <point x="200.48" y="426"/>
      <point x="196.599" y="409.221"/>
      <point x="196.599" y="385.789" type="curve"/>
      <point x="196.667" y="88" type="line"/>
      <point x="196.667" y="39.3333"/>
      <point x="208.667" y="26.3333"/>
      <point x="250.667" y="21" type="curve"/>
      <point x="250.667" y="0" type="line"/>
    </contour>
  </outline>
</glyph>
<glyph name="uni0436" format="2">
  <advance width="758"/>
  <unicode hex="0436"/>
  <outline>
    <contour>
      <point x="14.6667" y="-0.666667" type="line"/>
      <point x="14.6667" y="20.3333" type="line"/>
      <point x="69.6678" y="22.0541"/>
      <point x="93.7851" y="79.9381"/>
      <point x="113.929" y="124.766" type="curve" smooth="yes"/>
      <point x="137.507" y="176.696"/>
      <point x="163.547" y="229.708"/>
      <point x="239" y="245.667" type="curve"/>
      <point x="239" y="249.333" type="line"/>
      <point x="210.338" y="272.183"/>
      <point x="195.515" y="310.792"/>
      <point x="184.962" y="343.209" type="curve" smooth="yes"/>
      <point x="175.948" y="370.787"/>
      <point x="166.961" y="393"/>
      <point x="152" y="393" type="curve" smooth="yes"/>
      <point x="143.667" y="393"/>
      <point x="135.028" y="377.185"/>
      <point x="130.333" y="366.667" type="curve"/>
      <point x="123.615" y="352.992"/>
      <point x="110" y="343"/>
      <point x="89" y="343" type="curve" smooth="yes"/>
      <point x="65.6667" y="343"/>
      <point x="35.6667" y="360.667"/>
      <point x="35.6667" y="402.333" type="curve" smooth="yes"/>
      <point x="35.6667" y="436"/>
      <point x="60.6667" y="464.667"/>
      <point x="102" y="464.667" type="curve" smooth="yes"/>
      <point x="151" y="464.667"/>
      <point x="195.987" y="431.389"/>
      <point x="215.359" y="361.354" type="curve" smooth="yes"/>
      <point x="226" y="323.667"/>
      <point x="252" y="254.667"/>
      <point x="293.333" y="254.667" type="curve" smooth="yes"/>
      <point x="312.333" y="254.667" type="line"/>
      <point x="312.333" y="371.667" type="line" smooth="yes"/>
      <point x="312.333" y="416.333"/>
      <point x="298.333" y="432"/>
      <point x="259" y="436" type="curve"/>
      <point x="259" y="457" type="line"/>
      <point x="489" y="457" type="line"/>
      <point x="489" y="436" type="line"/>
      <point x="440.333" y="429.333"/>
      <point x="433" y="421.667"/>
      <point x="433" y="371.667" type="curve" smooth="yes"/>
      <point x="433" y="254.667" type="line"/>
      <point x="452" y="254.667" type="line" smooth="yes"/>
      <point x="495.333" y="254.667"/>
      <point x="518.667" y="323.667"/>
      <point x="529.974" y="361.354" type="curve" smooth="yes"/>
      <point x="550.595" y="431.068"/>
      <point x="594.333" y="464.667"/>
      <point x="642.667" y="464.667" type="curve" smooth="yes"/>
      <point x="684" y="464.667"/>
      <point x="709.667" y="436"/>
      <point x="709.667" y="402.333" type="curve" smooth="yes"/>
      <point x="709.667" y="361"/>
      <point x="679.667" y="343.667"/>
      <point x="656.333" y="343.667" type="curve" smooth="yes"/>
      <point x="635.333" y="343.667"/>
      <point x="621.119" y="353.376"/>
      <point x="614.333" y="367.333" type="curve" smooth="yes"/>
      <point x="609.439" y="377.919"/>
      <point x="603" y="393.667"/>
      <point x="594" y="393.667" type="curve" smooth="yes"/>
      <point x="578.622" y="393.667"/>
      <point x="569.475" y="371.193"/>
      <point x="560.321" y="343.415" type="curve" smooth="yes"/>
      <point x="549.679" y="311.021"/>
      <point x="534.826" y="272.698"/>
      <point x="506.333" y="250" type="curve"/>
      <point x="506.333" y="246.333" type="line"/>
      <point x="582.273" y="228.963"/>
      <point x="608.115" y="176.506"/>
      <point x="631.004" y="126.268" type="curve" smooth="yes"/>
      <point x="651.688" y="80.2854"/>
      <point x="676.13" y="22.7208"/>
      <point x="730.667" y="21" type="curve"/>
      <point x="730.667" y="0" type="line"/>
      <point x="579.333" y="0" type="line"/>
      <point x="495.333" y="180.333" type="line" smooth="yes"/>
      <point x="482.681" y="207.404"/>
      <point x="470.517" y="217.203"/>
      <point x="448.112" y="217.319" type="curve"/>
      <point x="433" y="217.333" type="line"/>
      <point x="433" y="90" type="line" smooth="yes"/>
      <point x="433" y="34.6667"/>
      <point x="440.333" y="27.6667"/>
      <point x="489" y="21" type="curve"/>
      <point x="489" y="0" type="line"/>
      <point x="259" y="0" type="line"/>
      <point x="259" y="21" type="line"/>
      <point x="298.333" y="25"/>
      <point x="312.333" y="40"/>
      <point x="312.333" y="90" type="curve" smooth="yes"/>
      <point x="312.333" y="216.667" type="line"/>
      <point x="297.118" y="216.65" type="line"/>
      <point x="274.766" y="216.524"/>
      <point x="262.629" y="206.69"/>
      <point x="250" y="179.667" type="curve" smooth="yes"/>
      <point x="166" y="-0.666667" type="line"/>
    </contour>
  </outline>
</glyph>
<glyph name="uni0437" format="2">
  <advance width="456"/>
  <unicode hex="0437"/>
  <outline>
    <contour>
      <point x="23.3333" y="85.6667" type="curve"/>
      <point x="40.6667" y="99.3333" type="line"/>
      <point x="73" y="57.3333"/>
      <point x="136.333" y="30"/>
      <point x="193.481" y="30" type="curve" smooth="yes"/>
      <point x="263.333" y="30"/>
      <point x="303.667" y="70"/>
      <point x="303.667" y="128.604" type="curve" smooth="yes"/>
      <point x="303.667" y="172.667"/>
      <point x="281.333" y="225.333"/>
      <point x="182.667" y="225.333" type="curve"/>
      <point x="182.667" y="260.333" type="line"/>
      <point x="236" y="260.333"/>
      <point x="291.667" y="275.333"/>
      <point x="291.667" y="347.276" type="curve" smooth="yes"/>
      <point x="291.667" y="402.667"/>
      <point x="258.667" y="436"/>
      <point x="200.4" y="436" type="curve" smooth="yes"/>
      <point x="150.333" y="436"/>
      <point x="95" y="410.667"/>
      <point x="70.6667" y="318.667" type="curve"/>
      <point x="49.6667" y="318.667" type="line"/>
      <point x="49.6667" y="464" type="line"/>
      <point x="68.6667" y="464" type="line"/>
      <point x="73.4084" y="452.096"/>
      <point x="79.1674" y="447.333"/>
      <point x="89.7313" y="447.333" type="curve" smooth="yes"/>
      <point x="107.218" y="447.333"/>
      <point x="127.462" y="452.267"/>
      <point x="140.044" y="456.374" type="curve" smooth="yes"/>
      <point x="162.498" y="463.518"/>
      <point x="190.706" y="468.333"/>
      <point x="222.759" y="468.333" type="curve" smooth="yes"/>
      <point x="340.707" y="468.333"/>
      <point x="416.333" y="429.675"/>
      <point x="416.333" y="352.566" type="curve" smooth="yes"/>
      <point x="416.333" y="296.558"/>
      <point x="375.66" y="256.052"/>
      <point x="333.667" y="251.333" type="curve"/>
      <point x="333.333" y="247.667" type="line"/>
      <point x="385.217" y="240.768"/>
      <point x="436.667" y="198.238"/>
      <point x="436.667" y="125.205" type="curve" smooth="yes"/>
      <point x="436.667" y="47.3436"/>
      <point x="354.427" y="-12"/>
      <point x="219.333" y="-12" type="curve" smooth="yes"/>
      <point x="106.667" y="-12"/>
      <point x="43" y="47.6667"/>
    </contour>
  </outline>
</glyph>
<glyph name="uni0439" format="2">
  <advance width="540"/>
  <unicode hex="0439"/>
  <outline>
    <component base="uni0438"/>
    <contour>
      <point x="126.333" y="639.595" type="curve" smooth="yes"/>
      <point x="126.333" y="651.667"/>
      <point x="136.667" y="689.667"/>
      <point x="174.467" y="689.667" type="curve" smooth="yes"/>
      <point x="206.667" y="689.667"/>
      <point x="216.333" y="670"/>
      <point x="216.333" y="652.929" type="curve" smooth="yes"/>
      <point x="216.333" y="639.319"/>
      <point x="202.805" y="627.775"/>
      <point x="190.728" y="627.77" type="curve" smooth="yes"/>
      <point x="182.197" y="627.764"/>
      <point x="177.233" y="631.456"/>
      <point x="173.988" y="637.926" type="curve" smooth="yes"/>
      <point x="172.786" y="640.464"/>
      <point x="170.363" y="642.485"/>
      <point x="167.079" y="642.485" type="curve" smooth="yes"/>
      <point x="163.264" y="642.485"/>
      <point x="159.667" y="638.586"/>
      <point x="159.667" y="630.116" type="curve" smooth="yes"/>
      <point x="159.667" y="591.051"/>
      <point x="232.358" y="578.333"/>
      <point x="274" y="578.333" type="curve" smooth="yes"/>
      <point x="315.642" y="578.333"/>
      <point x="389.333" y="591.051"/>
      <point x="389.333" y="630.035" type="curve" smooth="yes"/>
      <point x="389.333" y="639.677"/>
      <point x="386.48" y="642.655"/>
      <point x="382.336" y="642.607" type="curve" smooth="yes"/>
      <point x="378.747" y="642.56"/>
      <point x="375.265" y="639.39"/>
      <point x="371.97" y="635.721" type="curve" smooth="yes"/>
      <point x="368.056" y="631.2"/>
      <point x="363.964" y="627.68"/>
      <point x="357.283" y="627.703" type="curve" smooth="yes"/>
      <point x="345.2" y="627.721"/>
      <point x="331.667" y="639.306"/>
      <point x="331.667" y="652.927" type="curve" smooth="yes"/>
      <point x="331.667" y="670"/>
      <point x="341.333" y="689.667"/>
      <point x="373.533" y="689.667" type="curve" smooth="yes"/>
      <point x="411.333" y="689.667"/>
      <point x="421.667" y="651.667"/>
      <point x="421.667" y="639.595" type="curve" smooth="yes"/>
      <point x="421.667" y="590.333"/>
      <point x="378" y="521"/>
      <point x="274" y="521" type="curve" smooth="yes"/>
      <point x="170" y="521"/>
      <point x="126.333" y="590.333"/>
    </contour>
  </outline>
</glyph>
<glyph name="uni043B" format="2">
  <advance width="530"/>
  <unicode hex="043B"/>
  <outline>
    <contour>
      <point x="9.33333" y="64.0936" type="curve" smooth="yes"/>
      <point x="9.33333" y="97.2262"/>
      <point x="31.3041" y="120.586"/>
      <point x="64.4059" y="120.586" type="curve" smooth="yes"/>
      <point x="95.1496" y="120.586"/>
      <point x="113.84" y="102.333"/>
      <point x="113.84" y="78.7428" type="curve" smooth="yes"/>
      <point x="113.84" y="74.4092"/>
      <point x="112.446" y="69.1807"/>
      <point x="111.2" y="65.2571" type="curve"/>
      <point x="109.813" y="62.1335"/>
      <point x="109.715" y="57.3749"/>
      <point x="109.738" y="55.4232" type="curve"/>
      <point x="109.782" y="47.8306"/>
      <point x="116.105" y="43.6667"/>
      <point x="124.667" y="43.6667" type="curve" smooth="yes"/>
      <point x="169.667" y="43.6667"/>
      <point x="185" y="148.333"/>
      <point x="185" y="370.333" type="curve" smooth="yes"/>
      <point x="185" y="416"/>
      <point x="172" y="432.333"/>
      <point x="132.667" y="436.333" type="curve"/>
      <point x="132.667" y="457.333" type="line"/>
      <point x="513" y="457.333" type="line"/>
      <point x="513" y="436.333" type="line"/>
      <point x="469.667" y="432.333"/>
      <point x="459" y="420.667"/>
      <point x="459" y="374" type="curve" smooth="yes"/>
      <point x="459" y="83.3333" type="line" smooth="yes"/>
      <point x="459" y="36.6667"/>
      <point x="469.667" y="25"/>
      <point x="513" y="21" type="curve"/>
      <point x="513" y="0" type="line"/>
      <point x="285.667" y="0" type="line"/>
      <point x="285.667" y="21" type="line"/>
      <point x="325.667" y="25.6667"/>
      <point x="338.333" y="40"/>
      <point x="338.333" y="83.3333" type="curve"/>
      <point x="338.401" y="385.789" type="line"/>
      <point x="338.401" y="409.221"/>
      <point x="333.52" y="426"/>
      <point x="306" y="426" type="curve" smooth="yes"/>
      <point x="258.333" y="426" type="line" smooth="yes"/>
      <point x="229.813" y="426"/>
      <point x="225.921" y="409.221"/>
      <point x="225.932" y="385.789" type="curve" smooth="yes"/>
      <point x="226" y="253.881" type="line" smooth="yes"/>
      <point x="226.07" y="79.3825"/>
      <point x="195.093" y="-7.66667"/>
      <point x="98.9934" y="-7.66667" type="curve" smooth="yes"/>
      <point x="48.9934" y="-7.66667"/>
      <point x="9.33333" y="22.7603"/>
    </contour>
  </outline>
</glyph>
